<svg xmlns="http://www.w3.org/2000/svg" viewBox="0 0 2484.53 1584.66"><defs><style>.cls-1{fill:#fcecdb;}.cls-2{fill:#f9ddbe;}.cls-3{fill:#82b378;}.cls-4{fill:#2e3552;}.cls-5{fill:#2c3a64;}.cls-6{fill:#2b478b;}.cls-7{fill:#233862;}.cls-8{fill:#223e77;}.cls-9{fill:#ed985f;}.cls-10{fill:#ffb27d;}.cls-11{fill:#ffc542;}.cls-12{fill:#fff;}.cls-13{fill:#d3671e;}.cls-14{fill:#35488b;}.cls-15{fill:#d86713;opacity:0.4;}.cls-16{fill:#ea9c68;}.cls-17{fill:#f1a34f;}.cls-18{fill:#ed975d;}.cls-19{fill:#223d75;}.cls-20{fill:#e57970;}.cls-21{fill:#c95c12;}.cls-22{fill:#1d3972;}</style></defs><g id="Layer_2" data-name="Layer 2"><g id="_Layer_" data-name="&lt;Layer&gt;"><path class="cls-1" d="M404,1576.54s-677.71-505-277.62-1015.44C435.08,167.3,946.11,458,1065.07,414.71S1440.22-126.38,1947.2,30.45c627.66,194.17,375.6,1068.15,159.22,1544.85Z"/><path class="cls-2" d="M557,1576.54S-10.82,1153.38,324.4,725.72c258.65-330,686.83-86.41,786.51-122.66s314.34-453.37,739.12-322c525.91,162.69,314.71,895,133.41,1294.4Z"/><path class="cls-3" d="M380.65,1568.82c-6.21-9.76-24.91-35.1-49.82-31.75-27.14,3.66,30,21.55,47.46,31.82a28.75,28.75,0,0,1-9.68-1.13c-11.69-4.16-31.71,3.83-38.11,6.63H441.8a17.71,17.71,0,0,0-8-10.18c-1.83-1.11-5.5-1.27-10.25-.91,6.62-7.8,11.22-32.72-7.21-26.31-13.45,4.69-13.42,19.91-12.09,28.92-2.87.45-5.77.9-8.64,1.32-5.54-28.24-25.14-111-64.86-113.21-40.27-2.24,34.15,85.83,58.93,114C386.54,1568.4,383.48,1568.69,380.65,1568.82Z"/><path class="cls-4" d="M99.47,1574.39H2481.09a3.44,3.44,0,0,1,3.44,3.44v3.38a3.44,3.44,0,0,1-3.44,3.44H99.47a3.45,3.45,0,0,1-3.45-3.45v-3.38a3.45,3.45,0,0,1,3.45-3.45Z"/><path class="cls-5" d="M740,290.6c-.57-3.12-7.9-36.56-59.62-30.86,0,0,25.74-.65,31.73,9.84,0,0-19.23-11.25-32.62-4.79s-18.07,32.25-17,40.34,12.68,33,21.91,34a27.4,27.4,0,0,0,10.79-1.56,121.9,121.9,0,0,0-5.13,13.35c-14.41,45.14,12.75,83.26,29.47,76.19,10.73-4.54,16.64,14,16.64,14L831.8,337.68S780.06,261.12,740,290.6Z"/><path class="cls-6" d="M864.55,1536.27l-23.25,8.66s-101-140.07-113.43-263.31c-2.22-22-1.48-43.32,3.32-63,0,0-1-5.64-2.71-15.6-.8-4.66-1.79-10.25-2.91-16.67-3.28-18.81-7.8-44.56-13-73.87C700.72,1045,685.33,958.8,673.37,895.42l6.26-2,67.79-21.87,14-44.5,50.48-13.29S823.18,835.81,833.26,940c1.86,13.67,3.55,28.74,4.83,45.09a892,892,0,0,1-4.81,182.52q-3.46,27.17-8.86,56c-2.66,14.09-3.06,33.28-1.94,55.32C827.57,1379.7,864.55,1536.27,864.55,1536.27Z"/><path class="cls-7" d="M838.09,985.1,728.48,1203c-.8-4.66-1.79-10.25-2.91-16.67-3.28-18.81-7.8-44.56-13-73.87C700.72,1045,685.33,958.8,673.37,895.42l6.26-2,67.79-21.87,14-44.5,50.48-13.29S823.18,835.81,833.26,940C835.12,953.68,836.81,968.75,838.09,985.1Z"/><path class="cls-6" d="M789.87,841.72l-.12.52c-.35,1.43-1.42,5.84-3,12.15-7.29,30-25.09,102.79-26.17,102.73-9.77,68.27-24.47,156.72-42.72,224.71-9.66,36-20.3,66.2-31.77,84.7-3.93,6.35-8.22,17-12.69,30.5-26.38,79.74-58.83,260.23-58.83,260.23l-14.8,6s-57-162.18-7.61-293.87a250.13,250.13,0,0,1,18.59-39.09,7.57,7.57,0,0,0,1.23-4.71.15.15,0,0,0,0-.06c-.65-5.48-2.25-19.22-4.07-38.52-5-53.26-9.86-233.23-12.49-275.59a225.34,225.34,0,0,1,1.23-43c3.16-24.72,10.29-43.22,17.24-56.16,8.78-16.33,17.31-23.81,17.31-23.81S744.82,831.25,787.33,820Z"/><path class="cls-8" d="M789.74,852.47q-1.37,1-2.94,1.92c-39.17,22.89-176.59,14.85-190.11,14,3.16-24.72,10.29-43.22,17.24-56.16,58.78,5.22,156.2,15.79,175.82,30C794.21,845.47,794.66,848.89,789.74,852.47Z"/><path class="cls-9" d="M1009,806.05l-6.89,20.39s-1.39-.25-3.78-.86c-7.53-1.89-25.87-6.27-46.41-12.3-31-8.8-67.37-21.08-80.61-32.94-20.19-18-49.77-67.09-66.37-113.89a27.14,27.14,0,0,1-1.17-3.42c-8.58-24.8-13.39-48.73-10.87-66.69a91,91,0,0,1,8.07-27.87,73.7,73.7,0,0,1,17.43-23.32,13.2,13.2,0,0,1,3-2.51c10.09-8.37,17.86-13.75,17.86-13.75,4.47-1,9.71,4.6,13.48,10.46,0,0,6.13,11.66,8.74,20,.14.2.28.41.25.58.58,1.71,1.14,3.6,1.83,5.69A4.26,4.26,0,0,1,864,567q1.77,6.49,3.47,13.5c12.93,50.25,22.94,124.65,38,149,6.52,10.47,40.57,34.85,67.81,53.35C992.89,796,1009,806.05,1009,806.05Z"/><path class="cls-10" d="M826.77,577.62c-12.32,8-27.66,14.53-46.8,18.38-71.75,14.46-97.38-46.56-106.47-88.21a61.38,61.38,0,0,1,24.36-6.73c5.17-.47,10.6-.72,15.1-.81,8.17-5.91,20.81-30.67,24.54-69.55l3.33,1,55.75,17s-3.07,17.79-4.81,34.63c-1.35,13.18-1.86,25.8.56,29,4.35,1.08,7,1.77,7,1.77a.15.15,0,0,0,0,.06A361,361,0,0,1,826.77,577.62Z"/><path class="cls-11" d="M851.75,622.45c-.33,1.53-.73,3-1.18,4.57C838,669.13,827.79,837.47,827.79,837.47c9.09,28.68-221.65,26.29-226.12-.38-12.06-27.22,17.47-78,34.53-103.86a66.54,66.54,0,0,0,5.51-10.2A64.85,64.85,0,0,0,647,694.71c-1.5-38.5-8.18-73.82-11-95.48h0c3.56-3.52,7-6.81,10.22-9.92,4.91-4.8,9.21-9.24,12.23-13.55,3.33-4.71,5.18-9.29,4.76-14.1a69,69,0,0,0-1.88-11c-.42-1.72-.9-3.44-1.41-5.15a151.08,151.08,0,0,0-15.57-33.47c18.27-10.67,53.46-11,53.46-11s.24,1.92.68,5.06c1.72,12.62,6.52,45,11.45,50.51,6.16,6.89,103.46,26.9,106.85,15.84,3.33-10.88-16.77-56.67-17.52-58.4a.15.15,0,0,1,0-.06c32.72,7.66,45.27,16.26,45.27,16.26C827.67,545.08,860.63,582.09,851.75,622.45Z"/><path class="cls-9" d="M796.59,448.66s-3.09,17.77-4.82,34.63c-31.74-4.08-45.66-34.8-50.94-51.59Z"/><path class="cls-10" d="M805.62,465.69s-75.44-6.29-70.79-53.21-2-79.33,46.39-77.29,55.93,20.86,58.19,36.9S825.36,466.12,805.62,465.69Z"/><path class="cls-5" d="M839.79,345.78c-10.23-15.27-19.34-13.06-24.69-9.31-38.9-26.75-68.78,4-68.78,4-8.4,33.16-34.61,50-34.61,50s12.88,9.85,45.34,4.88c9.91-1.51,19.23-7.52,27.4-15.12a176.37,176.37,0,0,1-33.93,33.91c39.55-13.69,60-64.74,62.06-70.15,4.18,4.59,12.35,14.46,14.23,23.53,2.56,12.32,1.78,37.08,9,37C835.85,404.55,855.13,368.69,839.79,345.78Z"/><path class="cls-11" d="M759.07,791.38c-44.58,6-89-34.76-117.36-68.35A64.85,64.85,0,0,0,647,694.71c-1.5-38.5-8.18-73.82-11-95.48h0c3.56-3.52,7-6.81,10.22-9.92,4.91-4.8,9.21-9.24,12.23-13.55C703.89,632.06,819.5,783.26,759.07,791.38Z"/><path class="cls-9" d="M914.58,806.65l7.89,26.76s-19.91-4.53-32.38-5.74c-3.74-.38-5.89-.72-5.89-.72-10-1.08-22-2.69-35-4.38H849c-22.38-3.36-47.47-7.54-68.76-12.76-15-3.81-28.08-8.15-37.14-12.84a20.54,20.54,0,0,1-2.61-1.55c-21.8-13.11-50-54.82-73-100.16-3.19-6.26-6.22-12.53-9.21-18.63-10.81-22.73-19.83-45.27-25.77-64.89-3.67-11.68-6.36-22.4-7.49-31.31a78.37,78.37,0,0,1-.95-8.93c-.13-1.62-.23-3.21-.3-4.74,8.81-7.72,29.14-22.13,56.86-20.63.58,1,1.15,2,1.73,3,12,21.75,25,50.11,37.35,78.36,6.83,15.48,13.47,31,20,45.25,3.76,8.68,7.48,16.83,11,24.31,6.72,14.25,12.65,25.74,17.69,32.9,3.24,4.67,11.89,10.81,23.25,17.59,19.75,11.89,48.34,25.83,73.16,37.09,10.31,4.77,20,9.05,28.13,12.58C906,803,914.58,806.65,914.58,806.65Z"/><path class="cls-11" d="M683.4,549.45c-34.55-6.37-59.36,22-59.36,22-4-50.79,20.68-59.94,20.68-59.94C654.52,506.43,668.89,523.24,683.4,549.45Z"/><path class="cls-7" d="M685.86,1575.31H568.75s-2.8-17.85,3.31-31.39c5.86-13,15-18.9,12.85-34.62,7.44,7.66,19.57,16.24,36.5,14,2.07,3.37,13.39,21.37,20.32,26.34C649.38,1555.1,683.51,1553.14,685.86,1575.31Z"/><path class="cls-7" d="M937.32,1575.31H820.21s-4.38-18.68,3.31-31.39c6.8-11.25,4.19-17.65-.85-27a45.59,45.59,0,0,0,19.73,3.72c5.83-.34,12-3,17.41-6.13,5,5.75,26.63,30.21,33.37,35C900.83,1555.1,935,1553.14,937.32,1575.31Z"/><path class="cls-12" d="M787.63,438.56s1,6.21,16.34,6.23c0,0,12.83,0,12.86-6.74C816.83,438.05,804.74,432.48,787.63,438.56Z"/><path class="cls-10" d="M936.28,858.94S880.92,787.26,854,765c0,0-36.86-90.88-39.85-96.86a2.83,2.83,0,0,0-.54-.73c-.4-2.11-1.65-9.71-.27-16.69,1.62-8.21-3.59-27.88-7.17-26.1s-.64,8.66-5,8.55S786,611,780.87,614.09s-7.76,11.56-3.14,28.16c3.85,13.81,11.91,26.79,14.5,30.76l-.23.13s13.54,88.33,27.81,114.52S878.35,901.73,909.6,905,936.28,858.94,936.28,858.94Z"/><path class="cls-10" d="M1180.48,634.68c-5-1.9-11,19-14.85,19.81s-2.29-5.72-5.69-6.73-5,17-2.31,24,2.29,15.19,2.29,15.19-22.66,87.51-27.53,97.3-84.75,81-84.75,81L1065.21,922s94.08-86.92,102.1-107.37S1179,689.22,1179,689.22s7-15.12,8.56-30.35S1185.43,636.59,1180.48,634.68Z"/><path class="cls-10" d="M1043.93,848.68l-37.8,49.45-34.77-58.61s7.64-14.4,11.1-38a158.89,158.89,0,0,0,1.24-34.25l48.87,25a93.31,93.31,0,0,0-1.94,11.19c-.83,7.21-1.2,16.93.84,26.16C1033.24,837.56,1037.35,843.33,1043.93,848.68Z"/><path class="cls-13" d="M1103.47,1533.4s6.25,12.2,20.11,15.22c8.73,1.9,16.2,6.45,20.85,12.82a8.13,8.13,0,0,1-6.53,13h-70.34a10.11,10.11,0,0,1-10.06-11.13c.52-5.21,1.07-11.28,1.31-15.93.52-10.16,10.69-18.33,10.69-18.33Z"/><path class="cls-14" d="M1105.17,1536.47s-16.88,10-45.43,4c0,0-48.54-124.12-51.41-182.53-.13-2.35-.17-4.58-.13-6.71,1-54.93-49.75-198-36.07-227.3s124.23,13.18,124.23,13.18l2.2,99.68Z"/><path class="cls-5" d="M1098.56,1236.74l-90.23,121.15c-.13-2.35-.17-4.58-.13-6.71,1-54.93-49.75-198-36.07-227.3s124.23,13.18,124.23,13.18Z"/><path class="cls-13" d="M921.88,1533.4s6.25,12.2,20.11,15.22c8.73,1.9,16.2,6.45,20.85,12.82a8.13,8.13,0,0,1-6.54,13H886a10.12,10.12,0,0,1-10.07-11.13c.53-5.21,1.08-11.28,1.31-15.93.52-10.16,10.7-18.33,10.7-18.33Z"/><path class="cls-14" d="M1031.7,1139.42S934,1504,931,1539.71c0,0-19.06,9.77-50-7.5,0,0-18-163.41,0-208.07s-3.56-179.64,42.13-210.09S1031.7,1139.42,1031.7,1139.42Z"/><path class="cls-11" d="M1123.59,878.05c6.31-37.93-17.82-65.24-17.82-65.24l-36.17,25.74c-7,.41-10,3-10,3-6-1.61-22.7,0-22.7,0,.26,8.63-3.17,16.5-18.31,18.48-20.13,2.62-38.14-11.12-47.25-20.46a76.46,76.46,0,0,0-27.5,3.93,41,41,0,0,0-15.3-4L899,812.81s-34.69,10-40.16,62.3c0,0,38.94,29.63,41.75,53l1.07,8.87,3.77,31.44,6.65,55.14-19.78,109.84a16.47,16.47,0,0,0-.27,2.86,16.18,16.18,0,0,0,12.4,15.72s1.7.29,4.83.72c21,3,106.08,13.1,172.81-5a32.41,32.41,0,0,0,23.65-33.91l-14.12-177.17s1.33-28.33,1.67-33.32S1123.59,878.05,1123.59,878.05Z"/><path class="cls-15" d="M936.22,1069.83c-1.32,38.31-5.08,70.79-27,82.92-3.13-.43-4.83-.72-4.83-.72a16.18,16.18,0,0,1-12.4-15.72,16.47,16.47,0,0,1,.27-2.86L912,1023.61l-6.65-55.14.49-1.47S937.9,1020.76,936.22,1069.83Z"/><path class="cls-16" d="M1031.47,829.64c-27.79-.75-49-28.12-49-28.12l48.17,2C1029.8,810.69,1029.43,820.41,1031.47,829.64Z"/><path class="cls-10" d="M1045,814.15s-55.43,14.64-74.56-29.45c-20.64-47.57,2-82.23,20.83-84.57,37.54-4.67,59.35,9.65,66,24.78S1075.55,806.35,1045,814.15Z"/><path class="cls-12" d="M1023,789.33s2.32,5.72,16.94,2.51c0,0,12.28-2.69,10.89-9.16C1050.81,782.68,1038.07,779.91,1023,789.33Z"/><path class="cls-5" d="M971.39,664.72c-14.5,4.59-25.27,11.64-32.67,20.24a35.93,35.93,0,0,1-.77-6.28,17.72,17.72,0,0,0-1.48,9.06l-.24.34c-2.83.29-7,1.45-9.52,5.49a11.67,11.67,0,0,1,6.95-1.66c-19.55,32.27.3,80.44,46.63,108.22,0,0-6.5-19.08-5.73-29.27,0,0-14.46-18.45-6-23s13,6.35,14.91,4.21,4.94-38.4,15.18-37.25,48.11,12.88,64.71-1.44S1039.66,643.11,971.39,664.72Z"/><path class="cls-5" d="M2106.54,1461.05s23.95,22.2,19.28,38-26.29,26.29-29.21,45.57-14.6,29.79-25.12,29.79h-50.13s-7.73-13.57,11-17.66,25.74-26.74,24.57-47.77,1.75-49.06,1.75-49.06l39.72-9.35Z"/><path class="cls-5" d="M1808,1573.56a11.81,11.81,0,0,1-2.82.82H1672.31c1.07-4.66,5.22-14,21.24-16.59,20.93-3.39,57.23-15.55,65.32-42.35.26-.86.49-1.73.69-2.63,6.43-28.62,53.15,8.77,53.15,8.77s.14,1.14.34,3.07C1814.14,1535.14,1816.92,1569.12,1808,1573.56Z"/><path class="cls-17" d="M1699.11,808s7.09,88.55,15.43,195c11.34,144.59,25,322.2,26.33,355.85,2.33,58.43,11.69,151.88,11.69,151.88s22.18,22.21,66.59,12.85c0,0,39.57-133.41,50.87-274.57.18-2.32.35-4.65.53-7,10.51-143.7,26.86-446.3,26.86-446.3Z"/><path class="cls-15" d="M1699.11,808s7.09,88.55,15.43,195L1870,1249c.18-2.32.35-4.65.53-7,10.51-143.7,26.86-446.3,26.86-446.3Z"/><path class="cls-17" d="M1731.52,818.49s127.93,320.69,212,471.41S2054,1482.67,2054,1482.67s48.19-19.28,52.57-32.42c0,0-32.16-291-88.5-361.89-31.83-40.07-69.22-160.35-71-202.41s-11.39-125.3-11.39-125.3Z"/><path class="cls-10" d="M1353.37,697.56l-22.68,4.32s-42.48-10.06-58.1,34.76c0,0-5.06,19,9.1,18s8.59-2.66,28.6-3.64,37.78-11.09,42.48-25l11.08-12.3Z"/><path class="cls-7" d="M1338.76,716.12c-7-15.08-6.15-17.73-6.15-17.73s129.66-93.58,141.44-102.89S1610,414,1610,414l152.93,21.42s-205.82,203.79-236.13,226.79c-50.08,38-173.11,71.85-173.11,71.85A46.24,46.24,0,0,1,1338.76,716.12Z"/><path class="cls-10" d="M1675.16,313.61s-52.2,91.84-103.22,103.83c0,0,2.13-30.85,14.55-52-5.09-6-9.55-11.51-13.42-16.44-12.84-16.46-19-26.53-19-26.53L1571.44,276l11.74-31.59a152.68,152.68,0,0,0,18.36,26.46C1635,309.27,1675.16,313.61,1675.16,313.61Z"/><path class="cls-18" d="M1601.54,270.83s6.23,46-28.47,78.21c-12.84-16.46-19-26.53-19-26.53L1571.44,276C1590,270.3,1601.54,270.83,1601.54,270.83Z"/><path class="cls-10" d="M1540.37,329.3s78-30.41,58.3-78.69-22.87-84.71-73.49-67.34S1472.45,223,1475.1,240.7,1519.57,336,1540.37,329.3Z"/><path class="cls-11" d="M1943.24,784.89c-31.47,45.24-266.68,105.67-263.89,74.36a341,341,0,0,0,0-61.75q-.88-10.07-2.51-21.34c-6-41.14-20.17-94-51.83-155.26q-3.56-6.89-7.4-13.89A478.74,478.74,0,0,1,1585,533.73c-16.3-47.1-22.86-92.16-14.64-121.62a3.24,3.24,0,0,1,.13-.41c49.17-22.74,68.22-110.91,68.22-110.91s167.75,30.12,261.71,253.72C1900.38,554.51,1970.61,745.52,1943.24,784.89Z"/><path class="cls-7" d="M1679.32,797.5q-.88-10.07-2.51-21.34c-6-41.14-20.17-94-51.83-155.26,5.44-32.95,12.94-60.35,21.18-72.69,33.46-50.14,52.94-58,52.94-58S1749.28,701.82,1679.32,797.5Z"/><path class="cls-6" d="M1609.87,160.94c.54-1.08,2.13-2.23,6-3.42a16.21,16.21,0,0,0-7.85-.29c-2.19-5.34-7.51-14.44-17.49-14.51a12.29,12.29,0,0,1,7.83,7.22c-13.68-8.67-39-11.19-102.34,9.9-83.42,27.78-41.74,76.21-29.1,80.1s35.92-21,56.86-24.44S1556,241.26,1564,243.68s3.45-4.22,11.8-10.86,13.16,9,13,20,16.12,21.39,16.12,21.39l9.55-17.54c9.56-17.53,7-81.18-2.17-92.63C1611.49,163,1610.69,162,1609.87,160.94Z"/><path class="cls-19" d="M1441.52,525.22s0-29.54-18-44.58a156.41,156.41,0,0,0-22.2-15c-8.06-4.62-9.41-1.69-8.26,7.55.9,7.19-.85,16.57.46,21.38,4,14.88,5.4,25.68,21.24,32.2S1441.52,525.22,1441.52,525.22Z"/><path class="cls-20" d="M1346.22,535.7s-15.38,1.66-14.93,5.7,42.18-3.14,41.72-5.72S1351.7,535.08,1346.22,535.7Z"/><path class="cls-6" d="M1545.42,667.49s-2.87-32-41.73-47.59c-20.21-8.11-89.84-33-65.72-60.06,12.27-13.78,13.64-28.16,12-39-.23-1.51-.51-3-.82-4.31h0a49.25,49.25,0,0,0-5.06-13.19,10,10,0,0,0-.77-1.37,29.94,29.94,0,0,0-.25-17.11c-2.35-8.24-10.5-14.74-16.31-21.24-6.19-6.93-8.39-4.58-10.23,4.55-1.35,6.76-5.6,14.63-6.25,19.66a105.63,105.63,0,0,0-16.09.53h-.06c-2,.19-4,.45-6.08.76-20.66,3.06-22.41,12.78-31.82,12.91-8.59.11-19.56-.09-21.4-.13h-.26s-12.47-2.68-11.2,8.39q.21,1.79.39,3.39c.93,7.74,1.84,12.33,5,15.17,2.41,2.16,11.42,4.29,18,4.76,5.12.36,17.14.58,17.8.75,1.8.47-6.66,5.15-32.17,5.55l-1.39,0a2.38,2.38,0,0,0-2.32,2.21,9.61,9.61,0,0,0,4.06,8.59c5.94,4.54,28.7,3.7,25.6,10.1a11.44,11.44,0,0,1-3.57,3.85h0c-6.1,4.6-17.19,9-20.22,18.14,0,0,8.11-3.64,14-2.88,0,0-19.09,6.85-19.42,16.61a10.72,10.72,0,0,1,7-2.11s-15.28,15.48-13.28,37.72v0c-9.32,12.79-23.52,30.06-34.15,33,0,0-9.2-5.38-13.41-5.25s-10.59,6.68-10.57,11.72,24.5,6.37,27.48,5.4,66.35-1,73.3-5.42h0Z"/><rect class="cls-13" x="1280.96" y="650.94" width="277.48" height="246.1" transform="translate(-97.22 214.02) rotate(-8.34)"/><rect class="cls-17" x="1418.23" y="630.82" width="277.48" height="246.1" transform="translate(-92.85 233.72) rotate(-8.34)"/><polygon class="cls-15" points="1401.86 652.24 1677.12 611.91 1688.46 689.32 1437.54 895.74 1401.86 652.24"/><polygon class="cls-17" points="1291.38 854.08 1334.88 847.7 1329.12 835.1 1331.57 825.13 1288.07 831.5 1291.38 854.08"/><polygon class="cls-21" points="1405.89 679.77 1357.14 750.5 1277.9 762.11 1264.74 672.34 1401.86 652.24 1405.89 679.77"/><polygon class="cls-17" points="1264.58 672.36 1212.24 745.47 1349.61 725.34 1401.86 652.24 1264.58 672.36"/><polygon class="cls-17" points="1401.86 652.24 1465.57 708.35 1736.49 668.65 1676.41 612.01 1401.86 652.24"/><path class="cls-22" d="M1334.83,501.93c-1.3,3.85-4.55,10.94-11.07,11.78q-.18-1.61-.39-3.39c-1.27-11.07,11.2-8.39,11.2-8.39Z"/><path class="cls-19" d="M1318.63,664.44s24.77-19.66,56.48-24.62,80.09,4.6,80.09,4.6Z"/><path class="cls-19" d="M1503.69,619.9c-72.59-.21-138.3-56.41-102.88-58.4s48.34-45,48.34-45h0c.31,1.36.59,2.8.82,4.31,1.63,10.81.26,25.19-12,39C1413.85,586.9,1483.48,611.79,1503.69,619.9Z"/><path class="cls-19" d="M1542.1,632.13s9.61-35-28-29.22c0,0,5.49-14,25-14a14.26,14.26,0,0,0-5-6s23.7-4.49,33.43,13c0,0,2.74-11.2,0-16.21,0,0,25.45,6.75,22,32.19a16.27,16.27,0,0,0,6.25-10.26s7.09,12.37-1.08,22.78Z"/><path class="cls-19" d="M1413.79,490.64s.16-3,2.66-8.48,2.16-14.63,3.33-14.47,12.14,22.28,5.15,28.94C1424.93,496.63,1418.78,498.79,1413.79,490.64Z"/><path class="cls-13" d="M1322.87,632.21c-2-22.24,13.28-37.72,13.28-37.72a10.72,10.72,0,0,0-7,2.11c.33-9.76,19.42-16.61,19.42-16.61-5.93-.76-14,2.88-14,2.88,3-9.11,14.12-13.54,20.22-18.14h0c.38-.14,10.68-3.87,14.11,2.26S1322.26,607.87,1322.87,632.21Z"/><path class="cls-10" d="M1405.89,749.7s-29.28-1.53-35.75,0-27.8,14.85-27.8,16.75,1.33,3.24,5.33,2.86,16.75-4.19,16.18-2.48-36.87,15.24-36,22.85S1351.48,808,1369,806.06s48.78-26.73,51.24-28.41S1405.89,749.7,1405.89,749.7Z"/><path class="cls-6" d="M1406.14,764.75c-9.3-15-2.6-21.86-2.6-21.86s143.35-112.25,154.59-123.58,63.29-191.89,63.29-191.89,17.91-73.07,59.86-81.13c36.46-7,61.66,11,78.14,32.18a77.71,77.71,0,0,1,5.27,87.42c-36.6,61.68-110.44,184.1-132,205-48,46.55-208.54,111.6-208.54,111.6A55.53,55.53,0,0,1,1406.14,764.75Z"/><path class="cls-12" d="M1516.6,306.18s3.93,7.09,17.73,1.77c0,0,11.58-4.46,8.38-12.59C1542.71,295.36,1529.13,292.9,1516.6,306.18Z"/><path class="cls-3" d="M1461,1574.39H1318.1c-7.65-6.49,5.3-21.25,18.84-22.24,5.88-.44,13.31.79,21.81,2.58,2-26.11,13.19-143.52,55.51-138.8,47.59,5.28,0,51.7-13.45,79.19-10,20.35-20.47,49.55-25.28,63.32,3.87.84,7.87,1.66,12,2.41,6.31-19.36,29.77-84.5,59.62-80.7,35,4.44,21,30.56-3.88,46.06-18.22,11.4-40.6,27.6-51.23,35.43a152.06,152.06,0,0,0,28,2.24C1444.41,1563.3,1456.36,1570.51,1461,1574.39Z"/><path class="cls-9" d="M914.58,806.65s38.16,7.41,41.59,11.6,15.14,27,15.19,32.37-20,6.61-28.76-4.19-18.38-6-28-19.56S914.58,806.65,914.58,806.65Z"/></g></g></svg>