<svg xmlns="http://www.w3.org/2000/svg" viewBox="0 0 2960.64 1684.52"><defs><style>.cls-1{fill:#ebf3fa;}.cls-2{fill:#829ce8;}.cls-3{fill:#bbcdf9;}.cls-4{fill:#b3c9ff;}.cls-5{fill:#ccd9ff;}.cls-6{fill:#c0d8fb;}.cls-7{fill:#dfebfd;}.cls-8{fill:#b7d3f3;}.cls-9{fill:#9db0f4;}.cls-10{fill:#ed7d2b;}.cls-11{fill:#f1a34f;}.cls-12{fill:#bc6211;}.cls-13{fill:#ffdabb;}.cls-14{fill:#e85d52;}.cls-15{fill:#c5ddff;}.cls-16{fill:#f99746;}.cls-17{fill:#233862;}.cls-18{fill:#2c3a64;}.cls-19{fill:#ffb27d;}.cls-20{fill:#f9ddbf;}.cls-21{fill:#ed985f;}.cls-22{fill:#eac3a2;}.cls-23{fill:#fff;}.cls-24{fill:#223d75;}.cls-25{fill:#2b478b;}.cls-26{fill:#e57970;}.cls-27{fill:#1d3972;}.cls-28{fill:#2e3552;}.cls-29{fill:#163560;}.cls-30{fill:#afcdfb;}.cls-31{fill:#87afe8;}.cls-32{fill:#e8945b;}.cls-33{fill:#f2ccaa;}.cls-34{fill:#35488b;}.cls-35{fill:#ed975d;}.cls-36{fill:#d39e7a;}.cls-37{fill:#b5453c;}</style></defs><g id="Layer_2" data-name="Layer 2"><g id="_ëîé_1" data-name="‘ëîé_1"><path class="cls-1" d="M223.09,1683.68S-114.55,1216.14,40.92,771.3c257.61-737.14,1047.86-273.22,1309.65-552,434.35-462.61,1594.66-169.19,1379.07,654.1-104.33,398.42,317.52,412.9,102.57,811.15Z"/><path class="cls-2" d="M2202.05,1181.2v12.55c0,4.4,1.43,8,3.16,8h458.31c1.74,0,3.16-3.59,3.16-8V1181.2c0-4.39-1.42-8-3.16-8H2205.21C2203.48,1173.21,2202.05,1176.81,2202.05,1181.2Z"/><path class="cls-3" d="M2202.05,1181.2v12.55c0,4.4,1.31,8,2.9,8H2568.8c1.6,0,2.9-3.59,2.9-8V1181.2c0-4.39-1.3-8-2.9-8H2205C2203.36,1173.21,2202.05,1176.81,2202.05,1181.2Z"/><rect class="cls-4" x="2318.05" y="1201.75" width="325.37" height="474.25" transform="translate(4961.47 2877.74) rotate(180)"/><rect class="cls-5" x="2226.87" y="1201.75" width="325.37" height="474.25" transform="translate(4779.11 2877.74) rotate(180)"/><path class="cls-4" d="M2244.35,1215.14h290.4v434.67h-290.4Zm287.27,3.14H2247.48v428.39h284.14Z"/><rect class="cls-4" x="2245.92" y="1358.93" width="287.27" height="3.14"/><rect class="cls-4" x="2245.92" y="1505.53" width="287.27" height="3.14"/><path class="cls-4" d="M2360.11,1243.18h53.31a4.72,4.72,0,0,0,4.7-4.71h0a4.71,4.71,0,0,0-4.7-4.7h-53.31a4.72,4.72,0,0,0-4.7,4.7h0A4.72,4.72,0,0,0,2360.11,1243.18Z"/><path class="cls-4" d="M2360.11,1386.53h53.31a4.71,4.71,0,0,0,4.7-4.7h0a4.72,4.72,0,0,0-4.7-4.71h-53.31a4.72,4.72,0,0,0-4.7,4.71h0A4.72,4.72,0,0,0,2360.11,1386.53Z"/><path class="cls-4" d="M2360.11,1536h53.31a4.71,4.71,0,0,0,4.7-4.7h0a4.71,4.71,0,0,0-4.7-4.7h-53.31a4.71,4.71,0,0,0-4.7,4.7h0A4.71,4.71,0,0,0,2360.11,1536Z"/><rect class="cls-6" x="1536.41" y="275.15" width="228.2" height="221.39" rx="16.32"/><rect class="cls-7" x="1546.29" y="284.74" width="208.43" height="202.21" rx="14.91"/><path class="cls-8" d="M1645.78,304.94a4.73,4.73,0,1,1,4.73,4.73A4.72,4.72,0,0,1,1645.78,304.94Z"/><path class="cls-8" d="M1683.92,311.62a4.73,4.73,0,1,1,1.84,6.43A4.73,4.73,0,0,1,1683.92,311.62Z"/><path class="cls-8" d="M1716.6,337.59a4.72,4.72,0,1,1-1.41,6.53A4.71,4.71,0,0,1,1716.6,337.59Z"/><path class="cls-8" d="M1732.78,377.77a4.73,4.73,0,1,1-4.72,4.73A4.73,4.73,0,0,1,1732.78,377.77Z"/><path class="cls-8" d="M1724.52,424.4a4.73,4.73,0,1,1-6.68,0A4.73,4.73,0,0,1,1724.52,424.4Z"/><path class="cls-8" d="M1694.84,454.16a4.73,4.73,0,1,1-6.69,0A4.74,4.74,0,0,1,1694.84,454.16Z"/><path class="cls-8" d="M1645.78,469.5a4.73,4.73,0,1,1,4.73,4.73A4.72,4.72,0,0,1,1645.78,469.5Z"/><path class="cls-8" d="M1616.94,311.62a4.73,4.73,0,1,0-1.84,6.43A4.73,4.73,0,0,0,1616.94,311.62Z"/><path class="cls-8" d="M1584.26,337.59a4.72,4.72,0,1,0,1.41,6.53A4.71,4.71,0,0,0,1584.26,337.59Z"/><path class="cls-8" d="M1568.07,377.77a4.73,4.73,0,1,0,4.73,4.73A4.72,4.72,0,0,0,1568.07,377.77Z"/><path class="cls-8" d="M1576.34,424.4a4.73,4.73,0,1,0,6.68,0A4.73,4.73,0,0,0,1576.34,424.4Z"/><path class="cls-8" d="M1606,454.16a4.73,4.73,0,1,0,6.69,0A4.74,4.74,0,0,0,1606,454.16Z"/><path class="cls-8" d="M1649.23,382.5a4.73,4.73,0,1,1,4.73,4.72A4.73,4.73,0,0,1,1649.23,382.5Z"/><rect class="cls-8" x="1653.31" y="323.44" width="1.29" height="59.05"/><rect class="cls-8" x="1649.11" y="368.19" width="39.8" height="3.87" transform="translate(127.58 1109.43) rotate(-38.13)"/><path class="cls-5" d="M1011.32,689.08H1622a0,0,0,0,1,0,0v424a0,0,0,0,1,0,0H913.37a0,0,0,0,1,0,0V787A98,98,0,0,1,1011.32,689.08Z"/><path class="cls-9" d="M987.2,709.26H1601a0,0,0,0,1,0,0V1094.8a0,0,0,0,1,0,0H930.48a0,0,0,0,1,0,0V766A56.72,56.72,0,0,1,987.2,709.26Z"/><rect class="cls-5" x="909.7" y="1113.1" width="835.45" height="495.94"/><rect class="cls-2" x="929.87" y="1136.69" width="790.5" height="450.94"/><polygon class="cls-2" points="1098.63 1676.91 1072.16 1676.91 1077.55 1609.04 1114.43 1609.04 1098.63 1676.91"/><polygon class="cls-2" points="1564.79 1676.91 1591.25 1676.91 1585.87 1609.04 1548.98 1609.04 1564.79 1676.91"/><path class="cls-10" d="M1538.54,1300.94c8.07,4.15,21.42,7.9,26.14,18.54,1.67,3.77.77,17-4.89,16.22-3.11-.43-4-4.61-4.19-8.28a9.81,9.81,0,0,0-5.72-8.42L1513,1302.84l6.94-14.26S1535,1299.12,1538.54,1300.94Z"/><path class="cls-11" d="M1173.2,1553.55h223.15c0,2.66,40.15,0,40.15,0s-2.83-13.74-9.52-17.6c-1.52-.87-12.67,1.79-15.4,1.67,1.16-.72,24.78-8,19.48-44.17l12.61,58.24a2.21,2.21,0,0,0,2.18,1.86h49.4a2.22,2.22,0,0,0,2.18-1.81c.74-3.92,2-13.26-1.93-18-3.07-3.75-12.74-2.9-19.76-1.68-1.58.27-3,.56-4.23.82a2.21,2.21,0,0,1-2.61-2.74s3.67-10.79,10.36-25.78,16.39-34.19,28.45-51c2.42-3.37,4.93-6.65,7.53-9.78,9.33-11.23,15.65-38.21,7.48-50.12-1.07-1.56-5.88-6.71-4.15-6a19.77,19.77,0,0,1,7.89,6.59,2.21,2.21,0,0,0,4-1.24c1-28.14-20.27-52.19-28.61-64.46-2.71-4-4.06-6.74-2.82-8,5.36-5.33,29,8.18,39.74,7.8a28.42,28.42,0,0,0,14-4.24,2.14,2.14,0,0,0,1-1.71,2.21,2.21,0,0,0-1.18-2.13c-6.15-3.19-15.44-7.11-22.78-12.4-3.69-2.66-7-7.34-8.93-11.41a14.1,14.1,0,0,1-1-6.87,92.4,92.4,0,0,0,28.59,16.11c6.23,2.13,11.76,3.08,15.33,2.44,9.2-1.65,15-10.1,18.26-17a56.21,56.21,0,0,0,2.9-7.4,2.21,2.21,0,0,0-1.21-2.67c-1.5-.67-3.87-1.74-6.77-3.08-13.48-6.2-28.43-11.11-31.1-15.4a48.44,48.44,0,0,1-2.6-4.84v0c-4-8.34-7.89-19.34-19.09-28.22a77.82,77.82,0,0,0-42.54-16.89,35.8,35.8,0,0,0-3.59-.09c-11.53-.46-20.1,1.24-26.48,4.56h0c-24.73,12.86-16.69,49.83-21.87,78.06-.2,1.1-.42,2.19-.67,3.26-2.13,9.33-29.38,34.64-30.46,50-2.06,29.34-24,32.08-72.55,61.77-28.07,17.17-30.07,63.68-27.54,99.05a17,17,0,0,1-14.19,18c-11.8,2-24.93,2.78-37,.53-33.21-6.18-40.16-62.55-20.08-71,0,0-34.08-10-50.63,16.21S1160.07,1540.8,1173.2,1553.55Z"/><path class="cls-10" d="M1473.56,1220.55c9.78,0,18.12,7.44,19.68,17.59,2.36,15.37,4.71,37.55,1.74,52.81-4.42,22.76-24,31.09-36.65,24.35-23.27-12.46-12.64-60.62-6.17-83.08a15.75,15.75,0,0,1,15-11.67Z"/><path class="cls-12" d="M1582.15,1291a56.21,56.21,0,0,0,2.9-7.4,2.21,2.21,0,0,0-1.21-2.67c-1.5-.67-3.87-1.74-6.77-3.08C1577.07,1277.87,1575.17,1288.65,1582.15,1291Z"/><path class="cls-13" d="M1173.2,1553.55h39.26C1167.64,1544.33,1177,1510,1177,1510c4.63,8.49,30.5,10,30.5,10s-17.38-16.22-15.83-40.15c1.25-19.46,24-22.63,32.41-23.13,2-.12,3.14-.09,3.14-.09s-34.08-10-50.63,16.21S1160.07,1540.8,1173.2,1553.55Z"/><path class="cls-11" d="M1451.66,1217s-21.84,5.76-26.47,23.13a22.23,22.23,0,0,1,5-3.67s-5.63,4.8-5,17,7.54,31.57,3.93,44.87l13.73-23.85Z"/><path class="cls-11" d="M1543.37,1257.63s-6.3-15.88,0-21.8c0,0-4.38-1.29-6.57,0,0,0-.77-12.1-16.22-17.5s-38.85-5.84-38.85-5.84l40.4,30Z"/><path class="cls-13" d="M1466.21,1553.55h29a2.22,2.22,0,0,0,2.18-1.81c.74-3.92,2-13.26-1.93-18-3.07-3.75-12.74-2.9-19.76-1.68C1468.37,1540.05,1466.21,1553.55,1466.21,1553.55Z"/><path class="cls-14" d="M1092.25,1587.64s1.48-26.48,29.58-42.75,129.43,14.79,194.51,5.17,284.56-36,273.47,37.58Z"/><rect class="cls-15" x="1329.13" y="1126.71" width="6.29" height="460.93"/><rect class="cls-15" x="1461.14" y="1126.71" width="6.29" height="460.93"/><rect class="cls-15" x="1593.15" y="1126.71" width="6.29" height="460.93"/><rect class="cls-15" x="1197.12" y="1126.71" width="6.29" height="460.93"/><rect class="cls-15" x="1065.11" y="1126.71" width="6.29" height="460.93"/><path class="cls-16" d="M1141.7,1094.8s33.89-39,109.86-42.45,73.84,25.57,126.62,15.77,98.51-22,136-8.68,55.92,35.36,55.92,35.36Z"/><path class="cls-17" d="M289.64,1592.09s-18.57,17-14.95,29,20.39,20.08,22.65,34.8,11.33,22.75,19.49,22.75h38.88s6-10.36-8.5-13.48-20-20.42-19.06-36.48-1.36-37.48-1.36-37.48L296,1584.06Z"/><path class="cls-17" d="M446.87,1601s-6.68,71.82,1.47,75.84l104.37-.22s0-12-16.76-14.72-46.22-12.49-51.2-34.35S446.87,1601,446.87,1601Z"/><path class="cls-10" d="M532.09,1009.9s30.09,93.67,32,125.55-57.51,453-59.91,467.7c-2.25,13.85-19.45,22.68-19.45,22.68s-7.91,4.66-19.2,1.48c-15.66-4.43-20.61-9.72-20.61-9.72S421.52,1317.25,436,1210s14.66-200.07,14.66-200.07Z"/><path class="cls-16" d="M404.6,1007.11s-45.9,61.59-50.18,103.22-6.71,187.87-15.82,228.45S296,1457.47,296,1584.06c0,0,3.49,7.25,14.24,11.12a119.21,119.21,0,0,0,12.51,3.46,19.68,19.68,0,0,0,22-10.45c22.64-45.59,94.78-192.64,98.47-223.17,2.62-21.6,25.4-164.57,75.08-248.46,11.92-20.14-7.32-100.23-7.32-100.23Z"/><path class="cls-18" d="M397.85,561.42c-1.1-2.67-14-31-57.65-15.56,0,0,22.17-5.76,29.4,2.4,0,0-18.84-6.17-29.18,2.28S331.06,583,333.58,590s17.42,26.95,25.59,25.92a23.83,23.83,0,0,0,9-3.56,115.5,115.5,0,0,0-1.83,12.94c-3.69,43.19,27.27,71.76,40.37,62.09,8.41-6.21,17.15,9.18,17.15,9.18L486.54,585S426.8,527.06,397.85,561.42Z"/><path class="cls-19" d="M515.35,824.1C456,851.42,411.43,755,415.3,754c5.93-6.91,12.05-31.55,7.71-67l3.07.22,51.59,3.94s.8,16.49,2.58,31.87c1.18,10.12,2.8,19.76,4.89,24,.62,1.24,11.8,2.91,11.82,2.93C497.83,750.88,531.18,816.81,515.35,824.1Z"/><path class="cls-20" d="M557.41,854.07c3.84,14.5,7,27.48,8.54,36.24,7.15,40.33,3.56,245.42,3.56,245.42-104.68,39.92-230-11.47-230-11.47-3.89-38.24,11-123.28,20.06-199,2.22-18.54,4.08-36.51,5.24-53.1a343.41,343.41,0,0,1,4.78-38.72c15-80.87,53.74-89.76,53.74-89.76,18.09,36.22,75.19,46,75.19,46,.7-20.38-5.7-46.34-5.7-46.34,7.23.89,31.61,4,38.2,7.25,19.55,9.75,65.89,91.48,65.89,91.48S608.89,836.63,557.41,854.07Z"/><path class="cls-21" d="M477.68,691.13s.79,16.49,2.58,31.88c-28.29,2.74-46.33-21.89-54.18-35.81Z"/><path class="cls-19" d="M488.82,704.52s-66.56,9.54-71.69-33.27S400,600.83,442.25,592.94s52.51,7.38,57.59,21.24S506,700.94,488.82,704.52Z"/><path class="cls-18" d="M495,590.63c-11.83-11.58-19.29-7.78-23.2-3.35-38.9-16.07-58.77,17.43-58.77,17.43-.81,31.28-20.22,51.59-20.22,51.59s13.07,6.21,40.21-4.75c8.3-3.35,15.19-10.58,20.79-19a162.18,162.18,0,0,1-22.78,37.08c31.58-20.17,39.33-69.84,40.07-75.08,4.52,3.25,13.52,10.43,16.91,18.14,4.62,10.48,8.78,32.74,15,31.18C503.08,643.87,512.78,608,495,590.63Z"/><path class="cls-22" d="M423,731s-7.81,6.61-7.83,16.41c0,0,12.18,34.31,83.3,42.27C498.5,789.7,430.54,756.52,423,731Z"/><path class="cls-22" d="M483.44,745S499,773.15,498.5,789.7c0,0,1.22-37.61-1.33-46.34s-16.38-16.07-16.38-16.07Z"/><path class="cls-23" d="M467.88,682.06c.61,0,6.3,5.23,13.82,3.77s7.45-7.54,7.45-7.54a32.61,32.61,0,0,0-9.65,0A77.5,77.5,0,0,0,467.88,682.06Z"/><path class="cls-24" d="M617.2,831.85s11.24-19.19,5.27-35.8a117.36,117.36,0,0,0-8.72-18.17c-3.49-6.07-5.48-4.68-8.24,1.76-2.15,5-6.86,10.45-7.83,14.06-3,11.21-6.25,18.75,1.56,29S617.2,831.85,617.2,831.85Z"/><path class="cls-25" d="M639.28,1002.76s44.7-46.22-7.7-88c-12.81-10.22-55.8-53.34-29.84-61.75,13.21-4.29,19.56-13.12,22.61-20.76.43-1.06.79-2.11,1.1-3.11h0a37,37,0,0,0,1.73-10.49s1.3-9.62-12.06-20.09a72.92,72.92,0,0,0-14.67-8.61l0,0c-1.34-.62-2.75-1.21-4.24-1.81-14.58-5.86-19.42-.22-25.58-3.71-5.62-3.19-12.67-7.49-13.85-8.21l-.17-.1s-7.08-6.49-10.47,1.19l-1,2.35c-2.34,5.38-3.5,8.71-2.52,11.76.74,2.32,5.78,7.13,9.88,9.93,3.19,2.18,10.91,6.89,11.28,7.25,1,1-6.28.82-23-8.62l-.92-.5a1.79,1.79,0,0,0-2.35.56,7.23,7.23,0,0,0-.63,7.12c2.14,5.21,17.24,13.31,12.8,16.29a8.66,8.66,0,0,1-3.78,1.14h0c-5.71.67-14.6-.67-20,4.1,0,0,6.65.71,10.22,3.46,0,0-15-2.8-18.93,3.42a8,8,0,0,1,5.34,1.28s-15.81,4.25-23,19.46a35,35,0,0,0-1.66,4.22c-5.23,16.41-2.66,7,13,40.2,8.76,18.55,55.12,67.86,82.1,74.6C626.38,983.63,639.28,1002.76,639.28,1002.76Z"/><path class="cls-26" d="M551.31,802.43s-10.63-4.76-11.87-2,28.59,14,29.28,12.14S555.1,804.11,551.31,802.43Z"/><path class="cls-25" d="M614.8,822.88s14.57-.36,18.74-16.65c1.6-6.26-1.22-13.57-2.52-20-1.39-6.86-3.72-6.17-8.38-.93-3.63,4.07-9.8,7.73-11.88,10.86C604.35,805.83,614.8,822.88,614.8,822.88Z"/><path class="cls-25" d="M544.2,852.18s-48.56-4.23-60.4-17c0,0,.58-10.37-1.41-14s-10.5-6.21-14.86-3.95,5.37,24.08,7.54,26.23,37.29,61.17,55.08,68.89c7.39,3.2-.9-24.64,7.26-30.67S544.2,852.18,544.2,852.18Z"/><path class="cls-25" d="M574.32,832.76s-48.26-6.84-59.39-20.26c0,0,1.14-10.33-.65-14s-10.16-6.77-14.63-4.75,4.07,24.33,6.11,26.6,33.94,63.08,51.29,71.75c7.21,3.6.43-24.64,8.9-30.23S574.32,832.76,574.32,832.76Z"/><path class="cls-27" d="M556.74,776.17c-2.31,2-7.11,5.37-11.66,3.44l1-2.35c3.39-7.68,10.47-1.19,10.47-1.19Z"/><path class="cls-25" d="M638,955.94s14.65.26,25.58-3.32c13.37-4.38,18.87-23.32-10.29-37.88,0,0,12.37-7.13,26.83,4.43a13.55,13.55,0,0,0-.15-7.42s20.28,10.74,17.14,29.49c0,0,8.69-6.69,9.62-12,0,0,14.91,20.12-2.79,36.95a15.44,15.44,0,0,0,10.74-3.91s-21.09,36-71.46,12.38Z"/><path class="cls-24" d="M612.33,798.84a20.12,20.12,0,0,1,4.95-4.5c3.7-2.62,7-8.68,7.66-8.13s-.58,19.09-7.65,20.75C617.29,807,612.47,806,612.33,798.84Z"/><path class="cls-25" d="M548.64,994c11.32-4.25,62.23,21,85,7.64,11.91-7,16.69-30.11,18.54-50.55,1.94-21.47-19.89-37.27-39.66-28.67a94,94,0,0,0-32.67,24.11C563,965.41,547,968.75,534.77,968.89c-3.22-3-7.71-6-12.46-5.76-9.16.43-10.47,9.08-10.47,9.08C507.88,984.7,537.32,998.29,548.64,994Z"/><path class="cls-19" d="M410.49,825.71c-21.09-9.4-36.06,10-32.13,32.76,10.93,63.16,36.9,153.8,58.17,160.25,32,9.7,146.84-63.87,146.84-63.87l-16-19.12s-95.45,29.16-97.19,24.63S433.48,836,433.48,836Z"/><path class="cls-20" d="M420,777.37s-28.28,10.78-38.15,25.54-11.08,61.88,4.2,123.13c0,0,58.37-18.48,88.49-49.84C474.56,876.2,451.08,768.51,420,777.37Z"/><path class="cls-19" d="M567.35,935.73a64.73,64.73,0,0,0,5.54-14c1.81-7.34,7.43-16,7.86-22.77s4.53-2.28,6,2-1.73,17.71,1.29,15.77,10-18.63,11.31-23.58c1.5-5.71,17.81,4.68,17.94,16.83s-8.73,26.18-13.26,29.86-20.71,15-20.71,15Z"/><path class="cls-19" d="M644.23,983.16a64.41,64.41,0,0,1-14.69-3.46c-7.06-2.7-17.34-3-23.19-6.53s-4.46,2.42-1.77,6.13,15.53,8.68,12.21,10.06-17.59-1.11-22.57-4.29c-10.26-6.55-6.92,18.09.34,24.46,5.94,5.2,26.49,7.77,32.1,6.14s24.14-8.45,24.14-8.45Z"/><path class="cls-19" d="M644.23,983.16l8.53-1.93s13.26,12.78-2,26Z"/><rect class="cls-28" x="40.92" y="1676.91" width="2919.72" height="7.61" rx="3.28"/><path class="cls-5" d="M2119.54,1102.44h-483.7V709h483.7Zm-471.86-8.85h460V717.89h-460Z"/><rect class="cls-5" x="1875.85" y="709.26" width="3.89" height="388.36"/><rect class="cls-5" x="1957.57" y="709.26" width="3.89" height="388.36"/><rect class="cls-5" x="2039.3" y="709.26" width="3.89" height="388.36"/><rect class="cls-5" x="1794.12" y="709.26" width="3.89" height="388.36"/><rect class="cls-5" x="1712.39" y="709.26" width="3.89" height="388.36"/><path class="cls-29" d="M1965.83,635.34c-19.84-10.3-35.74-3.83-35.74-3.83-60.71-7.13-78.42,63.67-77.59,88s3.6,50.53-23.51,82.17c-78.31,91.42,85.7,95.45,85.7,95.45,1.38-73,88.93-46.39,85.1-39C2112,885.11,2011,658.74,1965.83,635.34Z"/><path class="cls-19" d="M1735.54,944.2s-12.65-19.26-22.84-19.63-29.07-5.67-27.56-1.89,13.21,4.15,14.34,6.42-17.36,5.66-22.65,6-17.74,0-17.36,2.64,22.45,13.59,38,12.08,34.83,4.53,34.83,4.53Z"/><path class="cls-30" d="M1886.05,945.08a160,160,0,0,1-16.33,24.7c-12.69,15.88-32.25,34.24-56.81,37.86-11.73,1.73-23.2-.79-33.74-5.47h0c-29.83-13.25-52.26-43.69-52.26-43.69-5.25-14.34,3.35-24.07,3.35-24.07s60.23,13.55,66,10.68,39.2-99.26,47.16-111.37,35.13-18.4,35.13-18.4Z"/><path class="cls-31" d="M1869.72,969.78c-12.69,15.88-32.25,34.24-56.81,37.86-11.73,1.73-23.2-.79-33.74-5.47,1.16.15,30.95,3.83,42.83-17.41,12.11-21.68,25.21-56.09,43.2-44.62C1873,945.09,1872.62,957.4,1869.72,969.78Z"/><path class="cls-17" d="M2110.75,1595.22s18.38,16.77,14.79,28.68-20.17,19.87-22.41,34.43-11.21,22.51-19.28,22.51h-38.46s-5.94-10.25,8.4-13.34,19.76-20.2,18.86-36.09,1.34-37.08,1.34-37.08l30.48-7.06Z"/><path class="cls-17" d="M1955.2,1602.34s6.61,71.05-1.46,75l-103.25-.21s0-11.92,16.58-14.57,45.72-12.36,50.65-34S1955.2,1602.34,1955.2,1602.34Z"/><path class="cls-19" d="M2028.78,1092.6c-21.25-47.65-34.25-61.33-31.77-76.12,1.85-11-5.62-205.24-5.62-205.24-2.52-.78-7.58-1.48-10.34-2.1a25.91,25.91,0,0,1-18.93-16.46c-3.62-10.13-6.49-25.09-6.43-43.83l-2.72.54-45.76,9.06s1,14.4,1.07,28v.34a26.33,26.33,0,0,1-19,25.45c-5.78,1.67-10.81,3.1-10.81,3.1s-16.8,48-20,97.27,30.56,70.7-.26,169.19C1826.74,1182.37,2040.52,1118.93,2028.78,1092.6Z"/><path class="cls-32" d="M1907.21,758.45s1,14.4,1.07,28c25.61-.72,39.15-24.08,44.69-37Z"/><path class="cls-19" d="M1898.65,771.3s60.6,1,60.64-36.75,7.89-63-30.8-65.26-46.22,12.16-49.29,24.75S1882.89,770.07,1898.65,771.3Z"/><path class="cls-29" d="M1900.9,668.36s16.59,44.28,42,50.83,36.5-.28,36.5-.28-19.53-15.51-23.58-42.59C1955.87,676.32,1913.41,647.29,1900.9,668.36Z"/><path class="cls-29" d="M1905,672s-12.3,4.6-17.37,13.57a61,61,0,0,0-8.19,34.65s-12.5-30.1,1.55-47.12C1895.89,655,1905,672,1905,672Z"/><path class="cls-1" d="M1911.84,747.88a15.21,15.21,0,0,1-12.55,5.11,11.14,11.14,0,0,1-9.34-6.16S1902.33,743.85,1911.84,747.88Z"/><path class="cls-30" d="M2020.53,897.16s-.23,28.74-1.77,54.77c-1,17.25-2.61,33.32-5.08,39-6.22,14.34-13.23,16.67-13.23,16.67l-54.21,13.29-19.06,4.67-60.12-18s-27.38-76.42-16.38-119.44,27.79-72.89,27.79-72.89,49,48,112.92-4.08Z"/><path class="cls-31" d="M2018.76,951.93c-1,17.25-2.61,33.32-5.08,39-6.22,14.34-13.23,16.67-13.23,16.67l-54.21,13.29-23.55-6.92s84.06-35.94,75.35-103.56Z"/><path class="cls-10" d="M1870.89,1019.24s-29.77,92.67-31.69,124.21,56.91,448.17,59.28,462.71c2.23,13.7,19.24,22.44,19.24,22.44s7.83,4.61,19,1.46c15.49-4.38,20.39-9.61,20.39-9.61s23.17-297.14,8.83-403.28a1681.16,1681.16,0,0,1-14.51-197.93Z"/><path class="cls-16" d="M1997,1016.48s45.41,60.93,49.65,102.12,6.64,185.86,15.66,226,42.15,117.42,42.15,242.66c0,0-3.44,7.18-14.08,11a117.34,117.34,0,0,1-12.38,3.43,19.47,19.47,0,0,1-21.77-10.34c-22.4-45.11-93.77-190.59-97.43-220.79-2.58-21.37-25.12-162.81-74.27-245.81-11.8-19.92,7.24-99.16,7.24-99.16Z"/><path class="cls-23" d="M1910.49,748.89s-1,4.45-12.11,3.77c0,0-9.29-.58-9-5.47C1889.37,747.19,1898.38,743.71,1910.49,748.89Z"/><path class="cls-17" d="M1866.13,1004.94s11.95,9.45,35.69,9.93c28.36.57,98.63-7.23,98.63-7.23a58.27,58.27,0,0,1,3,17.94s-85.83,21.64-135.55,3.16C1867.9,1028.74,1861.48,1016.67,1866.13,1004.94Z"/><path class="cls-23" d="M1895,1039.31c-7.14,0-12.94-6.57-12.94-14.65s5.8-14.64,12.94-14.64,12.94,6.57,12.94,14.64S1902.15,1039.31,1895,1039.31Zm0-25c-4.77,0-8.65,4.64-8.65,10.35s3.88,10.36,8.65,10.36,8.65-4.65,8.65-10.36S1899.79,1014.31,1895,1014.31Z"/><path class="cls-19" d="M1990.63,1084.42s-5.15,12-11.66,13.77-11.43,7.71-13.79,9.46-6.6,2.25-5.43,4.11,12.93-1.49,14.51-2.08-9.42,11.06-13,14.68-11.69,8.78-9.71,11.19,24.84-.27,34.28-6.47,18-31.18,18-31.18Z"/><path class="cls-30" d="M1991.39,811.23s35.16,5.13,48.73,30.09,45.9,139.39,39,159.38-75.62,104.62-75.62,104.62-18.77-4.8-18.77-14.37c0,0,41.53-97.44,40.83-105.07s-39-66-37.56-92.48S1991.39,811.23,1991.39,811.23Z"/><rect class="cls-29" x="1622.04" y="732.08" width="13.8" height="31.26"/><rect class="cls-29" x="1622.04" y="1019.39" width="13.8" height="31.26"/><rect class="cls-9" x="832.1" y="1111.52" width="789.95" height="1.57"/><path class="cls-33" d="M1273.82,969s9.78,53,59.41,79.19c0,0,9.06,2.19,11.09,7s13.36,39.47,19.46,39.4c11-.11,7-19.29,4.4-29.38-1.83-7.11-2.41-26-4.66-28.72s-15-23.45-9.71-35.78,6.63-42.14-23.88-52.84S1273.82,969,1273.82,969Z"/><path class="cls-33" d="M1359.19,1074.38s-15.84,4.76-16.06,10.31a20.92,20.92,0,0,0,2.41,10.11l19.77-.22Z"/><path class="cls-18" d="M676.12,1586s-19.22,17.81-15.47,30.47,21.1,21.09,23.44,36.56,11.72,23.9,20.16,23.9h40.22s6.21-10.88-8.79-14.16S715,1641.29,716,1624.41s-1.4-39.37-1.4-39.37l-31.88-7.5Z"/><path class="cls-18" d="M911.9,1632.16s-4.48,40.54,4,44.75h108.82s.19-12.88-17.15-15.69-47.81-13.12-53-36.09S911.9,1632.16,911.9,1632.16Z"/><path class="cls-34" d="M1003.06,1059.54s-5.7,71.06-12.39,156.47c-9.1,116-20,258.55-21.12,285.55-1.87,46.88-9.38,121.88-9.38,121.88s-17.8,17.81-53.44,10.3c0,0-31.75-107-40.82-220.32l-.42-5.6c-8.44-115.31-21.56-358.12-21.56-358.12Z"/><path class="cls-18" d="M1003.06,1059.54s-5.7,71.06-12.39,156.47L865.91,1413.42l-.42-5.6c-8.44-115.31-21.56-358.12-21.56-358.12Z"/><path class="cls-34" d="M977.05,1068S874.4,1325.32,806.9,1446.25s-88.59,154.69-88.59,154.69-38.67-15.47-42.19-26c0,0,25.81-233.47,71-290.38,25.54-32.16,55.54-128.67,57-162.42s9.14-100.54,9.14-100.54Z"/><path class="cls-19" d="M1268.19,946.77s28.55-.61,33.08.66,19.19,11.29,19.14,12.63-1,2.25-3.85,1.86-11.7-3.44-11.35-2.21,25.58,11.82,24.78,17.17-17.24,12.22-29.55,10.37-33.33-20.94-35.35-21.55C1248,960.59,1268.19,946.77,1268.19,946.77Z"/><path class="cls-10" d="M1278.43,956.11c6.48-11.65,6-13.83,6-13.83s-98.21-82.58-107.08-90.73-98-153.29-98-153.29l-123.66,8.06s152.6,175.3,175.49,195.5c37.81,33.4,134.25,67.78,134.25,67.78A37.08,37.08,0,0,0,1278.43,956.11Z"/><path class="cls-19" d="M1022.27,662.86s41.89,73.69,82.83,83.31c0,0-1.25-18.1-7.85-33.94a15,15,0,0,1,2.3-15.13c1.66-2,3.2-4,4.64-5.81A247.62,247.62,0,0,0,1119.4,670l-13.9-37.35-9.42-25.35a121.92,121.92,0,0,1-14.73,21.23C1054.51,659.38,1022.27,662.86,1022.27,662.86Z"/><path class="cls-35" d="M1081.35,628.53s-5,36.93,22.84,62.76A247.62,247.62,0,0,0,1119.4,670l-13.9-37.35C1090.61,628.11,1081.35,628.53,1081.35,628.53Z"/><path class="cls-19" d="M1130.44,675.44s-62.58-24.39-46.79-63.13,18.35-68,59-54,42.31,31.87,40.18,46.08S1147.12,680.79,1130.44,675.44Z"/><path class="cls-16" d="M807.16,1041c25.25,36.3,214,84.79,211.75,59.67a274,274,0,0,1,0-49.56q.7-8.07,2-17.12c4.79-33,16.18-75.45,41.59-124.59q2.85-5.52,5.94-11.14a384.18,384.18,0,0,0,26.17-58.8c13.08-37.79,18.35-74,11.75-97.59,0-.11-6.16-25-6.2-25.08-39.46-18.24-48.64-64.25-48.64-64.25S917,676.74,841.55,856.16C841.55,856.16,785.19,1009.44,807.16,1041Z"/><path class="cls-10" d="M1018.94,1051.14q.7-8.07,2-17.12c4.79-33,16.18-75.45,41.59-124.59-4.36-26.44-10.39-48.43-17-58.32-26.84-40.23-42.48-46.52-42.48-46.52S962.8,974.37,1018.94,1051.14Z"/><path class="cls-25" d="M1074.67,540.35c-.44-.87-1.72-1.79-4.82-2.74a13,13,0,0,1,6.3-.24c1.75-4.28,6-11.58,14-11.64a9.87,9.87,0,0,0-6.28,5.8c11-7,31.32-9,82.12,7.94,66.94,22.29,33.49,61.16,23.35,64.27s-28.83-16.88-45.63-19.61-25.88,20.67-32.29,22.61-2.76-3.38-9.47-8.71-10.56,7.21-10.41,16-12.93,17.17-12.93,17.17L1071,617.15c-7.67-14.07-5.58-65.14,1.74-74.34Z"/><path class="cls-23" d="M1128.32,648.5s.18,6.29,2.4,8.32,10.54,5.55,12.57,5,6.29-3.88,6.29-3.88S1137.19,649.61,1128.32,648.5Z"/><path class="cls-33" d="M1179.54,863.59s-54.1,15.78-87.43,3.67c0,0-12.34-19.09-19.11-14.55s-4.1,20.26,8.7,28.58,82.73,28.08,87.29,26.24S1179.54,863.59,1179.54,863.59Z"/><path class="cls-20" d="M1165.09,812.83s10.89,18.78,7.29,37.08c-3,15.23-18.07,40.44-10.12,60.71S1234.64,947,1251,965s84.69,49.59,96.6,27.35c13.77-25.71,18.62-62.45-36.3-88.46-45.09-21.36-106.07-105.72-106.07-105.72Z"/><path class="cls-20" d="M1230.07,775.53s-18.09-11.81-32.48-7.93-32.87-18.44-41.81-10.67-18.73,29.2,2.19,50.06,38.38,32.66,53.47,26S1247,783,1230.07,775.53Z"/><path class="cls-20" d="M1207.12,883.91s-72.15,44.33-79.41,45.34-16.76-9.39-23-.87,13.69,21.11,21.22,24.12,87.76-18.42,87.76-18.42Z"/><path class="cls-20" d="M1271.51,956.89s-4.2,53.77,37,91.81c0,0,8.19,4.44,8.91,9.65s-.22,35.5,11.53,36.37c11,.81,8.87-10.13,9-20.55.06-7.34,4.34-25.7,2.88-29s-8.5-26.53-.17-37.08,17.24-39-9.49-57.2S1271.51,956.89,1271.51,956.89Z"/><path class="cls-20" d="M1332.28,916.34s47,36.84,70.71,35.18c29.16-2,30.35-26.51,30.35-26.51a32.78,32.78,0,0,1,6.38,31.17c-6.71,21.91-54.62,48.62-90.16,8.74Z"/><path class="cls-34" d="M1173.11,842.5s29.49,10.79,65.67-4.94c0,0,9.83,8.51,9,12.55,0,0-41.79,19.17-76.9,5.62C1170.86,855.73,1164,848.39,1173.11,842.5Z"/><path class="cls-36" d="M1214.89,791s-21.47,60.73,4.92,85.47,34.63-18.46,29-35.77S1232,774.4,1214.89,791Z"/><path class="cls-19" d="M1234.14,947.23s36.7-6.58,42.8-5.87,27,10.66,27.24,12.4-.87,3.11-4.58,3.19-15.79-2.07-15.09-.56,35.4,10.06,35.45,17.12-19.75,19.26-36,19.37-47.23-20.24-50-20.61C1210.92,969.15,1234.14,947.23,1234.14,947.23Z"/><path class="cls-16" d="M1241,962.18c.72-7.24-6.88-14.95-6.88-14.95s-108.94-30-118-39.07-50.78-154-50.78-154-14.38-58.63-48-65.1c-29.25-5.62-49.47,8.85-62.7,25.82a62.4,62.4,0,0,0-4.23,70.16c29.37,49.49,88.62,147.72,105.92,164.5,38.51,37.36,177.64,29.66,177.64,29.66S1239.57,976.73,1241,962.18Z"/><path class="cls-20" d="M1324.2,1074.46s-15.89,4.58-16.16,10.13a20.75,20.75,0,0,0,2.3,10.13h19.77Z"/><polygon class="cls-5" points="2487.08 795.13 2447.51 593.8 2437.13 795.06 2436.03 795 2446.86 584.77 2488.17 794.92 2487.08 795.13"/><polygon class="cls-5" points="2389.63 1002.48 2388.52 1002.39 2423.62 589.29 2424.73 589.31 2444.03 1001.62 2442.93 1001.67 2424.01 597.77 2389.63 1002.48"/><path class="cls-5" d="M2487.91,798.62H2438a3.61,3.61,0,0,1-3.59-3.59h0a3.61,3.61,0,0,1,3.59-3.6h49.95a3.61,3.61,0,0,1,3.6,3.6h0A3.61,3.61,0,0,1,2487.91,798.62Z"/><path class="cls-16" d="M2461.36,600l-28-1-28,1a28,28,0,0,1,56,0Z"/><path class="cls-16" d="M2433.56,560.78a22.49,22.49,0,1,1,22.49-22.49A22.52,22.52,0,0,1,2433.56,560.78Zm0-41.66a19.17,19.17,0,1,0,19.17,19.17A19.18,19.18,0,0,0,2433.56,519.12Z"/><rect class="cls-16" x="2432.23" y="558.95" width="2.66" height="24.27"/><path class="cls-16" d="M2459.08,779.29s.57,11.05,0,11.05-9.67-.23-11.51.8,3.45,7.25,5.18,7.48c0,0-2.77-5.64-1.16-5.41s7.95,1.15,8.75.69,6.91-8.28,4.14-12.08S2459.08,779.29,2459.08,779.29Z"/><path class="cls-37" d="M2417.41,704.94s-3.91-4.58,2.56-8.29,24.17-4.57,33.41,2,5,19.59,12.43,21.49,24.34,10,30.21,28,56.28,47,47.65,47.68-25.55-7.36-25.55-7.36,4.72,5.83,2,6.4-21.17-3-26.93-9.66c0,0,3.92,4,1,4.6s-31.88-7.14-39.25-12.78-29.43-20.94-24.12-40.11c0,0-5.09-12.14-2-16.4s-.13-9.89-.13-9.89Z"/><path class="cls-16" d="M2424.78,728.3s-17.15-9.32-7.37-23.36c0,0,1.5-2.19,5.64.57s6.33,3.46,5.64,5.07-3.28,2.73-2.85,3.94,1,2-.43,3.19S2421.3,722.4,2424.78,728.3Z"/><path class="cls-16" d="M2424.17,719.45s2.88-.69,2.77-2.07a7.87,7.87,0,0,1,.69-4.14c.63-1.33.57-3,1.61-3s8.69,5.46,7.13,8.74S2425.78,722.56,2424.17,719.45Z"/><path class="cls-37" d="M2458.56,766.74s-4.15,15.37,0,17.27,11.05.17,11.22-5.87S2459,765.16,2458.56,766.74Z"/><path class="cls-16" d="M2461.41,729.89s-14,.78-16.57,7.25,21,32.63,41.69,33.41c0,0,2.76-2.43-1.21-6.57,0,0,13.29,10.72,15.71,6.57,0,0,12.6,4.13,9.49-.36s-7.59-8.45-11.91-9.49-21.06-1.55-28.83-4.83-21.58-13.3-19.68-17.27S2455.29,732.23,2461.41,729.89Z"/><path class="cls-5" d="M2389.93,1005.24h53.43a3.61,3.61,0,0,0,3.6-3.6h0a3.61,3.61,0,0,0-3.6-3.59h-53.43a3.61,3.61,0,0,0-3.59,3.59h0A3.61,3.61,0,0,0,2389.93,1005.24Z"/><path class="cls-16" d="M2419.6,985.43s-1.4,11.52-.83,11.52,9.07-.46,10.91.58-3.43,8-5.15,8.18c0,0,3.33-6.11,1.72-5.88s-8.74.69-9.55.23-4.28-6.17-3.34-11.62C2414.16,983.81,2419.6,985.43,2419.6,985.43Z"/><path class="cls-37" d="M2460.43,911.55s3.92-4.57-2.56-8.28-24.17-4.58-33.4,2-5,19.6-12.43,21.5-24.34,10-30.21,28-56.28,47-47.65,47.69,25.54-7.36,25.54-7.36-4.71,5.83-1.95,6.4,21.18-3,26.93-9.67c0,0-3.91,4-1,4.61s31.88-7.14,39.24-12.78,29.43-21,24.13-40.11c0,0,5.09-12.14,2-16.4s.13-9.9.13-9.9Z"/><path class="cls-16" d="M2453.07,934.92s17.15-9.33,7.36-23.37c0,0-1.49-2.18-5.63.58s-6.33,3.45-5.64,5.06,3.28,2.74,2.84,3.94-1,2,.44,3.2S2456.55,929,2453.07,934.92Z"/><path class="cls-16" d="M2453.67,926.07s-2.87-.69-2.76-2.07a8,8,0,0,0-.69-4.15c-.63-1.32-.58-3.05-1.61-3s-8.69,5.47-7.14,8.75S2452.06,929.18,2453.67,926.07Z"/><path class="cls-37" d="M2419.29,973.36s4.14,15.36,0,17.26-11.05.17-11.22-5.87S2418.9,971.77,2419.29,973.36Z"/><path class="cls-16" d="M2416.43,936.51s14,.78,16.58,7.25-21,32.63-41.7,33.4c0,0-2.75-2.42,1.22-6.56,0,0-13.29,10.71-15.71,6.56,0,0-12.6,4.14-9.49-.35s7.59-8.46,11.91-9.49,21.06-1.56,28.83-4.84,21.58-13.29,19.68-17.26S2422.55,938.85,2416.43,936.51Z"/><path class="cls-9" d="M2625.46,788.85h-2.22c0-104.14-84.73-188.87-188.87-188.87S2245.5,684.71,2245.5,788.85h-2.22c0-105.36,85.72-191.09,191.09-191.09S2625.46,683.49,2625.46,788.85Z"/><polygon class="cls-9" points="2625.46 1107.15 2243.28 1107.15 2243.28 788.85 2245.5 788.85 2245.5 1104.93 2623.24 1104.93 2623.24 788.85 2625.46 788.85 2625.46 1107.15"/><path class="cls-9" d="M2601.88,788.85h-2.22c0-104.14-74.15-188.87-165.29-188.87s-165.29,84.73-165.29,188.87h-2.22c0-105.36,75.14-191.09,167.51-191.09S2601.88,683.49,2601.88,788.85Z"/><polygon class="cls-9" points="2601.88 1107.15 2266.86 1107.15 2266.86 788.85 2269.07 788.85 2269.07 1104.93 2599.66 1104.93 2599.66 788.85 2601.88 788.85 2601.88 1107.15"/><path class="cls-9" d="M2568.78,788.85h-2.22c0-104.14-59.3-188.87-132.19-188.87s-132.19,84.73-132.19,188.87H2300c0-105.36,60.3-191.09,134.41-191.09S2568.78,683.49,2568.78,788.85Z"/><polygon class="cls-9" points="2568.78 1107.15 2299.96 1107.15 2299.96 788.85 2302.18 788.85 2302.18 1104.93 2566.56 1104.93 2566.56 788.85 2568.78 788.85 2568.78 1107.15"/><path class="cls-9" d="M2523.11,788.85h-2.22c0-104.14-38.81-188.87-86.52-188.87s-86.53,84.73-86.53,188.87h-2.22c0-50.9,9.16-98.77,25.77-134.8,16.75-36.3,39.11-56.29,63-56.29s46.23,20,63,56.29C2514,690.08,2523.11,738,2523.11,788.85Z"/><polygon class="cls-9" points="2523.11 1107.15 2345.62 1107.15 2345.62 788.85 2347.84 788.85 2347.84 1104.93 2520.89 1104.93 2520.89 788.85 2523.11 788.85 2523.11 1107.15"/><path class="cls-9" d="M2471.53,788.85h-2.22c0-102.38-16-188.87-34.94-188.87s-34.94,86.49-34.94,188.87h-2.22c0-107.15,16.32-191.09,37.16-191.09S2471.53,681.7,2471.53,788.85Z"/><polygon class="cls-9" points="2471.53 1107.15 2397.21 1107.15 2397.21 788.85 2399.43 788.85 2399.43 1104.93 2469.31 1104.93 2469.31 788.85 2471.53 788.85 2471.53 1107.15"/><path class="cls-16" d="M2242.37,1107h383.76a17.62,17.62,0,0,1,17.62,17.62v49.54a0,0,0,0,1,0,0H2225a0,0,0,0,1,0,0V1124.4A17.39,17.39,0,0,1,2242.37,1107Z"/><rect class="cls-9" x="2244.39" y="771.18" width="379.96" height="2.22"/><rect class="cls-9" x="2244.39" y="985.33" width="379.96" height="2.22"/></g></g></svg>