<svg xmlns="http://www.w3.org/2000/svg" viewBox="0 0 2078.75 1737.47"><defs><style>.cls-1{fill:#f19ca2;}.cls-2{fill:#bf7b83;}.cls-3{fill:#d3888f;}.cls-4{fill:#b2707a;}.cls-5{fill:#fca4ad;}.cls-6{fill:#95b0c1;}.cls-7{fill:#7894a3;}.cls-8{fill:#ffc39a;}.cls-9{fill:#f48e69;}.cls-10{fill:#2c3e50;}.cls-11{fill:#d3a054;}.cls-12{fill:#333;}.cls-13{fill:#494949;}.cls-14{fill:#fff;}.cls-15{fill:#47413d;}.cls-16{fill:#232323;}.cls-17{fill:#a4c2db;}.cls-18{fill:#f9ea82;}.cls-19{fill:#f7c884;}.cls-20{fill:#595959;}.cls-21{fill:#ff910c;}.cls-22{fill:#e27d0e;}.cls-23{fill:#f7a757;}.cls-24{fill:#dd904a;}.cls-25{fill:#ffb361;}.cls-26{fill:#5b3128;}.cls-27{fill:#bf7467;}.cls-28{fill:#512a24;}.cls-29{fill:#724039;}.cls-30{fill:#e8974d;}.cls-31{fill:#5ab8e4;}.cls-32{fill:#4497b7;}.cls-33{fill:#ffc388;}.cls-34{fill:#fc9;}.cls-35{fill:#41577a;}.cls-36{fill:#596f9b;}.cls-37{fill:#4da8bb;}</style></defs><g id="Layer_2" data-name="Layer 2"><g id="Layer_2-2" data-name="Layer 2"><path class="cls-1" d="M1046.59,92.5h0c-527.52,0-955.16,427.64-955.16,955.16v653.12H2001.76V1047.66C2001.76,520.14,1574.12,92.5,1046.59,92.5Z"/><rect class="cls-2" x="919.84" y="1157" width="1052.72" height="134.06"/><rect class="cls-3" x="919.84" y="1280.26" width="1052.72" height="421.66"/><rect class="cls-2" x="1798.3" y="1280.26" width="174.25" height="421.66"/><rect class="cls-2" x="972.35" y="1314.16" width="365.48" height="134.06"/><rect class="cls-4" x="1014.49" y="1367.9" width="188.78" height="33.72"/><rect class="cls-2" x="972.35" y="1471.32" width="365.48" height="134.06"/><rect class="cls-4" x="1014.49" y="1525.06" width="188.78" height="33.72"/><rect class="cls-2" x="1359.14" y="1314.16" width="365.48" height="134.06"/><rect class="cls-4" x="1401.27" y="1367.9" width="188.78" height="33.72"/><rect class="cls-2" x="1359.14" y="1471.32" width="365.48" height="134.06"/><rect class="cls-4" x="1401.27" y="1525.06" width="188.78" height="33.72"/><path class="cls-5" d="M184.12,636.72q-6.17,12.88-11.93,26v1027h11.93Z"/><path class="cls-3" d="M647.17,1689.74H659.1V468.88H286.7Q271.85,488.35,258,508.6H631.76v616.65H244.92v-597a951.45,951.45,0,0,0-60.8,108.52v1053Z"/><polygon class="cls-1" points="457.96 603.24 390.22 676.3 520.46 676.3 457.96 603.24"/><path class="cls-1" d="M631.76,1125.25V508.6H258q-6.66,9.72-13.07,19.6v597.05ZM352.12,676.3h22.57L454,590.8a5.77,5.77,0,0,1,4.29-1.82,5.71,5.71,0,0,1,4.22,2l73,85.33h2.32a22.11,22.11,0,0,1,22.1,22.11v42.72a22.11,22.11,0,0,1-22.1,22.11H352.12A22.11,22.11,0,0,1,330,741.13V698.41A22.11,22.11,0,0,1,352.12,676.3Z"/><path class="cls-5" d="M352.12,763.24h11.14a22.1,22.1,0,0,1-22.1-22.11V698.41a22.1,22.1,0,0,1,22.1-22.11H352.12A22.11,22.11,0,0,0,330,698.41v42.72A22.11,22.11,0,0,0,352.12,763.24Z"/><path class="cls-3" d="M524,706.35h-6.51v20.24H524c7.18,0,10-5.24,9.89-10.39C533.73,711.27,530.84,706.35,524,706.35Z"/><path class="cls-3" d="M341.16,698.41v42.72a22.1,22.1,0,0,0,22.1,22.11H537.77a22.11,22.11,0,0,0,22.1-22.11V698.41a22.11,22.11,0,0,0-22.1-22.11h-2.32l-73-85.33a5.71,5.71,0,0,0-4.22-2A5.77,5.77,0,0,0,454,590.8l-79.26,85.5H363.26A22.1,22.1,0,0,0,341.16,698.41Zm73.12,33.91H392.05V700.7h6v26.11h16.27Zm18.11.73c-11.11,0-16.26-8-16.26-16.31s5.33-16.67,16.26-16.67,16.31,8.36,16.22,16.62S443.51,733.05,432.39,733.05Zm33.48.09c-6.46,0-11.43-2-13.78-7.77l5-2.58c1.4,3.48,5.06,5,8.9,5s7.27-1.31,7.27-4.75c0-3-3.11-4.2-7.31-4.65-6.47-.77-12.43-2.49-12.43-9.58,0-6.5,6.42-9.17,12.24-9.21,4.93,0,10,1.4,12.43,6.28l-4.75,2.43c-1.08-1.8-4.06-3.52-7.49-3.52-4.43,0-6.56,1.85-6.56,4.2,0,2.76,3.26,3.53,7.05,4,6.6.81,12.74,2.53,12.74,10.07C479.15,730.11,472.92,733.14,465.87,733.14Zm41.47-26.66H489.59v7.28h17.12v5.55H489.59v7.14h17.75v5.87H483.67V700.7h23.67ZM524,732.32H511.54V700.7H524c10.84,0,15.68,7.73,15.81,15.54C539.92,724.24,535,732.32,524,732.32ZM458,603.24l62.5,73.06H390.22Zm-80.82,96.83a16.3,16.3,0,0,1,11.61,4.83l-4,3.84a10.88,10.88,0,0,0-7.64-3c-7.63,0-10.93,5.69-10.89,11s3.08,10.71,10.89,10.71a11.61,11.61,0,0,0,7.95-3.21l4.07,4.11a16.65,16.65,0,0,1-12,4.7c-11.74,0-16.71-8.09-16.76-16.31S365.71,700.07,377.14,700.07Z"/><path class="cls-3" d="M432.39,705.49c-7.45,0-10.52,6-10.39,11.34s2.94,10.75,10.39,10.75,10.26-5.6,10.35-10.8S439.85,705.49,432.39,705.49Z"/><path class="cls-1" d="M377.14,733.05a16.65,16.65,0,0,0,12-4.7l-4.07-4.11a11.61,11.61,0,0,1-7.95,3.21c-7.81,0-10.84-5.47-10.89-10.71s3.26-11,10.89-11a10.88,10.88,0,0,1,7.64,3l4-3.84a16.3,16.3,0,0,0-11.61-4.83c-11.43,0-16.8,8.4-16.76,16.67S365.4,733.05,377.14,733.05Z"/><polygon class="cls-1" points="398.01 700.7 392.05 700.7 392.05 732.33 414.28 732.33 414.28 726.81 398.01 726.81 398.01 700.7"/><path class="cls-1" d="M432.39,700.07c-10.93,0-16.26,8.36-16.26,16.67s5.15,16.31,16.26,16.31,16.13-8.18,16.22-16.36S443.28,700.07,432.39,700.07Zm0,27.51c-7.45,0-10.25-5.56-10.39-10.75s2.94-11.34,10.39-11.34,10.44,6,10.35,11.29S439.85,727.58,432.39,727.58Z"/><path class="cls-1" d="M466.41,713c-3.79-.45-7.05-1.22-7.05-4,0-2.35,2.13-4.2,6.56-4.2,3.43,0,6.41,1.72,7.49,3.52l4.75-2.43c-2.4-4.88-7.5-6.28-12.43-6.28-5.82,0-12.24,2.71-12.24,9.21,0,7.09,6,8.81,12.43,9.58,4.2.45,7.31,1.67,7.31,4.65,0,3.44-3.52,4.75-7.27,4.75s-7.5-1.54-8.9-5l-5,2.58c2.35,5.78,7.32,7.77,13.78,7.77,7.05,0,13.28-3,13.28-10.08C479.15,715.52,473,713.8,466.41,713Z"/><path class="cls-1" d="M483.67,732.32h23.67v-5.87H489.59v-7.14h17.12v-5.55H489.59v-7.28h17.75V700.7H483.67Z"/><path class="cls-1" d="M539.78,716.24c-.13-7.81-5-15.54-15.81-15.54H511.54v31.62H524C535,732.32,539.92,724.24,539.78,716.24ZM524,726.59h-6.51V706.35H524c6.87,0,9.76,4.92,9.89,9.85C534,721.35,531.15,726.59,524,726.59Z"/><path class="cls-6" d="M962.53,526,1029,643.15A49.74,49.74,0,0,0,1110.8,650l121-148.48,54.8,75L1099.67,789.67a49.72,49.72,0,0,1-72.36,2.57l-96.83-95.78Z"/><path class="cls-7" d="M1269.54,553.27c-43.55,51-177,205.46-204.68,216.18-28.12,10.9-105.1-79.54-127.92-107.37l-6.46,34.38,96.83,95.78a49.72,49.72,0,0,0,72.36-2.57l186.88-213.11Z"/><rect class="cls-8" x="648.58" y="1314.16" width="85.84" height="293.1"/><rect class="cls-9" x="648.58" y="1547.63" width="85.84" height="19.39"/><rect class="cls-8" x="806.45" y="1314.16" width="85.84" height="293.1"/><rect class="cls-9" x="806.55" y="1547.63" width="85.84" height="19.39"/><rect class="cls-10" x="638.44" y="1185.31" width="106.11" height="405.01"/><rect class="cls-11" x="638.44" y="1185.31" width="106.11" height="125.39"/><rect class="cls-10" x="796.32" y="1185.31" width="106.11" height="405.01"/><rect class="cls-11" x="796.32" y="1185.31" width="106.11" height="125.39"/><path class="cls-8" d="M718.12,394.18H832.48a0,0,0,0,1,0,0V499.79a43.8,43.8,0,0,1-43.8,43.8H761.92a43.8,43.8,0,0,1-43.8-43.8V394.18A0,0,0,0,1,718.12,394.18Z"/><circle class="cls-8" cx="952.66" cy="269.73" r="74.44" transform="translate(434.27 1113.28) rotate(-74.24)"/><circle class="cls-9" cx="952.66" cy="269.73" r="52.64" transform="translate(574.75 1184.87) rotate(-83.37)"/><circle class="cls-8" cx="601.17" cy="269.73" r="74.44" transform="translate(126.11 726.32) rotate(-68.03)"/><circle class="cls-9" cx="601.17" cy="269.73" r="52.64" transform="translate(193.02 787) rotate(-75.89)"/><path class="cls-8" d="M591,189.69V300c0,104.87,85,189.88,189.88,189.88h0c104.87,0,189.89-85,189.89-189.88V189.69a79.58,79.58,0,0,0-79.57-79.57H670.58A79.57,79.57,0,0,0,591,189.69Z"/><path class="cls-9" d="M642.6,300V189.69a79.57,79.57,0,0,1,79.57-79.57H670.58A79.57,79.57,0,0,0,591,189.69V300c0,104.87,85,189.88,189.88,189.88h0a191,191,0,0,0,25.8-1.75C714,475.55,642.6,396.13,642.6,300Z"/><path class="cls-9" d="M679.76,212a18.21,18.21,0,0,1,4-4.35c2.19-1.49,4.94-1.83,7.57-2,11.42-1,22.9-.6,34.36-.63a488.17,488.17,0,0,0,231.61-59.59,79.49,79.49,0,0,0-66.08-35.24H670.58A79.57,79.57,0,0,0,591,189.69v52.77C623,250.65,659.8,238.51,679.76,212Z"/><path class="cls-12" d="M667.86,184.85s-4.94,38.5-60.24,44V300H591s-26.9-154.63,10.16-166.48S667.86,184.85,667.86,184.85Z"/><path class="cls-13" d="M597.62,221.65,600.38,300h7.24V228.8c55.3-5.45,60.24-44,60.24-44s-.9-1.91-2.57-5C653.67,193.87,629.08,218.51,597.62,221.65Z"/><path class="cls-12" d="M881.17,165.13s3.37,45.91,71.49,60.23V300h18.12l18-171.67s-17.53-75.78-88.75-55Z"/><path class="cls-13" d="M964,210c-20.06-3.39-39.74-12.79-52.13-28.93-13.19-17.19-16.79-40.23-14.4-61.77,1.85-16.62,6.93-32.62,12.71-48.37A98,98,0,0,0,900,73.29l-18.85,91.84s3.37,45.91,71.49,60.23V300h10.9A549,549,0,0,1,964,210Z"/><circle class="cls-12" cx="890.72" cy="306.5" r="29.11"/><circle class="cls-14" cx="906.4" cy="309.73" r="9.73" transform="translate(224.84 982.76) rotate(-63.51)"/><circle class="cls-12" cx="711.87" cy="300.01" r="29.11" transform="translate(-60.63 301.02) rotate(-22.93)"/><circle class="cls-14" cx="734.96" cy="309.73" r="9.73" transform="translate(-3.75 610.42) rotate(-45)"/><path class="cls-8" d="M648.58,1590.32h85.84v38.78l.31.09a25.87,25.87,0,0,1,18.84,24.91v24.61H631.82v-26.29a25.88,25.88,0,0,1,16.76-24.22h0Z"/><path class="cls-15" d="M648.58,1628.2s41.34,8.34,44.12,50.51h16.2s6.7-34.59,25.52-49.61v-15s-24.09,7.91-32.9,36.27c0,0-23-35.53-52.94-36.27Z"/><rect class="cls-15" x="631.82" y="1678.71" width="121.75" height="22.07"/><path class="cls-8" d="M892.39,1590.32H806.55v38.78l-.31.09a25.88,25.88,0,0,0-18.85,24.91v24.61H909.15v-26.29a25.89,25.89,0,0,0-16.76-24.22h0Z"/><path class="cls-15" d="M892.39,1628.2s-41.35,8.34-44.12,50.51h-16.2s-6.71-34.59-25.52-49.61v-15s24.08,7.91,32.9,36.27c0,0,23-35.53,52.94-36.27Z"/><rect class="cls-15" x="787.39" y="1678.71" width="121.75" height="22.07" transform="translate(1696.54 3379.48) rotate(180)"/><path class="cls-12" d="M785.27,420.33q-2.19,0-4.38-.15c-41.07-2.76-66.65-43.3-67.71-45a5.81,5.81,0,1,1,9.88-6.13h0c.24.37,23.59,37.24,58.67,39.56,23,1.51,46.45-12,69.67-40.19a5.82,5.82,0,0,1,9,7.4C836,405.36,810.77,420.33,785.27,420.33Z"/><path class="cls-12" d="M591,132.05c-3.44,9.68,52.37,55.78,76.85,52.8s262.53,11.67,348.53-42.72L1002,123.3l43.93-53.6L952.54,54.26,966,12.42S658.08-56.9,591,132.05Z"/><path class="cls-16" d="M1039.07,78.05a785.11,785.11,0,0,1-122,52.86l17.33-24.66C850,164.75,739.51,178.18,639.1,156.56c-16.27-3.5-33.16-8.36-46.15-18.3,10.07,15.75,54,49.14,74.91,46.59,24.49-3,262.53,11.67,348.53-42.72L1002,123.3Z"/><polygon class="cls-6" points="703.83 513.59 577.7 575.3 630.67 963.96 934.97 963.96 962.53 525.97 844.4 522.88 703.83 513.59"/><path class="cls-17" d="M833.71,504.7c-41.92,23.79-96.07,5-120.13-5.62a8.87,8.87,0,0,0-9.75,14.51c55.49,53.72,121.9,20.47,140.57,9.29a10.53,10.53,0,0,0,5.1-9h0A10.55,10.55,0,0,0,833.71,504.7Z"/><path class="cls-18" d="M926.49,515a15.07,15.07,0,0,0-16.74-14.82l-15.19,1.7a15.06,15.06,0,0,0-13.39,15v237.6l-201.67,1V541.31a15.31,15.31,0,0,0-21.68-13.92l-24.16,11.06a15.3,15.3,0,0,0-8.94,13.92v794.92H935Z"/><path class="cls-19" d="M633.66,538.45a15.3,15.3,0,0,0-8.94,13.92v794.92h11.9V537.09Z"/><rect class="cls-19" x="636.62" y="1003.38" width="288.34" height="14.93"/><path class="cls-12" d="M930.48,1201.87v491.25a20.59,20.59,0,0,0,41.17,0V1201.87Z"/><path class="cls-20" d="M1037.55,1190.08v491.25a20.59,20.59,0,1,0,41.17,0V1190.08Z"/><path class="cls-20" d="M1430.68,1190.08v491.25a20.59,20.59,0,1,0,41.17,0V1190.08Z"/><path class="cls-12" d="M1258.12,1201.87v491.25a20.59,20.59,0,0,0,41.17,0V1201.87Z"/><rect class="cls-21" x="798.76" y="1131.87" width="774.03" height="98.31" rx="47.47"/><rect class="cls-22" x="1213.63" y="1131.87" width="359.16" height="98.31" rx="49.16"/><path class="cls-23" d="M1291.13,985.92l41.2,156.05h58.78s-7.08-25.21-24.77-33.61l-15.73-217.27S1266.29,891.82,1291.13,985.92Z"/><path class="cls-23" d="M999.62,1050.48s-132-6-74-165.38c-18.18,5.9-29.4,20.08-26.52,39a48.09,48.09,0,0,1-18.56-35.55A95.26,95.26,0,0,0,886,952.24l-22-9.12a134,134,0,0,0,33,53.79A132.67,132.67,0,0,1,850.6,986a238.57,238.57,0,0,0,45.9,47.49l-32.89-3.19a194.31,194.31,0,0,0,102.8,45.52c8.54,1.05,17.83,1.35,25.06-3.32S1005.93,1056.34,999.62,1050.48Z"/><path class="cls-24" d="M923.75,1056.83l20.4,2.78A127.15,127.15,0,0,1,894,972a125.54,125.54,0,0,1,4.47-48.41,48.1,48.1,0,0,1-18-35.09A95.26,95.26,0,0,0,886,952.24l-22-9.12a134,134,0,0,0,33,53.79A132.67,132.67,0,0,1,850.6,986a238.57,238.57,0,0,0,45.9,47.49l-32.89-3.19a194.31,194.31,0,0,0,102.8,45.52c8.54,1.05,17.83,1.35,25.06-3.32a23,23,0,0,0,2.88-2.23A171,171,0,0,1,923.75,1056.83Z"/><path class="cls-25" d="M1215.44,761l-63.9,59-74.07,43A186.07,186.07,0,0,0,985,1018.27l-2,65.15a56.83,56.83,0,0,0,56.8,58.55h150.62l106.72-80.78a228.52,228.52,0,0,0,90.5-188.94L1386.09,820Z"/><path class="cls-26" d="M1048.39,921.81q27.31,2.64,54.35,7.62c26.79,4.94,56.83,11,79.38-4.29,16.9-11.46,25.09-34.34,19.3-53.92-6.82-23.05-29-37.35-46.53-54.3l-3.35,3.09-74.07,43a186,186,0,0,0-63,60.19C1025.38,920,1037.06,920.72,1048.39,921.81Z"/><path class="cls-26" d="M1420.26,436.66h0a40.94,40.94,0,0,1,39,28.79c16.06,51.28,39.08,105.15,56.73,143.63a284.11,284.11,0,0,1,25.85,118.51h0a74.55,74.55,0,0,1-74.55,74.55h0a74.55,74.55,0,0,1-74.55-74.55V599l-13.12-116.88A40.86,40.86,0,0,1,1420.26,436.66Z"/><path class="cls-27" d="M1525.48,732.67c-2.92-62.26-24.49-122-47-180.13q-11.18-28.95-22.74-57.75c-8-19.83-16.29-40-28.28-57.48a41,41,0,0,1,31.8,28.14c16.06,51.28,39.08,105.15,56.73,143.63a284.11,284.11,0,0,1,25.85,118.51h0a74.23,74.23,0,0,1-18.52,49.15A214.49,214.49,0,0,0,1525.48,732.67Z"/><path class="cls-28" d="M1397.83,443.36a40.62,40.62,0,0,0-3.57,21.82l13.13,116.89V710.69a74.55,74.55,0,0,0,74.55,74.55h0a74.25,74.25,0,0,0,48.47-17.94,74.48,74.48,0,0,1-63.08,34.84h0a74.55,74.55,0,0,1-74.55-74.55V599l-13.13-116.88A40.85,40.85,0,0,1,1397.83,443.36Z"/><path class="cls-29" d="M1423.57,630.42c1.07,9.23,4.94,21.42.78,30.2-1.17,2.48-5.31,2.44-6.49,0-2.2-4.53-1.85-9.39-2-14.31-.17-5.32-.27-10.59-.88-15.89-.63-5.48,8-5.43,8.59,0Z"/><path class="cls-29" d="M1438.87,617c.59,2.42,2.18,4.76,3,7.16a16.07,16.07,0,0,1,.81,9c-.87,3.92-6.59,2.84-6.76-.92a74.94,74.94,0,0,0-1.32-8.23c-.39-2.43-1.14-4.59-.22-7,.77-2,3.9-2.41,4.49,0Z"/><path class="cls-29" d="M1466,643.07c.64,2.57,1.37,5.1,2.19,7.61.36,1.09.77,2.17,1,3.29.2.88.07,2.32.42,3.09,1.33,2.89-1.46,6.26-4.53,4.52-2.65-1.49-3.5-3.88-4.31-6.65-.93-3.22-1.74-6.48-2.38-9.76-1-4.92,6.36-7.07,7.59-2.1Z"/><path class="cls-29" d="M1467.3,601.12c2.71,6.32,5.67,12.25,5.81,19.26.08,4-6.4,5.07-7.11,1-1-6-3.46-11.66-5.65-17.3-1.55-4,5.24-6.89,7-2.93Z"/><path class="cls-29" d="M1494.77,678.8c.42,2.72,1.42,5.29,2,8,.44,2.17.53,4.56,1.57,6.56,1.86,3.59-3,8-5.91,4.55-2.06-2.45-2.71-5.2-3.07-8.33-.39-3.29-1.2-6.53-1.41-9.85-.25-3.86,6.25-4.84,6.86-.92Z"/><path class="cls-29" d="M1470.76,686.83c1.16,3.25.39,7.59,2.17,10.5,2.89,4.73-4.63,9.12-7.41,4.34-2.29-3.93-1.42-8.49-2.78-12.62-1.69-5.12,6.24-7.21,8-2.22Z"/><path class="cls-29" d="M1438.69,691.59c.5,3.87,2.11,8.23.15,11.87a3.66,3.66,0,0,1-6.26,0c-1.17-1.92-1.16-3.91-1.3-6.09-.12-1.92-.29-3.85-.37-5.78a3.93,3.93,0,0,1,3.89-3.89c2.32,0,3.62,1.8,3.89,3.89Z"/><path class="cls-29" d="M1427.93,559.21a51.17,51.17,0,0,0,1.67,11.95c1.2,3.93-4.61,5.34-6,1.67-1.71-4.41-1.85-8.94-2-13.62-.12-4.11,6.1-4.05,6.35,0Z"/><path class="cls-29" d="M1444.24,549c1.1,3.29,2,6.67,3.43,9.86a4.32,4.32,0,1,1-7.93,3.34c-1.39-3.59-2.36-7.31-3.43-11-1.49-5.12,6.27-7.18,7.93-2.19Z"/><path class="cls-25" d="M1324.93,410.74h0a93.21,93.21,0,0,1,93.2,93.21v2.4a59.09,59.09,0,0,0,45.16,57.42l76.16,18.46a15.54,15.54,0,0,1,11.88,15.1v71.25a129.16,129.16,0,0,1-123,129h0a30,30,0,0,0-21.85,11l-2.31,2.85a23.27,23.27,0,0,1-18,8.56L1220,771.26l11.77-269.7A93.21,93.21,0,0,1,1324.93,410.74Z"/><path class="cls-30" d="M1236.82,703.91A125.51,125.51,0,0,1,1227,688l-7,83.27L1386.09,820a23.27,23.27,0,0,0,18-8.56l2.31-2.85a30.1,30.1,0,0,1,12-8.83c-31.42-6.9-62.33-19-91.6-32.37C1293,752,1258.71,733.9,1236.82,703.91Z"/><path class="cls-31" d="M1224,732.14s88.66,83.93,184.18,79.47c7.88-.37,14.44,7.06,14.44,16.39h0c0,9-6.06,16.27-13.64,16.41-36.07.68-135.94-5.32-205.35-85.37Z"/><path class="cls-32" d="M1374.15,817.35c-58.13-6.7-128-51.06-159.46-73L1203.58,759c59.29,68.37,140.78,82.72,185.78,85l.15-.35A19,19,0,0,0,1374.15,817.35Z"/><path class="cls-33" d="M1283.31,537.07c6.46,15.52,15,30.53,27.43,41.83,25.62,23.28,63,27.19,97.57,28.21,47.69,1.41,95.38-.49,143-3.31v-6.47a15.54,15.54,0,0,0-11.88-15.1l-76.16-18.46a59.09,59.09,0,0,1-45.16-57.42V504a93.21,93.21,0,0,0-93.2-93.21h0A92.85,92.85,0,0,0,1272,427.2a142.57,142.57,0,0,0-3.92,29.16C1267.12,483.93,1272.7,511.6,1283.31,537.07Z"/><path class="cls-26" d="M1549.15,589.43c-.36-.61-81.79-1.75-81.79-1.75-46.63,0-62.31,54.68-29,87.29,23.54,23,111.45,13.12,111.54,12.5a50.43,50.43,0,0,0,38.27-48.93h0A50.42,50.42,0,0,0,1549.15,589.43Z"/><path class="cls-27" d="M1518.19,602.5h-59.55a8.45,8.45,0,0,0,0,16.9h59.55a8.45,8.45,0,1,0,0-16.9Z"/><path class="cls-26" d="M1533.67,701.49c-2.86,7.12-12.76,16.33-18.83,19V683h-8.59v37.34c-7.7-3-18.8-12.37-21.39-16.52,0,0,10.11,26.08,26.06,26.08a14.27,14.27,0,0,0,1.6-.07C1529.85,727.79,1533.67,701.49,1533.67,701.49Z"/><path class="cls-26" d="M1238.19,436.66h0a41,41,0,0,0-39,28.79c-16.06,51.28-39.07,105.15-56.73,143.63a284.1,284.1,0,0,0-25.84,118.51h0a74.55,74.55,0,0,0,74.55,74.55h0a74.55,74.55,0,0,0,74.54-74.55V599l13.13-116.88A40.86,40.86,0,0,0,1238.19,436.66Z"/><path class="cls-27" d="M1133,732.67c2.91-62.26,24.48-122,47-180.13q11.19-28.95,22.75-57.75c8-19.83,16.29-40,28.27-57.48a41,41,0,0,0-31.8,28.14c-16.06,51.28-39.07,105.15-56.73,143.63a284.1,284.1,0,0,0-25.84,118.51h0a74.23,74.23,0,0,0,18.52,49.15A213.79,213.79,0,0,1,1133,732.67Z"/><path class="cls-28" d="M1260.62,443.36a40.53,40.53,0,0,1,3.57,21.82l-13.12,116.89V710.69a74.55,74.55,0,0,1-74.55,74.55h0a74.23,74.23,0,0,1-48.47-17.94,74.47,74.47,0,0,0,63.08,34.84h0a74.55,74.55,0,0,0,74.54-74.55V599l13.13-116.88A40.85,40.85,0,0,0,1260.62,443.36Z"/><path class="cls-29" d="M1234.88,630.42c-1.06,9.23-4.93,21.42-.77,30.2,1.17,2.48,5.3,2.44,6.49,0,2.2-4.53,1.84-9.39,2-14.31.16-5.32.26-10.59.87-15.89.64-5.48-8-5.43-8.59,0Z"/><path class="cls-29" d="M1219.59,617c-.59,2.42-2.19,4.76-3,7.16a16.07,16.07,0,0,0-.81,9c.88,3.92,6.59,2.84,6.77-.92a74.91,74.91,0,0,1,1.31-8.23c.39-2.43,1.15-4.59.22-7-.76-2-3.89-2.41-4.48,0Z"/><path class="cls-29" d="M1192.47,643.07c-.63,2.57-1.37,5.1-2.19,7.61-.36,1.09-.76,2.17-1,3.29-.2.88-.06,2.32-.41,3.09-1.33,2.89,1.45,6.26,4.52,4.52,2.65-1.49,3.5-3.88,4.31-6.65q1.41-4.83,2.38-9.76c1-4.92-6.36-7.07-7.59-2.1Z"/><path class="cls-29" d="M1191.16,601.12c-2.72,6.32-5.68,12.25-5.82,19.26-.08,4,6.41,5.07,7.12,1,1-6,3.45-11.66,5.65-17.3,1.55-4-5.25-6.89-6.95-2.93Z"/><path class="cls-29" d="M1163.69,678.8c-.42,2.72-1.43,5.29-2,8-.43,2.17-.52,4.56-1.56,6.56-1.87,3.59,3,8,5.9,4.55,2.07-2.45,2.71-5.2,3.08-8.33.38-3.29,1.19-6.53,1.4-9.85.25-3.86-6.25-4.84-6.85-.92Z"/><path class="cls-29" d="M1187.69,686.83c-1.15,3.25-.39,7.59-2.17,10.5-2.89,4.73,4.64,9.12,7.42,4.34,2.28-3.93,1.41-8.49,2.78-12.62,1.69-5.12-6.25-7.21-8-2.22Z"/><path class="cls-29" d="M1219.77,691.59c-.5,3.87-2.11,8.23-.15,11.87,1.31,2.46,4.89,2.25,6.25,0,1.17-1.92,1.17-3.91,1.31-6.09.12-1.92.29-3.85.37-5.78a3.93,3.93,0,0,0-3.89-3.89c-2.33,0-3.63,1.8-3.89,3.89Z"/><path class="cls-29" d="M1230.52,559.21a50.65,50.65,0,0,1-1.67,11.95c-1.2,3.93,4.61,5.34,6,1.67,1.72-4.41,1.85-8.94,2-13.62.11-4.11-6.11-4.05-6.36,0Z"/><path class="cls-29" d="M1214.21,549c-1.1,3.29-2,6.67-3.43,9.86-2.48,5.73,5.65,9.23,7.93,3.34,1.4-3.59,2.36-7.31,3.44-11,1.49-5.12-6.28-7.18-7.94-2.19Z"/><rect class="cls-26" x="1313.07" y="532.74" width="36.52" height="52.95" rx="11.45"/><ellipse class="cls-14" cx="1349.59" cy="558.76" rx="13.24" ry="10.5"/><rect class="cls-26" x="1408.62" y="523.61" width="36.52" height="52.95" rx="11.45"/><ellipse class="cls-14" cx="1433.83" cy="549.63" rx="13.24" ry="10.5"/><path class="cls-23" d="M1071.65,959s94-2.31,88.09,139.25c0,0,78.11-15,96.52,43.73H1039.79S971.05,999.27,1071.65,959Z"/><path class="cls-34" d="M1145.78,1107.45h83c-29.45-16.78-69-9.21-69-9.21,5.91-141.56-88.09-139.25-88.09-139.25-2.35.94-4.62,1.94-6.79,3C1083.24,975.47,1154.82,1033.13,1145.78,1107.45Z"/><path class="cls-23" d="M1237.86,985.92l41.2,156.05h58.78s-7.08-25.21-24.77-33.61l-15.73-217.27S1213,891.82,1237.86,985.92Z"/><path class="cls-14" d="M1084.06,902.78s26.14,25.32,81.73,0l1.33-11.69,3.9,9.18,2.75-9.18,5.8,2.82s26.94-16.52,13.23-41.43S1102.59,865.38,1084.06,902.78Z"/><path class="cls-35" d="M1077.47,863.06l-12.61,28-50.37,32.16-72.83,55.8a14.57,14.57,0,0,0,17.24,23.48L1100.44,903s78.51,2.45,91.4-36.81S1126.88,787.56,1077.47,863.06Z"/><path class="cls-36" d="M1077.47,853.16l-12.61,28-50.37,32.16-72.83,55.81a14.56,14.56,0,0,0,17.24,23.47l141.54-99.56s78.51,2.45,91.4-36.81S1126.88,777.67,1077.47,853.16Z"/><path class="cls-8" d="M964.28,885.17s55.56-32.61,73.27-29.49,69.7,70,47.87,95.83-85.11,21.35-88.83,7.47-45.53-7.47-45.53-7.47Z"/><path class="cls-9" d="M1045.54,859.6c4.38,27.94-10.79,57.95-36,70.82-17.15,8.75-36.66,9.68-56.18,9.59l-2.29,11.5s41.82-6.41,45.53,7.47,67,18.36,88.83-7.47C1104.54,928.89,1067.05,874.79,1045.54,859.6Z"/><path class="cls-6" d="M578,575.08s88.6,355,386.29,285V980.58s-323.55,29.57-403.13-219.76C561.15,760.82,515.25,647.51,578,575.08Z"/><path class="cls-17" d="M964.28,885.17V860.06C752.48,909.86,646.52,744.54,603,645,614.3,696.68,683.34,943,964.28,885.17Z"/><path class="cls-7" d="M549.71,631.1c-15.36,63.54,11.44,129.72,11.44,129.72,79.58,249.33,403.13,219.76,403.13,219.76V943.76C650.53,1001.38,568.18,723,549.71,631.1Z"/><rect class="cls-37" y="1678.71" width="2078.75" height="58.77"/></g></g></svg>