<svg xmlns="http://www.w3.org/2000/svg" viewBox="0 0 2807.41 1629.9"><defs><style>.cls-1{fill:#ebf3fa;}.cls-2{fill:#afcdfb;opacity:0.5;}.cls-3{fill:#dfebfa;}.cls-4{fill:#d9e8fa;}.cls-5{fill:#ed7d2b;}.cls-6{fill:#f1a34f;}.cls-7{fill:#e07f20;}.cls-8{fill:#bc6211;}.cls-9{fill:#ffdabb;}.cls-10{fill:#c0d8fb;}.cls-11{fill:#dfebfd;}.cls-12{fill:#b7d3f3;}.cls-13{fill:#ffb27d;}.cls-14{fill:#9db0f4;}.cls-15{fill:#233862;}.cls-16{fill:#b5453c;}.cls-17{fill:#93312c;}.cls-18{fill:#aec3ff;}.cls-19{fill:#ed985f;}.cls-20{fill:#2c3a64;}.cls-21{fill:#fff;}.cls-22{fill:#b0d0ff;}.cls-23{fill:#1c468a;}.cls-24{fill:#e58435;}.cls-25{fill:#f2ccaa;}.cls-26{fill:#f9ddbf;}.cls-27{fill:#163560;}.cls-28{fill:#fca56b;}.cls-29{fill:#2e3552;}</style></defs><g id="Layer_2" data-name="Layer 2"><g id="Слой_1" data-name="Слой 1"><path class="cls-1" d="M170.19,1626.32s-327.62-356-55.4-741.35C356.32,543,527.2,725,758.41,387.05c553.71-809.39,1959-209.25,1772.86,520.77-90.07,353.27,274.11,366.11,88.55,719.24Z"/><path class="cls-2" d="M2188.39,1068.1c-44.71-51.95-136.52,14.88-136.52,14.88s-18.42,137.16-37.13,149.17-7.14-120.35-7.14-120.35c-40.33,14.71-116,109-116,109s64.51,118.88,43.42,125.91-51.74-108.18-51.74-108.18c-32,29-46,89.21-46,89.21C1827.74,1419.39,1946,1427,1946,1427s21.46,41.69,18.55,102.67h0s-1.61,11.77-.32,29.85l10.17-4.86q-.72-4.7-1-9.22a0,0,0,0,1,0,0,.62.62,0,0,1,0-.13c-.06-1.91-.12-4.62-.18-7.94v0s0,0,0,0c.2-7.57.15-13.07-.07-17v0c.18-23.55,1.69-54.84,8.14-64.34a21.79,21.79,0,0,1-4.41-3.62l4.41,3.62c35.25,29,125.27-6.44,169-39.58s16.05-36.72-20.68-46.42-88.64,22.31-109,21.34-.87-21,32.65-34S2118.39,1369,2173,1349s47.4-137.28,47.4-137.28c-30.7,28.44-104.88,39.47-113.32,28.23s87.91-55.8,101.05-66.67S2233.11,1120.06,2188.39,1068.1Z"/><path class="cls-3" d="M504.67,918.27c11.78-114.58,202.55-110.56,202.55-110.56s157.11,171.46,194.43,170S796,804.94,796,804.94c69.74-18.44,264.53,38.9,264.53,38.9s25.19,225.88,61,215.33S1089,860.3,1089,860.3c72,9.36,149,78.9,149,78.9,101.31,117.22-54.44,241.26-54.44,241.26s10.42,78.09,73,159.39h0s13.53,14.69,29.11,40.87l-18.69,3.06c-2.35-4.77-4.82-9.34-7.45-13.69,0,0,0,0,0-.07l-.11-.19c-1.76-2.68-4.27-6.49-7.38-11.12v0l0,0c-7.54-10.25-12.75-17.88-16.16-23.45a.05.05,0,0,1,0,0c-22.86-32.3-55-74-73-80.91a36.71,36.71,0,0,0,2.6-9.22c-.83,2.94-1.69,6-2.6,9.22C1142,1328.07,983.85,1365.66,891.71,1362s-57.39-35.21-16.06-83.87,143.67-54.34,170.77-75.2-19-29.76-77.64-15.47S890.1,1266,795.59,1290.83,598.4,1147,598.4,1147c69.66,9.73,182.54-46.27,183.38-69.88s-174.81,7.46-203.36,5.08S492.89,1032.86,504.67,918.27Z"/><path class="cls-3" d="M1872,305.1c-85.25-67.41-208,64.27-208,64.27s12.62,219.08-12.88,243.4-47.37-185.2-47.37-185.2C1545.35,462.62,1456,632.1,1456,632.1S1592.21,797.74,1561.51,815s-113.14-152.83-113.14-152.83c-41,54.83-44.66,152.72-44.66,152.72,12.64,145.64,199,121.88,199,121.88s46,58.43,59.8,154.24h0s1,18.81,8.49,46.57l14.37-10.63q-2.52-7.08-4.36-14a.13.13,0,0,1,0-.09,1.94,1.94,0,0,0,0-.2c-.66-3-1.58-7.15-2.67-12.3v0s0,0,0,0c-2-11.84-3.71-20.38-5.23-26.35a.14.14,0,0,0,0-.06c-6.81-36.71-13.88-85.88-6.7-102.6a34.55,34.55,0,0,1-8-4.32l8,4.32c63.6,34.49,193.07-47.76,251.17-112.53s13.94-62-46.17-66-131.27,61.43-163.21,66-7.67-32.4,40.6-62.69,104.92-1.53,183.9-49.13,32.46-228,32.46-228c-39.24,53.52-151.39,93-167.91,78.07s120-113.34,137.22-134.22S1957.24,372.51,1872,305.1Z"/><path class="cls-4" d="M906.19,1458.58c-2.42-49.56,79.08-60.21,79.08-60.21s78,62.83,93.82,59.81-56.22-66.74-56.22-66.74c28.51-12.37,115.17-.58,115.17-.58s25.37,94.56,39.94,87.74-26.73-82.58-26.73-82.58c31.24-.67,68.57,23.94,68.57,23.94,50.74,43.35-7.55,106.26-7.55,106.26s9.5,32.58,41.42,63.15h0a115.71,115.71,0,0,1,15,15.52l-7.77,2.51q-2-2.82-4-5.35l0,0-.06-.07c-.92-1-2.24-2.48-3.86-4.26h0c-3.87-3.88-6.59-6.79-8.4-8.94l0,0c-11.82-12.27-28.21-28-36.32-29.72a16.09,16.09,0,0,0,.5-4.1c-.16,1.31-.33,2.67-.5,4.1-4.07,32.78-69,59-108.46,63.43s-26.72-11.28-12.27-34.68,57.66-32.45,67.84-43.09-10-11.44-34.06-1.56-28.41,38.57-67,55.27-93.29-48.45-93.29-48.45c30.3-.37,74.74-31.53,73.56-41.64s-74,14.5-86.26,15.34S908.6,1508.14,906.19,1458.58Z"/><path class="cls-5" d="M1013.28,616.93c-32.16,16.54-85.35,31.47-104.15,73.85-6.66,15-3.07,67.67,19.48,64.6,12.41-1.69,16-18.34,16.68-33a39.16,39.16,0,0,1,22.79-33.52l146.8-64.39-27.63-56.81S1027.4,609.68,1013.28,616.93Z"/><path class="cls-6" d="M2468.56,1623.17H1579.69c0,10.61-160,0-160,0s11.27-54.71,37.93-70.09c6-3.48,50.45,7.12,61.33,6.65-4.61-2.88-98.69-32-77.6-176l-50.22,232a8.8,8.8,0,0,1-8.69,7.39H1185.7A8.79,8.79,0,0,1,1177,1616c-3-15.64-7.82-52.82,7.69-71.72,12.23-14.91,50.73-11.54,78.71-6.7,6.28,1.08,12,2.24,16.84,3.29a8.83,8.83,0,0,0,10.4-10.93s-14.63-43-41.26-102.68S1184.13,1291,1136.07,1224c-9.63-13.42-19.62-26.46-30-38.93-37.19-44.72-62.38-152.21-29.84-199.67,4.27-6.21,23.45-26.72,16.55-23.68-14.18,6.26-24.42,16.6-31.43,26.22-4.9,6.75-15.61,3.42-15.89-4.93-3.92-112.08,80.75-207.88,114-256.75,10.82-15.92,16.18-26.87,11.24-31.77-21.36-21.23-115.71,32.6-158.32,31.08a113.55,113.55,0,0,1-55.81-16.87,8.66,8.66,0,0,1-4.13-6.82,8.76,8.76,0,0,1,4.73-8.49c24.49-12.71,61.49-28.32,90.72-49.41,14.71-10.59,27.89-29.23,35.56-45.45,5.8-12.31,3.81-27.35,3.81-27.35-33,28.21-76.62,51.48-113.9,64.18-24.82,8.46-46.84,12.25-61.06,9.7-36.66-6.55-59.75-40.23-72.76-67.62A227.13,227.13,0,0,1,828,547.94a8.79,8.79,0,0,1,4.8-10.64c6-2.68,15.4-6.95,27-12.27,53.69-24.7,113.25-44.26,123.9-61.33A196.84,196.84,0,0,0,994,444.41l0-.08c15.92-33.23,31.4-77,76-112.41,69.31-54.92,140-65.41,169.46-67.3,9-.59,14.22-.36,14.29-.36,46-1.84,80.07,5,105.49,18.19h0c98.5,51.2,66.46,198.47,87.1,311q1.2,6.57,2.66,13c8.49,37.18,117,138,121.34,199.25,8.2,116.88,95.65,127.8,289,246.07,111.79,68.4,119.79,253.67,109.72,394.54a67.88,67.88,0,0,0,56.49,71.79c47,7.8,99.33,11.09,147.56,2.12,132.29-24.61,160-249.17,80-283,0,0,135.76-40,201.69,64.6S2520.86,1572.38,2468.56,1623.17Z"/><path class="cls-5" d="M1272.11,296.69c-38.94,0-72.2,29.66-78.41,70.07-9.4,61.23-18.73,149.6-6.93,210.38,17.61,90.66,95.83,123.85,146,97,92.71-49.63,50.36-241.46,24.59-331-8-27.62-32.23-46.48-59.68-46.48Z"/><path class="cls-7" d="M1060.88,453.94a9.23,9.23,0,0,1-6.06-16.2c1.11-1,27.65-23.49,70.73-13.29a9.23,9.23,0,0,1-4.25,18c-34-8.05-54.17,9.09-54.37,9.26A9.17,9.17,0,0,1,1060.88,453.94Z"/><path class="cls-8" d="M839.53,577.41A226.54,226.54,0,0,1,828,547.94a8.81,8.81,0,0,1,4.81-10.65c5.95-2.67,15.4-6.94,27-12.26C859.78,525,867.35,568,839.53,577.41Z"/><path class="cls-9" d="M2468.57,1623.17h-156.4c178.53-36.7,141.12-173.59,141.12-173.59-18.45,33.83-121.49,40-121.49,40s69.21-64.6,63.06-159.94c-5-77.5-95.42-90.13-129.11-92.14-7.76-.46-12.52-.36-12.52-.36s135.76-40,201.7,64.6S2520.87,1572.38,2468.57,1623.17Z"/><path class="cls-6" d="M1359.34,282.45s87,22.94,105.44,92.14c0,0-11.55-11.22-19.75-14.64,0,0,22.41,19.14,19.75,67.67s-30,125.78-15.67,178.75l-54.66-95Z"/><path class="cls-6" d="M994,444.41s25.1-63.27,0-86.85c0,0,17.46-5.13,26.18,0,0,0,3.07-48.19,64.59-69.73s154.78-23.22,154.78-23.22l-160.93,119.6Z"/><rect class="cls-10" x="2110.28" y="407.43" width="170.09" height="165.01" rx="12.17"/><rect class="cls-11" x="2117.65" y="414.57" width="155.35" height="150.72" rx="11.11"/><path class="cls-12" d="M2191.8,429.64a3.53,3.53,0,1,1,3.52,3.52A3.53,3.53,0,0,1,2191.8,429.64Z"/><path class="cls-12" d="M2220.23,434.61a3.53,3.53,0,1,1,1.37,4.8A3.52,3.52,0,0,1,2220.23,434.61Z"/><path class="cls-12" d="M2244.59,454a3.52,3.52,0,1,1-1.05,4.87A3.52,3.52,0,0,1,2244.59,454Z"/><path class="cls-12" d="M2256.65,483.92a3.52,3.52,0,1,1-3.52,3.52A3.52,3.52,0,0,1,2256.65,483.92Z"/><circle class="cls-12" cx="2248" cy="521.17" r="3.52"/><circle class="cls-12" cx="2225.88" cy="543.35" r="3.52"/><path class="cls-12" d="M2191.8,552.29a3.53,3.53,0,1,1,3.52,3.52A3.53,3.53,0,0,1,2191.8,552.29Z"/><path class="cls-12" d="M2170.31,434.61a3.53,3.53,0,1,0-1.37,4.8A3.53,3.53,0,0,0,2170.31,434.61Z"/><path class="cls-12" d="M2146,454a3.52,3.52,0,1,0,1.05,4.87A3.51,3.51,0,0,0,2146,454Z"/><circle class="cls-12" cx="2133.88" cy="487.44" r="3.52"/><path class="cls-12" d="M2140,518.67a3.53,3.53,0,1,0,5,0A3.54,3.54,0,0,0,2140,518.67Z"/><path class="cls-12" d="M2162.17,540.86a3.52,3.52,0,1,0,5,0A3.51,3.51,0,0,0,2162.17,540.86Z"/><path class="cls-12" d="M2194.37,487.44a3.53,3.53,0,1,1,3.53,3.52A3.52,3.52,0,0,1,2194.37,487.44Z"/><rect class="cls-12" x="2197.42" y="443.42" width="0.96" height="44.02"/><rect class="cls-12" x="2194.29" y="476.78" width="29.67" height="2.89" transform="translate(176.2 1466.23) rotate(-38.13)"/><path class="cls-13" d="M1642.15,1135.59a8.77,8.77,0,0,1-3,3.62c-1.76,2.23-3.7,5-4.11,6.67-.78,3.22-4.67,3.73-5.59.72a6.75,6.75,0,0,1-.15-3.17c-6.35,1.43-15.76,2-29.67,0,0,0-10.82-1-2.1-8.56,5.83-5,9.8-4.25,18.13-11.21s19.18-9.5,26.25-5.73l9,.78,2.79,15.23Z"/><path class="cls-14" d="M1749.07,836.08s69.36,69,20.57,192.32c-13.17,33.3-120.69,109.53-120.69,109.53s-12.44-11.25-9.09-21.9c0,0,70.49-96.49,80.68-101.08,9-4.07-2.71-112.74,3.27-139.75S1749.07,836.08,1749.07,836.08Z"/><path class="cls-15" d="M2001.89,1550.69s15.09,13.77,12.14,23.55-16.56,16.31-18.4,28.27-9.2,18.49-15.83,18.49h-31.58s-4.88-8.42,6.9-11,16.22-16.59,15.48-29.64,1.11-30.44,1.11-30.44l25-5.8Z"/><path class="cls-16" d="M2001.89,1542.05c-2.76,8.16-33.13,20.11-33.13,20.11s-16.56-26.08-69.57-119.6c-4.56-8-9.33-16.89-14.24-26.31-52-100-119.37-266.16-119.37-266.16l128.65-35.87s6.07,51.64,7.17,77.73c.68,16,9.75,50,21.27,79.78,7.33,18.94,15.66,36.13,23.45,45.8C1981.62,1361.54,2001.89,1542.05,2001.89,1542.05Z"/><path class="cls-17" d="M1922.67,1271.73c-8.09,41-22.93,109.7-37.72,144.52-52-100-119.37-266.16-119.37-266.16l128.65-35.87s6.07,51.64,7.17,77.73C1902.08,1207.9,1911.15,1242,1922.67,1271.73Z"/><path class="cls-15" d="M1816.75,1586.31s2.71,31.34-3.92,34.6l-84.79-.17s0-9.79,13.62-12,37.55-10.15,41.59-27.91S1816.75,1586.31,1816.75,1586.31Z"/><path class="cls-16" d="M1745.16,1143.57s4.48,54.94,9.73,121c7.15,89.71,15.74,199.9,16.59,220.78,1.47,36.25,7.36,94.23,7.36,94.23s14,13.78,42,8c0,0,24.94-82.77,32.06-170.35l.33-4.33c6.63-89.15,16.93-276.89,16.93-276.89Z"/><path class="cls-13" d="M1790.37,823.92s-44.42,40.68-77,36c0,0,6.52-14.46,13.06-26.22-2.08-6.05-3.79-11.33-5-15.84a152.57,152.57,0,0,1-4-16.36l18.15-19.69,17.18-18.8C1758.29,807.25,1790.37,823.92,1790.37,823.92Z"/><path class="cls-18" d="M1924.71,1211.57c-56.26,52.77-185.8,61.14-186.89,60.49-6.5-26.79-14.91-71.34-22.24-112.63-3-17.23-5.93-33.87-8.38-48.44-4.9-28.83-8.21-49.49-8.29-50.14,0,0-.21-1.57-.56-4.22-.57-4.05-1.45-10.65-2.41-18-1-7.86-2.15-16.59-3.06-24-.34-2.69-.63-5.2-.89-7.43,0-.13,0-.24,0-.37-.48-4.9.07-16.27,1.36-30.54.41-4.6.91-9.5,1.46-14.58,0-.13,0-.24,0-.38,3.39-30.51,9.18-67.46,15.32-85.24,3.2-9.15,14.48-36,14.48-36,11.09.4,18.34-4,28.79-11.38,11.45-8,23.78-16.6,26.2-15.3,18.15,9.26,33.43,34.16,44.77,67.31C1830.87,899.81,1927.5,1208.93,1924.71,1211.57Z"/><path class="cls-19" d="M1755.82,779.79s-9.61,27-34.4,38.1a152.57,152.57,0,0,1-4-16.36l18.15-19.69Z"/><path class="cls-13" d="M1707.85,802.34s52.72.13,52.45-32.23,6.37-54.12-27.3-55.58-40.12,11-42.69,21.81S1694.12,801.47,1707.85,802.34Z"/><path class="cls-20" d="M1769,704.87c.38-.61,1.39-1.22,3.76-1.73a9.84,9.84,0,0,0-4.68-.54c-1-3.25-3.75-8.86-9.71-9.37a7.28,7.28,0,0,1,4.31,4.62c-7.73-5.74-22.74-8.42-61.61,1-51.22,12.45-28.77,42.92-21.42,45.79s22.51-10.7,35.19-11.72,18,16.68,22.61,18.48,2.27-2.32,7.59-5.84,7.41,5.9,6.75,12.36,8.54,13.35,8.54,13.35l6.59-9.88c6.59-9.87,8.25-47.46,3.38-54.63Z"/><path class="cls-14" d="M1779.74,813.37s-7-13.1-11.15-14c0,0-52,21.17-60.46,83.82C1708.13,883.15,1723.26,843.1,1779.74,813.37Z"/><path class="cls-21" d="M1522.65,1006.47l66.15,69.8-28.11,24.51s-69.3-69.2-68-70S1522.65,1006.47,1522.65,1006.47Z"/><path class="cls-22" d="M1493.43,973.56l32.65,34.58L1496.57,1036l-32.66-34.58a7.37,7.37,0,0,1,.3-10.39L1483,973.26A7.36,7.36,0,0,1,1493.43,973.56Z"/><rect class="cls-23" x="1545.87" y="1084.97" width="61.23" height="12.24" transform="translate(-318.87 1379.95) rotate(-43.35)"/><rect class="cls-23" x="1596.13" y="1126.44" width="33.85" height="6.77" transform="translate(-335.47 1415.64) rotate(-43.35)"/><rect class="cls-23" x="1588.63" y="1089.11" width="16.48" height="47.14" transform="translate(-328.13 1399.83) rotate(-43.35)"/><path class="cls-23" d="M1483,973.26,1464.21,991a7.37,7.37,0,0,0-.3,10.39l95.2,100.83a7.35,7.35,0,0,0,10.39.3l18.83-17.78a7.35,7.35,0,0,0,.3-10.38l-95.2-100.84A7.36,7.36,0,0,0,1483,973.26Zm104,102.62a5.18,5.18,0,0,1-.21,7.33L1568,1101a5.19,5.19,0,0,1-7.33-.21l-95.21-100.84a5.2,5.2,0,0,1,.22-7.33l18.83-17.78a5.2,5.2,0,0,1,7.33.21Z"/><rect class="cls-23" x="1466.45" y="973.53" width="8.37" height="10.89" transform="translate(-270.79 1276.64) rotate(-43.35)"/><rect class="cls-23" x="1450" y="931.22" width="1.35" height="53.21" transform="translate(-261.67 1257.43) rotate(-43.36)"/><rect class="cls-23" x="1474.44" y="991.32" width="17.36" height="1.61" transform="translate(-276.4 1288.84) rotate(-43.35)"/><rect class="cls-23" x="1477.89" y="994.97" width="17.36" height="1.61" transform="translate(-277.96 1292.2) rotate(-43.35)"/><rect class="cls-23" x="1481.61" y="998.91" width="17.36" height="1.61" transform="translate(-279.65 1295.84) rotate(-43.35)"/><rect class="cls-23" x="1484.91" y="1002.41" width="17.36" height="1.61" transform="translate(-281.14 1299.13) rotate(-43.35)"/><rect class="cls-23" x="1484.23" y="1005.77" width="25.06" height="1.61" transform="translate(-282.59 1302.19) rotate(-43.35)"/><rect class="cls-23" x="1491.66" y="1009.56" width="17.36" height="1.61" transform="translate(-284.22 1305.64) rotate(-43.35)"/><rect class="cls-23" x="1495.11" y="1013.21" width="17.36" height="1.61" transform="translate(-285.79 1309.01) rotate(-43.35)"/><rect class="cls-23" x="1498.83" y="1017.15" width="17.36" height="1.61" transform="translate(-287.46 1312.7) rotate(-43.35)"/><rect class="cls-23" x="1502.13" y="1020.65" width="17.36" height="1.61" transform="translate(-288.98 1315.85) rotate(-43.35)"/><rect class="cls-23" x="1501.45" y="1024.01" width="25.07" height="1.61" transform="translate(-290.42 1318.93) rotate(-43.35)"/><rect class="cls-23" x="1508.88" y="1027.8" width="17.36" height="1.61" transform="translate(-292.03 1322.52) rotate(-43.35)"/><rect class="cls-23" x="1512.33" y="1031.45" width="17.36" height="1.61" transform="translate(-293.61 1325.79) rotate(-43.35)"/><rect class="cls-23" x="1516.05" y="1035.39" width="17.36" height="1.61" transform="translate(-295.29 1329.5) rotate(-43.35)"/><rect class="cls-23" x="1519.35" y="1038.89" width="17.36" height="1.61" transform="translate(-296.79 1332.72) rotate(-43.35)"/><rect class="cls-23" x="1518.67" y="1042.25" width="25.06" height="1.6" transform="translate(-298.23 1335.78) rotate(-43.35)"/><rect class="cls-23" x="1526.45" y="1046.4" width="17.36" height="1.61" transform="translate(-300.02 1339.58) rotate(-43.35)"/><rect class="cls-23" x="1529.89" y="1050.05" width="17.36" height="1.61" transform="translate(-301.59 1342.94) rotate(-43.35)"/><rect class="cls-23" x="1533.61" y="1053.99" width="17.36" height="1.6" transform="translate(-303.26 1346.64) rotate(-43.35)"/><rect class="cls-23" x="1536.92" y="1057.49" width="17.36" height="1.61" transform="translate(-304.77 1349.86) rotate(-43.35)"/><rect class="cls-23" x="1536.23" y="1060.85" width="25.07" height="1.61" transform="matrix(0.73, -0.69, 0.69, 0.73, -306.22, 1352.86)"/><rect class="cls-23" x="1543.09" y="1064.03" width="17.36" height="1.6" transform="translate(-307.58 1355.81) rotate(-43.35)"/><rect class="cls-23" x="1546.53" y="1067.68" width="17.36" height="1.61" transform="translate(-309.14 1359.24) rotate(-43.35)"/><rect class="cls-23" x="1550.25" y="1071.62" width="17.36" height="1.61" transform="translate(-310.84 1362.8) rotate(-43.35)"/><rect class="cls-23" x="1553.56" y="1075.12" width="17.36" height="1.61" transform="translate(-312.33 1366.09) rotate(-43.35)"/><rect class="cls-23" x="1552.87" y="1078.47" width="25.06" height="1.61" transform="translate(-313.77 1369.14) rotate(-43.35)"/><path class="cls-14" d="M1773.06,923.68c-.56,1.46-32.49,84.72-77.12,115-1-7.86-2.15-16.59-3.06-24-.34-2.69-.63-5.2-.89-7.43,0-.13,0-.24,0-.37-.48-4.9.07-16.27,1.36-30.54,8.26-11.93,14.81-20.48,14.81-20.48Z"/><path class="cls-13" d="M1505.5,1038.4s-19.24-14.88-25.2-14.45-3.59,12,.13,18.39c4.17,7.23,9.74,13.83,15.9,14a52.21,52.21,0,0,0,11.23-1Z"/><path class="cls-13" d="M1506.79,1037.39s-3.81-6.37-6-6.77-9.71.31-11.32,1.2,12.11,9.83,14.65,9.1A3.91,3.91,0,0,0,1506.79,1037.39Z"/><path class="cls-18" d="M1781.51,851.24s19.37,105.37-101.47,185.9c-32.62,21.74-176.93,23.27-176.93,23.27s-4.18-17.9,5.48-25.38c0,0,123.62-42.86,135.66-40.63,10.68,2,67.9-103.15,90.13-123.72S1781.51,851.24,1781.51,851.24Z"/><path class="cls-19" d="M619.45,1147.3c-6.79-21.8-36.31-25.89-48.18-6.39a24.21,24.21,0,0,0-3.61,12.15c-.65,25.56,49.75,124.48,56.44,133.23,12.18,15.93,85.7,54.24,85.7,54.24l15.62-2.27a115.93,115.93,0,0,1-18-14.68c-18.89-18.86-46.42-49.52-51.47-53.77C647.31,1262.52,632.34,1188.68,619.45,1147.3Z"/><path class="cls-16" d="M640.79,1022.26c.41-1.64-35.66,16.3-37.49,18.33-16.92,18.77-12.1,43.26-2.42,43.49,6.21.15,5,10.47,5,10.47l69.16-29.25S666.72,1016.74,640.79,1022.26Z"/><path class="cls-16" d="M649.3,1026.05s2.48-26.94-27.63-26.94c0,0,9.13,2.47,13.84,7.42,0,0-19.2-11.27-40.09,6.05s-7.91,60.76-14.27,69-31.09,9.9-28.07,36.57,78.53,60.07,73.68,82.13c0,0,29.59-43.5,8.43-63.35,0,0,10.31,9.72,11.37,21.26,0,0,2.79-22.54-11.55-29.75-12.7-6.38-23.09-29.72-22-33.89S649.3,1026.05,649.3,1026.05Z"/><path class="cls-6" d="M564.75,1608.61l-15-2.2s-50.32-40-57.81-114.61a132.41,132.41,0,0,1-.36-23.07,4,4,0,0,0-.52-2.55l0,0c-1.61-2.47-5.62-8.65-11.05-17.45s-14.5-25-24.57-43.44c-18.15-33.11-39.27-72.71-46.52-85.32-23.09-40.2-12-67.23-12-67.23s64.41-6.37,82.06-21.81l6.35,9.8s14,61.78,13.3,62.06c.69,2.11,1.39,4.24,2.09,6.42,11,34,23.69,76.48,30.59,111.08,3.88,19.47,5.94,36.43,4.84,48-.38,4,.08,10.06,1.13,17.58C543.57,1530.18,564.75,1608.61,564.75,1608.61Z"/><path class="cls-15" d="M596.14,1627.55H533.7s-1.49-9.52,1.77-16.74c3.12-6.93,7.58-7.15.57-18,4,4.09,16.72,5.78,25.75,4.56,1.1,1.8,7.13,13.83,10.82,16.48C576.69,1616.77,594.89,1615.73,596.14,1627.55Z"/><path class="cls-24" d="M500.77,1309.19c-5.45,30.08-18.33,80.15-45.32,96.08-18.15-33.11-39.27-72.71-46.52-85.32-23.09-40.2-12-67.23-12-67.23s64.41-6.37,82.06-21.81l6.35,9.8s14,61.78,13.3,62.06C499.37,1304.88,500.07,1307,500.77,1309.19Z"/><path class="cls-6" d="M457,1257.36l.21-11.68c-23.26,2.94-80.22-27.8-80.22-27.8s-24.34,16.19-27.68,62.43c-1.62,22.56-11.91,118-13.05,146.5-.42,10.33-.55,17.7-.6,20.65v0a4,4,0,0,1-1,2.4,132.85,132.85,0,0,0-12.6,19.33C286.54,1535.28,305.11,1625,305.11,1625l8.24-2.1s30-93,49.64-133.3c3.33-6.83,6.36-12.14,8.89-15.21,7.38-9,15.16-24.18,22.82-42.49,14.5-34.62,28.57-80.31,38.61-115.68C434,1316.39,457,1257.36,457,1257.36Z"/><path class="cls-13" d="M593.14,1179.42c-38-8.73-13.73-62.18-11.53-61.24,5.27-1.07,16.85-10.33,27.2-28.4l1.4,1.21,23.36,20.49s-5.4,8-9.94,15.77c-3.55,6.1-6.57,12.12-6.09,14.19C619.42,1142.92,603.29,1181.75,593.14,1179.42Z"/><path class="cls-14" d="M617.16,1139.72s6.69,13.19,10.26,24.63,12.49,47.79,12.49,47.79-18.41,21-44,19.78c0,0-13.78-21.56-8.92-41S617.16,1139.72,617.16,1139.72Z"/><path class="cls-19" d="M633.57,1111.48s-5.4,8-9.94,15.77c-14.53-9-14.54-26.94-13.42-36.25Z"/><path class="cls-13" d="M634.22,1121.74s-35.27-19.62-22.71-41.4S628,1041.37,651,1053s22.6,22.42,20.17,30.7S643.72,1126.28,634.22,1121.74Z"/><path class="cls-16" d="M677.15,1071c-1.61-9.66-6.53-10.59-9.95-9.94-13-21.54-34.3-13.13-34.3-13.13a48,48,0,0,1-27.8,16.69s4.09,7.62,20.95,12.33c5.16,1.44,11,.57,16.64-1.33a94.25,94.25,0,0,1-23.93,9c22.22,2,43.36-18.28,45.55-20.45,1,3.15,2.83,9.74,1.75,14.56-1.46,6.54-7.28,18.4-3.73,19.94C662.33,1098.67,679.57,1085.48,677.15,1071Z"/><path class="cls-15" d="M354.76,1627.55H292.32s-1.5-9.52,1.77-16.74c3.12-6.93,8-10.08,6.84-18.46,4,4.09,10.44,8.66,19.46,7.45,1.11,1.79,7.14,11.39,10.84,14C335.31,1616.77,353.5,1615.73,354.76,1627.55Z"/><path class="cls-18" d="M597.62,1221.79c-8,2.81-19.31,4.35-30.84,5.6-16.42,1.79-33.37,3-42.25,6.56a56.36,56.36,0,0,0-11.85,6.46h0s-.12.08-.35.27a38.15,38.15,0,0,0-4.89,4.22,26.88,26.88,0,0,0-5.73,8.5c-3.26,8,1.06,30.35,3.82,42.54a11.09,11.09,0,0,1-5.67,12.3q-9.36,4.83-18.41,8.93l-.95.43c.06-1.24.08-2.47.08-3.68a113.14,113.14,0,0,0-1.06-15.41c-1.48,8.49-7.07,17.66-12.29,24.72-83.79,33.62-142.34,19-141.38,2.26,3.31-58.16,42.53-107.62,42.53-107.62,73.14-85.06,221.09-107.45,221.09-107.45s7.09-.85,15.63,9.42c12.3,14.81,12.92,18.66,12.92,18.66S621.26,1213.55,597.62,1221.79Z"/><path class="cls-14" d="M566.77,1227.39c-16.42,1.79-33.37,3-42.25,6.56-3.63-54.23,22-95,22-95S563.18,1206.87,566.77,1227.39Z"/><path class="cls-14" d="M505.53,1296a11.09,11.09,0,0,1-5.67,12.3q-9.36,4.83-18.41,8.93c-.32-1-.61-2.1-.87-3.25a56.5,56.5,0,0,1-1.06-15.41c1.4-25.74,18.93-45.23,27.92-53.61a26.88,26.88,0,0,0-5.73,8.5C498.45,1261.46,502.77,1283.76,505.53,1296Z"/><path class="cls-14" d="M589.47,1110.43s6.44-8.14,10.8-7.88c0,0,17.6,24.65,17.75,36C618,1138.51,596.05,1109.29,589.47,1110.43Z"/><path class="cls-19" d="M758.39,1349s-9.36.16-11.38-.13-4.63-1.15-7.3-1.24-5,.75-7.49,1.26a6,6,0,0,1-1.12.11H715.57a9.4,9.4,0,0,1-3.26-3.49c-.73-1.19-.83-4-2.51-5-9.4-5.24,15.62-2.27,15.62-2.27s15.71-.29,17.16.79C745.16,1341,759,1348.22,758.39,1349Z"/><path class="cls-19" d="M715.57,1349s9.54,2.75,12.13,4.52l2.73,1.72s1.59-1.76-.91-3.72c-1.31-1-4.94-4.07-5.06-7.54S713.58,1343.51,715.57,1349Z"/><path class="cls-25" d="M1126.33,1499c-14.33-22.77-49.15-21.51-73.12-17.4h0c-1.59.27-3.12.56-4.6.84a182.76,182.76,0,0,0-20,5L821.63,1369.2l-13.22-7.56s-13.48-72.91-55.4-77.29c-.78-.08-1.57-.14-2.38-.17-39.91-1.63-30,53-28,62.7.2.95.33,1.46.33,1.46s-2.11,0-5.45.29c-13.51,1.23-47.35,7.65-45.13,41.29,2,30.81,52.9,36.62,79.78,37.53a70.32,70.32,0,0,1,32.48,9.26L969,1542.11a85,85,0,0,1,29.44,28c14.54,22.78,43.13,59.3,70.66,46.63,1.65-.76,3.21-1.55,4.7-2.4h0c33.46-18.77,23-53.91,23-53.91S1149.19,1535.35,1126.33,1499Z"/><path class="cls-26" d="M1126.33,1499c-14.33-22.77-49.15-21.51-73.12-17.4h0c-2.54.73-4,1.2-4,1.2l-.63-.36a182.76,182.76,0,0,0-20,5L821.63,1369.2l-6.35-3.64a17.76,17.76,0,0,1-8.48-11c-4.65-18.46-20-66.62-53.79-70.16-20.21,15-9.36,59.31-9.36,59.31a80.35,80.35,0,0,0-21,3.22c-1.68.5-3.4,1.08-5.12,1.75-13.07,5.12-25.87,15.51-24.47,36.61,2,30.26,51.09,36.4,78.31,37.47,3.68.14,7,.19,9.68.2a31.85,31.85,0,0,1,15.66,4.2l199.35,114h0a55.38,55.38,0,0,1,19.89,19.34c2.41,4,5.4,8.67,8.87,13.61,12.15,17.3,15.08,44.66,48.93,40.29h0c33.46-18.77,23-53.91,23-53.91S1149.19,1535.35,1126.33,1499Z"/><path class="cls-13" d="M584,1128.44s-41.15,4.07-44.45,30.8,39.45,135.65,45.57,145.51c11.15,18,76.78,79.49,76.78,79.49l12.1-7.33s-46.56-78.81-53.77-86.19C608.94,1279.14,598,1137.7,584,1128.44Z"/><path class="cls-18" d="M605.1,1179.52s4.23-68.94-48.54-52.27,8.19,135.25,8.19,135.25,31-1.53,42-28.55Z"/><path class="cls-13" d="M674,1376.91s6.81,6,12,7.33,11.07,16.12,12,18.24-4.94-1-7.3-4.56-4-5-4.65-4.24.41,10.68,4.34,16.17,6.28,10.37,3.45,10.05-19.63-4.39-23.08-14.6-.92-10.56-8.86-21.06S674,1376.91,674,1376.91Z"/><path class="cls-13" d="M870.68,1202.75a7.61,7.61,0,0,1,3.92,1.19c2.38.65,10,1.41,11.47,1.17,2.83-.46,2.17,3.14.08,4.89-.7.58-3.91.18-4.85.4,3.29,4.6,6.87,11.95,10,23.74,0,0,2.82,9-6.14,4.57-6-3-6.7-6.41-15.07-10.72s-14.07-12.16-13.45-19.09l-2.41-7.48,11.22-7.37Z"/><path class="cls-14" d="M878.26,938.5s-49.8,34.81-73.25,134.65c-7.11,30.27,46.58,133.7,46.58,133.7s14.16-3.41,16-12.93c0,0-15.16-84.14-19.85-99-2.6-8.22,48.68-54.4,55.32-77.48S878.26,938.5,878.26,938.5Z"/><path class="cls-27" d="M811.61,1592.14s2.07,33.45,8.54,33.93c.87.06,32.83.06,32.83.06l40.8-.23s-.27-9.83-12.19-11.91-31.89-10.46-39.12-26.23C834.87,1571.18,811.61,1592.14,811.61,1592.14Z"/><path class="cls-6" d="M809.26,1594.46s12.4,4.15,22.08,4.15a81.08,81.08,0,0,0,20.62-2.94s2.34-22.58,15.19-72.34c6.74-26.08,16.36-59.61,30.05-101.28,37.84-115.16,49.35-182.52,50.4-188.9.06-.34.08-.5.08-.5l-.12-.06L831.2,1181.5s14.38,158.72-4,219.63a257.37,257.37,0,0,0-6.66,29.19C809,1496.49,809.26,1594.46,809.26,1594.46Z"/><path class="cls-24" d="M820.58,1430.32l46.57,93c6.74-26.08,16.36-59.61,30.05-101.28,37.84-115.16,49.35-182.52,50.4-188.9,0-.19,0-.37,0-.56L831.2,1181.5s14.38,158.72-4,219.63A257.37,257.37,0,0,0,820.58,1430.32Z"/><path class="cls-27" d="M902.49,1592.14s2.07,33.45,8.54,33.93c.86.06,32.82.06,32.82.06l40.81-.23s-.27-9.83-12.2-11.91-31.89-10.46-39.11-26.23C925.75,1571.18,902.49,1592.14,902.49,1592.14Z"/><path class="cls-6" d="M968.45,1185.24s1.52,102.85-16.28,229.13-11.76,179.88-11.76,179.88-12.23,4-17.16,4.36c-12.57,1-25.46-2.94-25.46-2.94s-25.47-126.33-18.17-189.53-34.87-216.89-34.87-216.89Z"/><path class="cls-13" d="M886,944.57l22.71,14.89,32.82-6.12c-.46-2.65-2.63-13.63-4.6-23.57-.12-.59-.24-1.18-.35-1.75-1.69-8.46-3.15-15.73-3.15-15.73l-30.65-13.53-11.43-5c0,.18.89,9.39,1,10.74C894.45,928.34,886,944.57,886,944.57Z"/><path class="cls-18" d="M975.24,1189.69c-.47,54.29-4.09,181.29-6.76,183.86-28.27,27.29-152.63-7.48-159.23-37.55s25.06-385.53,73.35-399.73c10-2.94,63.6,14.38,63.6,14.38a339.44,339.44,0,0,1,13.91,50c.67,3.4,1.84,13.62,3.23,27.57,1.37,13.61,3,30.78,4.54,48.62,1.74,19.7,3.46,40.24,4.84,57.7,1,13.19,1.87,24.62,2.36,32.65C975.28,1170.49,975.33,1178.57,975.24,1189.69Z"/><path class="cls-28" d="M894.61,904.88c6.73,11.4,31.81,21.26,42.27,24.89-.12-.59-.24-1.18-.35-1.75-1.69-8.46-3.15-15.73-3.15-15.73l-30.65-13.53C896,898.67,891.83,900.19,894.61,904.88Z"/><path class="cls-13" d="M944.94,910.42s-49.38,15.41-58.49-15.49-21.64-49.71,9.5-60.85,40.77-1.17,46.32,8.4S957.54,905.62,944.94,910.42Z"/><path class="cls-27" d="M940.33,839.51s-3.15,36-10.58,34.39-14.18-2.72-13.09,8.12,11.4,23.35-11.51,25.26-55.86-57.17-49.56-68.36C873.75,806.64,966.58,800.13,940.33,839.51Z"/><path class="cls-14" d="M933.07,937.06c-.64-.27-36.75-16.47-41-15.08s-9.49,14.3-9.49,14.3l63.6,14.37S941.19,940.48,933.07,937.06Z"/><circle class="cls-21" cx="1189.53" cy="973.99" r="66.66" transform="translate(-31.7 1907.92) rotate(-76.72)"/><circle class="cls-3" cx="1184.44" cy="977.17" r="42.27"/><path class="cls-21" d="M1111.84,1287.21c-11.67,0-23.25-4.11-34.62-12.3-31.45-22.66-61.13-75.65-88.23-157.48-20.11-60.71-28.2-109.31-28.31-109.86L959,995.1c.11.54,14.25,59.88,34.23,120.21,18.36,55.42,48.23,127.23,86.28,154.65,16.15,11.64,32.72,14.48,49.27,8.45,68-24.75,55.32-246.75,55.18-249l4.53-.43c0,.57,3.39,57.52-2,116.88-3.15,35-8.67,64-16.4,86.22-9.83,28.27-23.32,45.7-40.09,51.8A52.79,52.79,0,0,1,1111.84,1287.21Z"/><path class="cls-21" d="M919.9,881.48a4,4,0,1,1,4,4A4,4,0,0,1,919.9,881.48Z"/><path class="cls-21" d="M943.45,946.18l-1.63-2.13c.06-.06,4.94-5,2-18.61-3-14.09-20.75-43.07-20.93-43.36l1.94-1.2c.74,1.2,18.14,29.61,21.22,44.08C949.26,939.84,943.73,945.88,943.45,946.18Z"/><path class="cls-14" d="M967.88,1076.83c-29.08-9.21-64.81-59.36-64.81-59.36l60.27,10.74C964.71,1041.82,966.3,1059,967.88,1076.83Z"/><path class="cls-13" d="M1168,1001.35a7.6,7.6,0,0,1,1.3-3.89c.71-2.36,2.13-9.34,2-10.84-.58-4.75,2.93-3.78,4.28.2.3.87.22,3.16.41,4.11,4.69-3.17,12.15-6.56,24-9.4,0,0,9.09-2.58,4.41,6.28-3.13,5.91-6.6,6.53-11.14,14.8s-12.54,13.76-19.46,12.95l-7.55,2.21-7.08-11.44Z"/><path class="cls-18" d="M900.89,964.19s-62.86,80.37,130.36,104.17c30.9,3.8,140.38-47.77,140.38-47.77s-3-14.27-12.51-16.39c0,0-103.34,10.91-111.24,16.58-7,5-83.62-51.24-106.54-58.52S900.89,964.19,900.89,964.19Z"/><path class="cls-9" d="M1301.38,1623.17H1185.7A8.79,8.79,0,0,1,1177,1616c-3-15.64-7.82-52.82,7.69-71.72,12.23-14.91,50.73-11.54,78.71-6.7C1292.78,1569.42,1301.38,1623.17,1301.38,1623.17Z"/><path class="cls-29" d="M3.2,1622.34h2801a3.2,3.2,0,0,1,3.2,3.2v1.15a3.2,3.2,0,0,1-3.2,3.2H3.21A3.21,3.21,0,0,1,0,1626.69v-1.15a3.2,3.2,0,0,1,3.2-3.2Z"/></g></g></svg>