<svg xmlns="http://www.w3.org/2000/svg" xmlns:xlink="http://www.w3.org/1999/xlink" viewBox="0 0 435.58 331.46"><defs><style>.cls-1{fill:#ff6760;}.cls-2{isolation:isolate;}.cls-3{fill:#4ecadd;}.cls-4{fill:#22bdd5;}.cls-5{fill:#6dcec5;}.cls-6{fill:#d07422;}.cls-7{fill:#3395b9;}.cls-8{fill:#ffb900;}.cls-9{fill:#daf4ed;}.cls-10{fill:#754114;}.cls-11{fill:#9c571a;}.cls-12{fill:#d48b4d;}.cls-13{fill:#f3a5a7;}.cls-14{fill:#ffe2d1;}.cls-15{fill:#402a2a;}.cls-16{fill:none;stroke:#11201c;stroke-miterlimit:10;stroke-width:4px;}.cls-17{fill:#ffc542;}.cls-18{fill:#454c53;}.cls-19{fill:#fff;}.cls-20{fill:#cbcdcf;}.cls-21{fill:#ff7000;}.cls-22{fill:#a7e5ee;}.cls-23{fill:#ffdbc5;}.cls-24{fill:#453434;mix-blend-mode:soft-light;}.cls-25{opacity:0.4;}.cls-26{fill:#ffb0b0;}.cls-27{clip-path:url(#clip-path);}.cls-28{fill:#ff3e3b;}.cls-29{clip-path:url(#clip-path-2);}</style><clipPath id="clip-path"><path class="cls-1" d="M248.87,143a8.49,8.49,0,0,0,16.88-1.75Z"/></clipPath><clipPath id="clip-path-2"><path class="cls-1" d="M176.19,147.48a8.5,8.5,0,0,1-16.31,4.71Z"/></clipPath></defs><g class="cls-2"><g id="Layer_2" data-name="Layer 2"><g id="OBJECTS"><ellipse class="cls-3" cx="226" cy="327.33" rx="183.95" ry="4.13"/><rect class="cls-4" x="136.58" y="34.21" width="68" height="17.29"/><rect class="cls-5" x="117.98" y="50.92" width="82.5" height="34"/><rect class="cls-6" x="107.58" y="83.18" width="82.5" height="25"/><rect class="cls-7" x="181.59" y="61.54" width="76.68" height="46.64"/><rect class="cls-8" x="189.08" y="34.21" width="49.5" height="27.68"/><rect class="cls-9" x="155.5" y="33.86" width="6" height="80.5"/><rect class="cls-9" x="208.5" y="33.86" width="6" height="80.5"/><path class="cls-10" d="M94.31,149.34c-15,10.13-2,21.07-2,21.07l20,25.84,18.19-13.81c9.24-7.14,8.72-11.57,3.78-18C127.57,155.79,109.3,139.22,94.31,149.34Z"/><path class="cls-11" d="M112.44,192.59a3.38,3.38,0,0,0-.3-.43L91.32,165.21a7.66,7.66,0,0,1,12.36-9l16.49,21.35c1.8,2.32,3.27,4.17,4.49,5.63l10.93-8.44-28.43-36.8c-6.07-7.85-20-10.32-27.88-4.25l1.17-.9A25.13,25.13,0,0,0,75.89,168l25.56,33.08Z"/><path class="cls-12" d="M113,196.13a1.59,1.59,0,0,0,0-2.54,7.57,7.57,0,0,0-11.48,8.87,1.57,1.57,0,0,0,2.44.67Z"/><path class="cls-12" d="M137.15,177.47a1.16,1.16,0,0,0,0-1.81,7.57,7.57,0,0,0-11.73,9.06,1.15,1.15,0,0,0,1.75.43Z"/><path class="cls-12" d="M82.43,147.23l-10.92-.06-10.92-.06a12.91,12.91,0,0,1-12.8-13L47.91,111a12.92,12.92,0,0,1,13-12.81l21.84.12a12.91,12.91,0,0,1,12.8,13l-.12,23.12A12.92,12.92,0,0,1,82.43,147.23Z"/><path class="cls-13" d="M66.71,142.06l.08,11a5,5,0,0,0,5,4.89H72a5,5,0,0,0,4.82-5.08l-.07-10.73Z"/><path class="cls-11" d="M56.7,98.9S55.35,97.82,45.32,100c-8.82,1.89-19.44,10.89-22.3,15.89-1.86,3.27-2.77,8.63,1.07,12.27h0c2.58,2.57,7.4,3.25,11.08,2.23a10.52,10.52,0,0,0,7.62-8.51l1-6.21a22,22,0,0,1,6.61-12.46Z"/><path class="cls-14" d="M85.26,133.51l-4.85-6c-3-3.49-4.35-5.36-4.32-10L76.19,98l-8,0-.11,19.56c0,4.59-1.61,6.44-4.63,9.9l-4.94,6A7.13,7.13,0,0,0,57,138.14l0,3.79A7.31,7.31,0,0,0,64,149.47,7.56,7.56,0,0,0,70.25,146h3.07a7.74,7.74,0,0,0,6.31,3.58A7.42,7.42,0,0,0,87,142.1l0-3.79A7.3,7.3,0,0,0,85.26,133.51Z"/><path class="cls-11" d="M87.48,99.31s4.26,1.34,10.35,6.93c6.25,5.72,9.32,12.83,10,21.16l.27,3.59A9.63,9.63,0,0,1,101,141.08h0a9.6,9.6,0,0,1-9.69-3l-1.58-1.82a9.86,9.86,0,0,1-1.77-10l2.25-5.88a21.94,21.94,0,0,0,.53-14.09Z"/><path class="cls-15" d="M72,129.08h0c4,.11,7.39,2.54,5,6.6-4.42,7.5-7.94,3.71-10.66-.06S67,129.14,72,129.08Z"/><path class="cls-15" d="M62.42,118.7a2.09,2.09,0,1,1-2.09-2.09A2.09,2.09,0,0,1,62.42,118.7Z"/><path class="cls-15" d="M80.92,118.7A2.08,2.08,0,1,0,83,116.61,2.08,2.08,0,0,0,80.92,118.7Z"/><rect x="58.5" y="253.86" width="12.5" height="13.5"/><polyline class="cls-16" points="116 109.86 116 97.86 249 97.86 249 110.86"/><line class="cls-16" x1="152" y1="98.86" x2="152" y2="112.86"/><line class="cls-16" x1="213" y1="96.86" x2="213" y2="110.86"/><rect class="cls-7" x="87.58" y="238.18" width="90" height="44"/><rect class="cls-7" x="319.58" y="240.18" width="90" height="44"/><path class="cls-17" d="M433.46,231.86l-.65-14.79s-90.23-22.66-90.49-23.21l-79.46-86H103.41l-43,89,2.5,35Z"/><path class="cls-17" d="M62.43,225.18l3.65,51,23.68,12c-2.68-25.47,19.84-43.47,42.24-43.47,22.69,0,45.58,18,42.28,43.5H324.77c-1.19-24.5,18.62-43,41.31-43,26.5,0,45.5,20.5,43.25,43l26.25-8-2.41-55Z"/><path d="M132,251.18a38.09,38.09,0,1,0,38.08,38.09A38.13,38.13,0,0,0,132,251.18Z"/><path class="cls-18" d="M132,268.9a20.37,20.37,0,1,0,20.36,20.37A20.4,20.4,0,0,0,132,268.9Z"/><path class="cls-19" d="M132,274.81a14.46,14.46,0,1,0,14.46,14.46A14.47,14.47,0,0,0,132,274.81Z"/><path class="cls-20" d="M132,279.64a9.63,9.63,0,1,0,9.62,9.63A9.64,9.64,0,0,0,132,279.64Z"/><path class="cls-19" d="M132,284.47a4.8,4.8,0,1,0,4.79,4.8A4.8,4.8,0,0,0,132,284.47Z"/><path d="M367.33,251.18a38.09,38.09,0,1,0,38.08,38.09A38.13,38.13,0,0,0,367.33,251.18Z"/><path class="cls-18" d="M367.33,268.9a20.37,20.37,0,1,0,20.37,20.37A20.39,20.39,0,0,0,367.33,268.9Z"/><path class="cls-19" d="M367.33,274.81a14.46,14.46,0,1,0,14.46,14.46A14.47,14.47,0,0,0,367.33,274.81Z"/><path class="cls-20" d="M367.33,279.64a9.63,9.63,0,1,0,9.63,9.63A9.63,9.63,0,0,0,367.33,279.64Z"/><path class="cls-19" d="M367.33,284.47a4.8,4.8,0,1,0,4.8,4.8A4.8,4.8,0,0,0,367.33,284.47Z"/><path class="cls-7" d="M94.66,265.43c-2.32,0-22.66-6.76-30.25-9.29v21.58L90,288.1C89.4,282,91.36,271.45,94.66,265.43Z"/><path class="cls-7" d="M434.91,282v-21.7l-27.33,12.6s2.5,9.92,1.67,19.25Z"/><polygon class="cls-21" points="62.66 231.85 64.25 247.35 90.58 247.18 90.58 231.85 62.66 231.85"/><polygon class="cls-8" points="433.62 231.52 434.25 249.86 424.58 249.86 417.58 231.94 433.62 231.52"/><rect class="cls-7" x="216.58" y="204.18" width="32" height="7"/><rect class="cls-7" x="145.58" y="204.18" width="32" height="7"/><path class="cls-7" d="M343.67,254.84V222.45h-8.84v40A111.76,111.76,0,0,1,343.67,254.84Z"/><path class="cls-7" d="M144.5,250.77V219.45h-8.84V247.7A58.79,58.79,0,0,1,144.5,250.77Z"/><polygon class="cls-7" points="433.45 225.18 432.99 217.18 62.15 217.18 62.9 225.18 433.45 225.18"/><rect class="cls-7" x="173.08" y="275.18" width="153" height="17.23"/><path class="cls-22" d="M253,20.24a9.69,9.69,0,0,0-2.25-2.86l-2.18-1.44A9.82,9.82,0,0,0,243.7,15a7.37,7.37,0,0,0-1.95.33c-.62-4.74-4.78-7.68-9.41-7.68l-.35,0c-.1-.48-.19-.95-.29-1.43a9.06,9.06,0,0,0-2.68-4c-.68-.46-1.37-.91-2.06-1.36A9.19,9.19,0,0,0,222.34,0,6.82,6.82,0,0,0,219,1,7,7,0,0,0,216,3.16a7,7,0,0,0-1.72,3.2,6.86,6.86,0,0,0-.51,3.48c.13.67.27,1.34.4,2a6,6,0,0,0-2.59.82,6,6,0,0,0-2.55,1.89,6,6,0,0,0-1.45,2.58,9.57,9.57,0,0,0-2.34-.14A6.72,6.72,0,0,0,202,18a6.7,6.7,0,0,0-2.86,2.11l-.13.15Z"/><path class="cls-22" d="M332.75,66.4l-.08-.4a7.31,7.31,0,0,0-2.14-3.19l-1.65-1.09a7.45,7.45,0,0,0-3.69-.7,5.51,5.51,0,0,0-2.7.79,5.58,5.58,0,0,0-2.34,1.72c-.15.17-.29.34-.42.52a7,7,0,0,0-2-2.86c-.52-.34-1-.78-1.56-1.13a8.17,8.17,0,0,0-3.51-.77h0a4.69,4.69,0,0,0,0-.84l-.35-1.69a6.7,6.7,0,0,0-2-3l-1.55-1a7,7,0,0,0-3.48-.66,7.72,7.72,0,0,0-4.74,2.38,5.1,5.1,0,0,0-1.3,2.4,5.24,5.24,0,0,0-.39,2.63c.12.58.24,1.16.35,1.74.05.14.12.28.18.42a4.64,4.64,0,0,0-1.17.5A5.67,5.67,0,0,0,295,65.83c-.08.19-.14.38-.2.57Z"/><path class="cls-22" d="M386.28,49.07v0l-.54-2.7a10.7,10.7,0,0,0-3.14-4.67l-2.41-1.59a10.78,10.78,0,0,0-5.12-1,10.85,10.85,0,0,0-1.64-4.13A11,11,0,0,0,363.5,30h-.05a10.93,10.93,0,0,0-9.13,6.2,10.82,10.82,0,0,0-1.06,5.15,8.36,8.36,0,0,0-1.76.78,8.39,8.39,0,0,0-3.5,2.58,8.36,8.36,0,0,0-2.06,3.82c-.07.17-.12.33-.18.5Z"/><path class="cls-22" d="M36.35,186.36a2.44,2.44,0,0,0,0-.27c-.11-.53-.22-1.06-.32-1.59a6.34,6.34,0,0,0-1.85-2.76l-1.42-.93a6.36,6.36,0,0,0-3.18-.61,4.83,4.83,0,0,0-2.33.68l0,0a5.19,5.19,0,0,0,1-2,5.16,5.16,0,0,0,.38-2.61c-.12-.58-.23-1.16-.35-1.74a6.82,6.82,0,0,0-2-3l-1.55-1a6.93,6.93,0,0,0-3.47-.66,5.22,5.22,0,0,0-2.54.74,5.22,5.22,0,0,0-2.19,1.62,5.15,5.15,0,0,0-1.3,2.4,5.18,5.18,0,0,0-.38,2.62c.11.58.23,1.16.34,1.73a7.08,7.08,0,0,0,1.27,2.24,4.67,4.67,0,0,0-1.6,1.27,4.64,4.64,0,0,0-1.15,2.13,4.57,4.57,0,0,0-.36,1.78Z"/><path class="cls-22" d="M50.93,63.8H94.75a8.13,8.13,0,0,0-2-2.63L90.88,60a8.29,8.29,0,0,0-4.16-.79,6.22,6.22,0,0,0-3,.89,6.25,6.25,0,0,0-1.06.55l-.48-1a5.92,5.92,0,0,0-1.57-1.81l-1.92-1.26a4.5,4.5,0,0,0-2.14-.71l-2.18-.13a6.08,6.08,0,0,0-1.81.31c-.24.06-.48.13-.71.21l-.07,0-1.19.58a5.41,5.41,0,0,0,.33-2.53c-.13-.6-.25-1.21-.37-1.82a7.14,7.14,0,0,0-2.12-3.15l-1.62-1.07a7.3,7.3,0,0,0-3.65-.7,5.56,5.56,0,0,0-2.67.78,5.44,5.44,0,0,0-2.3,1.7,5.51,5.51,0,0,0-1.37,2.53,5.47,5.47,0,0,0-.4,2.75l0,.11a6.09,6.09,0,0,0-.85.42,7.45,7.45,0,0,0-4.17,4.8,6.14,6.14,0,0,0-.45,3.12Z"/><path class="cls-22" d="M366.24,151.9c0,.1.08.2.12.3h63.25c0-.2,0-.4,0-.61l-.47-2.34a9.33,9.33,0,0,0-2.72-4.05l-2.09-1.37a9.23,9.23,0,0,0-4.68-.89,10.38,10.38,0,0,0-6.39,3.18,7.07,7.07,0,0,0-1.3,1.95,9.3,9.3,0,0,0-1.57-1.76l-2.11-1.39a9.44,9.44,0,0,0-4.74-.9,7.07,7.07,0,0,0-3.46,1l-.05,0a6.77,6.77,0,0,0,0-1.19c-.15-.72-.29-1.45-.43-2.17a8.66,8.66,0,0,0-2.53-3.77l-2-1.28a8.68,8.68,0,0,0-4.35-.82,6.17,6.17,0,0,0-1.5.22,8.74,8.74,0,0,0-2.35-3.27l-2-1.32a9,9,0,0,0-4.47-.85,6.7,6.7,0,0,0-3.28,1,6.62,6.62,0,0,0-2.83,2.09,6.76,6.76,0,0,0-1.68,3.09,6.83,6.83,0,0,0-.49,3.38l.33,1.61a8.94,8.94,0,0,0-4.74,2.6,5.68,5.68,0,0,0-1.45,2.69,5.74,5.74,0,0,0-.43,2.93Z"/><path class="cls-4" d="M11.5,256.36s1.81-.33,4.53-.57c1.36-.13,2.95-.23,4.65-.3.85,0,1.72-.09,2.62-.09l2.7,0,2.7,0c.9,0,1.77.06,2.62.08,1.7.07,3.29.18,4.65.31,2.72.24,4.53.57,4.53.57s-1.81.34-4.53.58c-1.36.13-2.95.23-4.65.3-.85,0-1.72.09-2.62.09l-2.7,0-2.7,0c-.9,0-1.77-.06-2.62-.09-1.7-.07-3.29-.18-4.65-.3C13.31,256.7,11.5,256.36,11.5,256.36Z"/><path class="cls-4" d="M15.5,266.36a29.36,29.36,0,0,1,3.28-.57c1-.13,2.13-.23,3.36-.3s2.55-.13,3.86-.13,2.62.05,3.86.12,2.37.18,3.36.31a29.36,29.36,0,0,1,3.28.57,27.79,27.79,0,0,1-3.28.58c-1,.13-2.13.23-3.36.3s-2.55.12-3.86.12-2.62,0-3.86-.12-2.37-.18-3.36-.3A27.79,27.79,0,0,1,15.5,266.36Z"/><path class="cls-4" d="M0,261.36s3.25-.33,8.12-.57c2.44-.13,5.29-.23,8.33-.3,1.53,0,3.1-.09,4.7-.09l4.85,0,4.85,0c1.6,0,3.17.06,4.7.08,3,.07,5.89.18,8.33.31,4.87.24,8.12.57,8.12.57s-3.25.34-8.12.58c-2.44.13-5.29.23-8.33.3-1.53,0-3.1.09-4.7.09l-4.85,0-4.85,0c-1.6,0-3.17-.06-4.7-.09-3-.07-5.89-.18-8.33-.3C3.25,261.7,0,261.36,0,261.36Z"/><polygon points="306.36 170.36 260.01 116.68 215.58 116.68 215.58 170.36 306.36 170.36"/><path class="cls-8" d="M262.25,153.49l2.87.52c1.84.32,4.48.81,7.65,1.29s6.88,1,10.83,1.5c2,.23,4,.44,6,.62s4.11.31,6,.34a24.7,24.7,0,0,0,2.48-.09h.19l-.26.07h0l.39-.09.37-.08.06,0H299l.22-.08a4.87,4.87,0,0,0,.47-.18,23.63,23.63,0,0,0,4.35-2.74,74.32,74.32,0,0,0,7.73-7.07c2.2-2.25,3.91-4.27,5.12-5.66l1.83-2.2.08-.1a3.88,3.88,0,0,1,6.16,4.7l-.48.68-1.32,1.85c-1.14,1.58-2.82,3.79-4.92,6.42-1.05,1.31-2.22,2.72-3.52,4.19s-2.71,3-4.32,4.53a33.21,33.21,0,0,1-5.8,4.57c-.29.18-.64.35-1,.53l-.52.26-.68.29-.7.26-.41.14L301,168h0l-.31.08h-.07l-.15,0-.29.06a32.08,32.08,0,0,1-4,.54c-2.42.19-4.68.25-6.9.27s-4.38,0-6.46,0c-4.15-.09-8-.2-11.3-.35l-8-.34-3-.16a7.4,7.4,0,1,1,.79-14.78c.3,0,.59,0,.89.1Z"/><path class="cls-23" d="M324.26,145.22l-6.59-4.52a15.78,15.78,0,0,0,1.06-6.27c-.08-3.75-.49-6.55,1.12-4.77s1.46,5.16,1.46,5.16,3-7.69,4.46-8.1-1.4,7.22-1.4,7.22,4.43-7.72,5.73-7.17-3.42,8.21-3.42,8.21,4.84-6.27,5.91-5.17-4.26,7-4.26,7,3.69-2.66,4.23-2S324.26,145.22,324.26,145.22Z"/><ellipse class="cls-8" cx="256.3" cy="172.67" rx="21.11" ry="16.62" transform="translate(-46.06 108.75) rotate(-22.03)"/><path class="cls-23" d="M224.32,131.37c1.78,17.12,19.28,29.33,34.21,27.78s29.56-17.09,27.78-34.21a31.16,31.16,0,0,0-62,6.43Z"/><path class="cls-23" d="M250.76,158.35a7.3,7.3,0,0,0,8.06,6.5l.32,0a7.3,7.3,0,0,0,6.54-8l-.44-4.31a7.35,7.35,0,0,0-8.06-6.57l-.32,0a7.37,7.37,0,0,0-6.54,8.08Z"/><path class="cls-24" d="M258.68,155.32a41.55,41.55,0,0,0,20.43-8c-5.32,6.5-12.91,11-20.58,11.79-8.4.87-17.62-2.61-24.39-8.88A41.78,41.78,0,0,0,258.68,155.32Z"/><path class="cls-15" d="M268.94,128.84a2.18,2.18,0,1,0-1.94,2.39A2.19,2.19,0,0,0,268.94,128.84Z"/><path class="cls-15" d="M246.47,131.17a2.19,2.19,0,1,0-1.95,2.4A2.19,2.19,0,0,0,246.47,131.17Z"/><g class="cls-25"><path class="cls-26" d="M271.47,135.06c-.15-1.48-2.2-2.48-4.56-2.24s-4.17,1.65-4,3.13,2.19,2.48,4.56,2.23S271.62,136.54,271.47,135.06Z"/><path class="cls-26" d="M249.5,137.34c-.15-1.48-2.2-2.48-4.57-2.24s-4.16,1.65-4,3.13,2.19,2.47,4.56,2.23S249.65,138.81,249.5,137.34Z"/></g><path class="cls-23" d="M220.65,136.35a4.57,4.57,0,1,0,4.07-5A4.57,4.57,0,0,0,220.65,136.35Z"/><path class="cls-23" d="M282.5,129.93a4.57,4.57,0,1,0,4.08-5A4.58,4.58,0,0,0,282.5,129.93Z"/><path class="cls-1" d="M248.87,143a8.49,8.49,0,0,0,16.88-1.75Z"/><g class="cls-27"><path class="cls-13" d="M269.45,151.9a8.24,8.24,0,1,1-9.05-7.34A8.25,8.25,0,0,1,269.45,151.9Z"/></g><path class="cls-6" d="M224.72,131.33S231,120,241,121.61c8.39,1.37,25.5-2,27-14.25,0,0,4.4,14.86,18.58,17.56,0,0,2.42-19.06-22.33-31.06L262,88.61l-1.75,4s-20.19.3-30.75,12.75C219.75,116.86,224.72,131.33,224.72,131.33Z"/><path class="cls-6" d="M223.62,120.11c-.24,1-1.5,17.5,6,29.88,0,0-5.12-20.5,2.38-26.5Z"/><path class="cls-6" d="M285,114.58c.48.92,6.09,15.89,2.06,27.81,0,0-1.38-17.16-6.44-24.16Z"/><polygon class="cls-9" points="303.34 166.86 215.58 166.86 215.58 194.68 327.36 194.68 303.34 166.86"/><path class="cls-19" d="M225,178.86c1.41-.57,2.82-1.13,4.24-1.66s2.83-1.07,4.26-1.57l4.27-1.51c1.43-.51,2.86-1,4.29-1.46l1.1-.37.82,1.13c2.57,3.52,5.12,7.05,7.59,10.62l-3.38-.75q4.58-3.28,9.26-6.39,2.32-1.56,4.71-3.06c1.57-1,3.16-2,4.75-3l2.61-1.62,1.54,2.62c1.33,2.25,2.6,4.53,3.91,6.8s2.56,4.57,3.8,6.87l-3.69-.87c3.57-2.14,7.19-4.2,10.83-6.24,1.82-1,3.65-2,5.49-3s3.7-1.93,5.55-2.91l1.21-.63.3,1.15c.38,1.46.71,2.94,1.07,4.41s.67,2.95,1,4.43c-.7-1.34-1.37-2.7-2-4.06s-1.31-2.72-1.93-4.1l1.51.52c-1.65,1.28-3.28,2.59-4.95,3.85s-3.33,2.51-5,3.75c-3.36,2.46-6.74,4.89-10.17,7.26l-2.15,1.49-1.54-2.36c-1.42-2.2-2.8-4.42-4.2-6.64s-2.75-4.44-4.09-6.69l4.15,1c-1.58,1-3.15,2-4.75,3s-3.18,2-4.79,2.93q-4.8,2.91-9.74,5.62l-2.23,1.23-1.15-2c-2.19-3.76-4.32-7.56-6.41-11.37l1.92.76c-1.49.26-3,.55-4.46.79l-4.48.74c-1.49.25-3,.45-4.49.68S226.51,178.69,225,178.86Z"/><polygon class="cls-9" points="108.34 116.68 80.08 175.68 135.58 194.18 148.48 116.68 108.34 116.68"/><path class="cls-19" d="M110.5,132.36c2.94-.68,5.89-1.26,8.85-1.81,1.48-.3,3-.53,4.45-.79l4.46-.73c1.49-.22,3-.44,4.52-.61l1.18-.1c.21,0,.41,0,.65,0H135l.32,0a2.14,2.14,0,0,1,.33.09,2.22,2.22,0,0,1,.32.14,1.69,1.69,0,0,1,.31.22,1.65,1.65,0,0,1,.42.48,1.93,1.93,0,0,1,.09,1.84,2.51,2.51,0,0,1-.29.45l-.18.17a1.72,1.72,0,0,1-.25.2l-.16.09-.06,0L136,132l0,0-.05.05c-.06.05-.19.12-.19.15a2,2,0,0,1-.21.23l-.76.76c-2,2.08-4.09,4.29-6.14,6.46q-6.16,6.53-12.4,13c-4.16,4.31-8.38,8.56-12.6,12.8l-3-4.94c9.7-2.74,19.45-5.27,29.3-7.49l4.17-.94-1.88,3.58-2.91,5.51c-1,1.84-2,3.66-3,5.49s-2,3.64-3,5.45-2.08,3.61-3.15,5.41c.65-2,1.31-4,2-5.93s1.38-3.92,2.12-5.87,1.44-3.9,2.19-5.84l2.25-5.81L131,156.7c-9.49,3.45-19.07,6.59-28.7,9.51l-11,3.35,8.06-8.28c4.19-4.3,8.41-8.56,12.71-12.75s8.65-8.32,13.1-12.37c2.24-2,4.48-4,6.85-6l.92-.74.66-.48c.14-.1.18-.11.27-.17l.21-.12-.09.06a1.36,1.36,0,0,0-.2.15l-.15.16a1.53,1.53,0,0,0-.27.41,2,2,0,0,0-.19.85,1.92,1.92,0,0,0,.28.93,1.67,1.67,0,0,0,.39.46,2.27,2.27,0,0,0,.28.19,1.62,1.62,0,0,0,.26.12l.19.05h.05l-.15,0-.47,0H133c-1.45,0-3,0-4.44,0l-9,.21C116.52,132.31,113.52,132.37,110.5,132.36Z"/><polygon points="206.04 178.68 207.57 116.68 156.51 116.68 147.48 178.68 206.04 178.68"/><ellipse class="cls-28" cx="180.44" cy="177.82" rx="21.11" ry="16.62"/><polygon class="cls-9" points="147.77 176.68 145.15 194.68 205.64 194.68 206.09 176.68 147.77 176.68"/><path class="cls-19" d="M170.5,187.86c.9-.81,1.82-1.58,2.77-2.3s1.9-1.43,2.88-2.09c1.95-1.35,3.95-2.6,6-3.77l2.43-1.41.32,3c.14,1.33.27,2.66.36,4s.16,2.67.21,4l-2.8-1.64c2.45-1.1,4.94-2.11,7.48-3,1.28-.45,2.56-.88,3.87-1.24a40.28,40.28,0,0,1,4-1,40.44,40.44,0,0,1-3.25,2.52c-1.11.8-2.24,1.54-3.38,2.26-2.29,1.44-4.63,2.76-7,4l-2.55,1.31-.25-2.95c-.12-1.34-.22-2.67-.29-4s-.11-2.67-.14-4l2.75,1.55c-2.14,1-4.3,1.91-6.52,2.73-1.11.42-2.24.8-3.37,1.15S171.69,187.6,170.5,187.86Z"/><path class="cls-28" d="M176.74,174.43l-2.77,1.3L166.72,179c-3,1.37-6.53,2.92-10.35,4.55-1.91.82-3.9,1.65-6,2.47s-4.19,1.61-6.51,2.33a33.31,33.31,0,0,1-3.88,1l-.29.05-.15,0h-.07l-.31.05h0l-.4,0-.43,0h-1.49l-.58,0c-.36,0-.75-.06-1.09-.13a33.08,33.08,0,0,1-7.08-2c-2.07-.83-4-1.72-5.72-2.59s-3.36-1.73-4.83-2.56c-2.93-1.65-5.31-3.06-7-4.1l-1.91-1.22-.7-.45a3.88,3.88,0,0,1,3.94-6.68l.12.07,2.52,1.35c1.64.84,4,2.07,6.87,3.33a72.74,72.74,0,0,0,9.82,3.65,23,23,0,0,0,5.06.91c.19,0,.34,0,.5,0H137l.06,0h.06l.37-.06.4-.07h0c.07,0-.52.07-.27,0h.08l.11,0a23.85,23.85,0,0,0,2.33-.85c1.77-.74,3.64-1.65,5.46-2.58s3.63-1.89,5.38-2.84c3.49-1.91,6.71-3.82,9.47-5.45s5-3.08,6.62-4.06l2.46-1.57,0,0a7.4,7.4,0,1,1,7.92,12.5A8.32,8.32,0,0,1,176.74,174.43Z"/><path class="cls-23" d="M109,177.11l4.42-6.66a16,16,0,0,1-3.34-5.42c-1.33-3.5-2-6.25-2.83-4s.58,5.33.58,5.33-5.66-6-7.16-5.83,4,6.17,4,6.17-7-5.5-8-4.5,6.25,6.33,6.25,6.33-6.84-4-7.42-2.58,6.58,4.91,6.58,4.91-4.41-1.08-4.66-.25S109,177.11,109,177.11Z"/><path class="cls-23" d="M194.6,127.54c4.77,16.53-6.87,34.42-21.3,38.58s-33.8-4.76-38.58-21.29a31.16,31.16,0,0,1,59.88-17.29Z"/><rect class="cls-23" x="164.91" y="153.01" width="15" height="19" rx="7.34" transform="translate(-38.32 54.22) rotate(-16.11)"/><path class="cls-24" d="M171.73,162.63a41.68,41.68,0,0,1-21.93.28c7.38,4,16.09,5.35,23.5,3.21,8.12-2.34,15.36-9,19.28-17.38A41.84,41.84,0,0,1,171.73,162.63Z"/><path class="cls-15" d="M152.29,141.93a2.18,2.18,0,1,1,2.7,1.49A2.19,2.19,0,0,1,152.29,141.93Z"/><path class="cls-15" d="M174,135.66a2.19,2.19,0,1,1,2.71,1.49A2.2,2.2,0,0,1,174,135.66Z"/><g class="cls-25"><path class="cls-26" d="M152.27,148.64c-.41-1.43,1.11-3.13,3.4-3.79s4.47,0,4.88,1.4-1.1,3.12-3.39,3.78S152.69,150.07,152.27,148.64Z"/><path class="cls-26" d="M173.49,142.51c-.41-1.43,1.11-3.12,3.4-3.79s4.47,0,4.89,1.4-1.11,3.12-3.4,3.78S173.91,143.94,173.49,142.51Z"/></g><path class="cls-23" d="M199.87,130.77a4.57,4.57,0,1,1-5.66-3.12A4.57,4.57,0,0,1,199.87,130.77Z"/><path class="cls-23" d="M140.12,148a4.57,4.57,0,1,1-5.65-3.13A4.56,4.56,0,0,1,140.12,148Z"/><path class="cls-1" d="M176.19,147.48a8.5,8.5,0,0,1-16.31,4.71Z"/><g class="cls-29"><path class="cls-13" d="M160.46,163.5a8.24,8.24,0,1,0,5.64-10.21A8.26,8.26,0,0,0,160.46,163.5Z"/></g><path class="cls-8" d="M195.7,121.71a33.55,33.55,0,0,0-1.72-4,6.91,6.91,0,0,0-.29-2.7l-.05-.15-.75-1.54a4.94,4.94,0,0,0-1.92-1.82,3.28,3.28,0,0,0-1.55-.76,3.83,3.83,0,0,0-.63-.2,6.77,6.77,0,0,0-.85-3.36,12.64,12.64,0,0,0-8.24-6.14,11.77,11.77,0,0,0-6.42.51A7.64,7.64,0,0,0,171,98.41l-2-1.29a8.76,8.76,0,0,0-4.42-.85,6.68,6.68,0,0,0-3.24,1,6.76,6.76,0,0,0-2.8,2.06,7.82,7.82,0,0,0-.86,1.15A12.52,12.52,0,0,0,151,98.52c-5.81,0-10.37,5.9-10.09,11.42a10.56,10.56,0,0,0-1.26,0,6.52,6.52,0,0,0-3.2.94,7.93,7.93,0,0,0-4.4,5.06,6.63,6.63,0,0,0-.48,3.3,10.58,10.58,0,0,0,.77,3,5.32,5.32,0,0,0-1.5.33,5.09,5.09,0,0,0-2.27,1.37,5.23,5.23,0,0,0-1.68,2.12,6.76,6.76,0,0,0-.64,3.4c0,.45.05.9.08,1.34a6.81,6.81,0,0,0,2.29,4.59l1.09.72a8.46,8.46,0,0,0,.28,2.77c.68,2.39,2.85,5.86,5.27,6.71a5.33,5.33,0,0,0,5-.35,5,5,0,0,0,2.27-4.6,7.49,7.49,0,0,0-.57-2c3.61-.06,7.24-2.73,9.64-5.39a21.43,21.43,0,0,0,3.63-5.56,7.73,7.73,0,0,0,3.74-.21,18.48,18.48,0,0,0,4.82-2.27,14.69,14.69,0,0,0,3-2.69c.17-.16.34-.32.5-.5l.11-.13a6.58,6.58,0,0,0,1.15-1.79,15.5,15.5,0,0,0,1.41-2.71,3.6,3.6,0,0,0,.28.4c3,3.53,7.83,4.45,12.25,3.63l.52.59a6.6,6.6,0,0,0,3.12,1.51l.14.05.57.07c.23.49.47,1,.69,1.47.9,2,1.69,3.58,3.67,4.67,2.3,1.26,4.77-.5,5.37-2.73C197.09,125.19,196.36,123.4,195.7,121.71Z"/></g></g></g></svg>