<svg xmlns="http://www.w3.org/2000/svg" viewBox="0 0 436.54 407.64"><defs><style>.cls-1{fill:#ffefe6;}.cls-2{fill:#fffaf5;}.cls-3{fill:#ffdcca;}.cls-4{fill:#fff1e9;}.cls-5{fill:#1e2144;}.cls-6{fill:#f98;}.cls-7{fill:#ed7966;}.cls-8{fill:#fff;}.cls-9{fill:#ffbd5c;}.cls-10{fill:#f29e3b;}.cls-11{fill:#db5b52;}.cls-12{fill:#e2675a;}.cls-13{fill:#f9d1bb;}.cls-14{fill:#ffe2cf;}.cls-15{fill:#ffd3bb;}.cls-16{fill:#20264c;}</style></defs><g id="Layer_2" data-name="Layer 2"><g id="OBJECTS"><path class="cls-1" d="M142.94,206.11s-1-161,0-203c0,0,119-7,187,0,0,0,1,161,0,201C329.94,204.11,217.94,211.11,142.94,206.11Z"/><path class="cls-2" d="M155.37,14.89,158.66,97s39.4,2.67,69,0V14.89S198.06,10.89,155.37,14.89Z"/><path class="cls-2" d="M243.19,14.89,244.28,97s41.59,2.67,71.15,0V14.89S285.87,10.89,243.19,14.89Z"/><path class="cls-2" d="M155.37,111l3.29,84s41.59,2.49,69,0V111S198.06,108.83,155.37,111Z"/><path class="cls-2" d="M243.19,111l-1.1,84s51.45,2.49,73.34,0V111S283.69,106.64,243.19,111Z"/><path class="cls-3" d="M69.08,169.09a.88.88,0,0,0-1.43-.38A28.2,28.2,0,0,0,59,179.89c-.32.74-.61,1.5-.86,2.26a108.12,108.12,0,0,0-1.7-12.82c7.84-6.48,8.22-18.15,5.75-27.21a.85.85,0,0,0-1.54-.2c-2.66,5-6,11.18-6.63,17.26l-.15-.52a103.43,103.43,0,0,0-4.89-13.14.74.74,0,0,0,.53-.39,38.77,38.77,0,0,0,3-28.77.84.84,0,0,0-1.6,0c-1.92,4.88-3.86,9.81-4.62,15a29.08,29.08,0,0,0-.2,7.78c-2.74-5.81-5.59-11.57-7.92-17.57,0,0,0,0,0,0a27.76,27.76,0,0,0,5.05-22A.68.68,0,0,0,42,99.34,45.46,45.46,0,0,0,37.19,110a26.81,26.81,0,0,0-.84,6.76,68.4,68.4,0,0,1-2-7.27c2.7-3.6,3-8.63,3.26-13a62,62,0,0,0-1-15.91.65.65,0,0,0-1.18-.15c-3,4.85-6,9.93-6.6,15.72-.48,4.9.71,10.4,4.55,13.7a66.65,66.65,0,0,0,1.68,6.61,29.34,29.34,0,0,0-3.52-3.53c-2.48-2.13-5.27-3.79-8.6-4a.62.62,0,0,0-.53.92c3.12,5,7.63,11.83,14.31,11.75a.7.7,0,0,0,.19.16c1.52,4,3.3,7.92,5.1,11.76l1.74,3.74A38.7,38.7,0,0,0,27.63,126a.85.85,0,0,0-1,1c2.67,8.33,10.8,16.56,20,16.57,1.53,3.48,3,7,4.15,10.63.83,2.49,1.57,5,2.22,7.56a44.21,44.21,0,0,0-5.12-6.4,49.57,49.57,0,0,0-5.65-5.09c-1.94-1.49-4.17-3.48-6.75-3.48a.82.82,0,0,0-.71,1.23c3,5.23,4.78,11.21,8.69,15.88,2.43,2.91,7.07,6.57,11.28,6,.32,1.85.6,3.7.82,5.56.27,2.2.44,4.39.54,6.58a19,19,0,0,0-3.75-3.63c-3.75-2.77-8.42-5.2-13.17-5.23a.87.87,0,0,0-.74,1.3c2.54,3.8,3.84,8.08,7.69,10.88a21.45,21.45,0,0,0,10.12,3.69c0,3.63-.15,7.27-.28,10.93,0,.78,1.26,1,1.39.19a72.77,72.77,0,0,0,.91-10.49.8.8,0,0,0,.46-.16c3.85-1.18,6.62-4.28,8.24-7.91A34.68,34.68,0,0,0,69,174.89C69.47,173,69.88,171,69.08,169.09Z"/><path class="cls-3" d="M58.87,157.92a1,1,0,0,1,1.66-.49,36.12,36.12,0,0,1,10,14.41c.37,1,.71,1.94,1,2.93a151.9,151.9,0,0,1,2-16.55c-9.06-8.36-9.51-23.42-6.65-35.11a1,1,0,0,1,1.79-.26c3.07,6.5,6.9,14.43,7.67,22.27.05-.22.11-.45.17-.67a143.94,143.94,0,0,1,5.65-16.95.82.82,0,0,1-.6-.51c-5.55-11.21-6.5-24.86-3.45-37.11.27-1.09,1.51-.93,1.84,0,2.23,6.3,4.47,12.66,5.35,19.4a42.68,42.68,0,0,1,.24,10c3.17-7.49,6.46-14.93,9.16-22.67l-.06-.07a39,39,0,0,1-5.84-28.44.75.75,0,0,1,1.41-.2c2.21,4.38,4.41,8.82,5.55,13.71a38.53,38.53,0,0,1,1,8.72c.9-3.08,1.67-6.21,2.26-9.37-3.12-4.64-3.41-11.13-3.77-16.76A89.31,89.31,0,0,1,96.42,43.7a.73.73,0,0,1,1.36-.2c3.45,6.27,7,12.83,7.64,20.3.56,6.32-.82,13.41-5.27,17.66-.5,2.87-1.16,5.72-1.94,8.53a36.23,36.23,0,0,1,4.08-4.54c2.87-2.75,6.09-4.9,9.95-5.1.53,0,.88.69.61,1.18C109.24,88,104,96.8,96.29,96.69a.52.52,0,0,1-.22.2c-1.76,5.17-3.81,10.23-5.89,15.18q-1,2.42-2,4.82a45.06,45.06,0,0,1,18.67-14.56c.69-.29,1.41.59,1.2,1.34-3.1,10.75-12.5,21.36-23.2,21.38-1.77,4.49-3.42,9-4.81,13.71q-1.44,4.83-2.56,9.76a56.39,56.39,0,0,1,5.92-8.26,57.89,57.89,0,0,1,6.54-6.56c2.24-1.93,4.83-4.5,7.8-4.5a1.08,1.08,0,0,1,.83,1.6c-3.46,6.74-5.54,14.45-10,20.48-2.82,3.76-8.18,8.47-13.06,7.73q-.56,3.57-1,7.17c-.3,2.84-.5,5.67-.63,8.49A23.55,23.55,0,0,1,78.21,170c4.34-3.58,9.74-6.71,15.24-6.75a1.13,1.13,0,0,1,.86,1.67c-3,4.91-4.45,10.44-8.9,14a23.21,23.21,0,0,1-11.71,4.76c0,4.69.16,9.38.32,14.11,0,1-1.46,1.27-1.61.24a106.11,106.11,0,0,1-1.06-13.53.88.88,0,0,1-.53-.21c-4.44-1.53-7.66-5.52-9.52-10.2a48,48,0,0,1-2.38-8.72C58.43,162.89,58,160.37,58.87,157.92Z"/><path class="cls-1" d="M99.24,204.34c0,1.89,0,4-.1,6.33-.09,3.76-.28,8-.61,12.72q-.24,3.24-.57,6.72c-.59,6.12-1.44,12.75-2.63,19.67-.4,2.28-.83,4.57-1.3,6.89-.87,4.28-1.88,8.64-3.06,13q-.6,2.31-1.29,4.62c-1.55,5.33-3.37,10.69-5.46,16A4,4,0,0,1,81,292.49c-4,.59-13.14,1.39-30.44.35a4.08,4.08,0,0,1-3.8-2.45c-.71-2.34-1.87-6.47-3.18-12.14-.46-2-.94-4.2-1.42-6.58-.91-4.47-1.83-9.59-2.68-15.28-.26-1.76-.52-3.58-.77-5.44q-.76-5.85-1.37-12.36-.31-3.43-.56-7c-.36-5-.6-10.23-.73-15.68C36,214,36,212,36,210.07c0-4.31,0-8.75.2-13.29.06-1.62,1.77-2.93,4-3.05,8.33-.41,29.35-1.17,55,0,2.2.11,4,1.43,4,3.05C99.19,198.59,99.25,201.15,99.24,204.34Z"/><path class="cls-2" d="M99.24,204.34c0,1.89,0,4-.1,6.33a363.87,363.87,0,0,1-39.08,4.49c-7.92.5-15.9.85-23.85.72H36C36,214,36,212,36,210.07c.64,0,1.28,0,1.91,0,7.14-.26,14.26-.49,21.39-1C72.69,208.11,86,206.44,99.24,204.34Z"/><path class="cls-2" d="M98.53,223.39q-.24,3.24-.57,6.72l-5.11,1.19q-12,2.82-24.41,4.52a297.47,297.47,0,0,1-31.13,2.77q-.31-3.43-.56-7c10.06-.35,20.08-1,30-2.31,8-1.06,16-2.4,23.79-4C93.25,224.71,95.89,224.06,98.53,223.39Z"/><path class="cls-2" d="M95.33,249.78c-.4,2.28-.83,4.57-1.3,6.89-2.44.26-4.91.45-7.37.62-9.1.64-18.2.69-27.33.45a168.74,168.74,0,0,1-19.88-1.35c-.26-1.76-.52-3.58-.77-5.44a211.09,211.09,0,0,0,23.07.64c8.3,0,16.65-.26,24.91-.9C89.56,250.46,92.45,250.13,95.33,249.78Z"/><path class="cls-2" d="M91,269.7q-.6,2.31-1.29,4.62c-10.15,1.6-20.38,2.83-30.84,3.44-5.05.3-10.17.51-15.29.49-.46-2-.94-4.2-1.42-6.58,6.12.2,12.25.07,18.36-.07C70.62,271.36,80.86,270.8,91,269.7Z"/><path class="cls-4" d="M258.77,273.2a11.27,11.27,0,0,0-7.3,2.41c-.31.27.09.67.41.53a15.37,15.37,0,0,1,6.89-1.78A.58.58,0,0,0,258.77,273.2Z"/><path class="cls-4" d="M259.76,277.5c-2.36-.54-5.3-1.05-7.63-.22a.29.29,0,0,0,.07.56c1.14.13,2.31,0,3.46.1a20.18,20.18,0,0,1,3.79.66A.57.57,0,0,0,259.76,277.5Z"/><path class="cls-4" d="M236,277.5c-2.07-1-4.71-.7-6.84-.05-.57.17-.31,1.08.24.88,2.23-.82,4.22-.66,6.53-.58A.14.14,0,0,0,236,277.5Z"/><path class="cls-4" d="M235.76,278.84c-2.15-.53-4.92.83-6.69,1.94-.6.37,0,1.33.55.94a15,15,0,0,1,3.29-1.67c1-.33,2-.41,2.9-.83C236,279.15,235.92,278.88,235.76,278.84Z"/><path class="cls-1" d="M130,284.66c-40.42,3.23-83,7.2-116.19,30.5C6.23,320.45-1.35,328.41.2,337.49c1.43,8.35,10.2,13.55,18.58,14.85s17-.12,25.37.86S61.59,358.55,64,366.68c1.12,3.86.59,8,1,12,1.17,10.05,8.77,18.52,17.83,23s19.42,5.66,29.54,5.9c63.12,1.48,122.89-28.84,185.82-33.92,39.51-3.19,81.08,3.36,117.58-12.11,6.79-2.88,13.54-6.73,17.59-12.9s4.56-15.17-.54-20.51c-5.65-5.92-17.28-7.48-17.65-15.66-.31-6.89,8.77-12.8,6-19.11a9.36,9.36,0,0,0-3.94-3.94c-6.13-3.68-13.57-4.29-20.7-4.76q-93.25-6.23-186.82-3.43c-33.94,1-68.25,3-100.77,12.8"/><path class="cls-5" d="M271.9,137.3a58.21,58.21,0,0,0-2.33,17c0,5.73,1.13,11.62-1.51,17s-8.49,8-13.66,10.73-10.61,7-10.92,13c-.41,7.92,8.31,14.83,6,22.39-1.18,3.85-4.85,6.15-8.15,8.3-4.31,2.81-8.54,6.09-11.13,10.65s-3.18,10.71-.26,15.06,8,5.76,12.87,6.85c37.44,8.41,76.8,6.64,113.72-4,8-2.29,16.17-5.2,22-11.37s8.22-16.52,3.41-23.53c-3.09-4.5-8.33-6.69-12.71-9.83s-8.29-8.6-6.55-13.83c.79-2.37,2.61-4.19,3.8-6.37a13.54,13.54,0,0,0-2.44-15.8c-3.93-3.68-9.93-4.54-13.28-8.79-3.79-4.82-2.69-11.83-3.22-18-1.87-22-26.26-39.18-46.57-35.83-12.85,2.12-23.87,11.75-28.37,24.43C272.31,136,272.1,136.65,271.9,137.3Z"/><path class="cls-6" d="M322.18,208.31H295.49c2.83-3.78,4.19-10.7,4.83-17.11a119,119,0,0,0,.5-14.63h17.5a116.62,116.62,0,0,0,.91,16.19A112.36,112.36,0,0,0,322.18,208.31Z"/><path class="cls-7" d="M319.23,192.76a33.82,33.82,0,0,1-18.91-1.56,119,119,0,0,0,.5-14.63h17.5A116.62,116.62,0,0,0,319.23,192.76Z"/><path class="cls-7" d="M331.86,158.73a5.05,5.05,0,0,1,4.62-.82,5.13,5.13,0,0,1,2.71,4.11c.58,3.73-1.22,7.51-3.8,10.23a8.07,8.07,0,0,1-3.32,2.3,3.77,3.77,0,0,1-3.8-.76,4.94,4.94,0,0,1-1.16-3.13C326.76,166.42,328.22,161.17,331.86,158.73Z"/><path class="cls-7" d="M285.83,158.73a5,5,0,0,0-4.62-.82A5.13,5.13,0,0,0,278.5,162c-.58,3.73,1.22,7.51,3.8,10.23a8.07,8.07,0,0,0,3.32,2.3,3.77,3.77,0,0,0,3.8-.76,4.94,4.94,0,0,0,1.16-3.13C290.94,166.42,289.47,161.17,285.83,158.73Z"/><path class="cls-6" d="M285.27,165.58c.88,4.48,2,9,4.35,12.88a22.35,22.35,0,0,0,37.23,2c4-5.39,5.53-12.28,6.63-19,1.65-9.94,2.42-21.08-3.47-29.18a24.87,24.87,0,0,0-7.09-6.39c-6.77-4.19-15.26-5.7-22.84-3.36s-13.33,8.66-16.36,16C280.63,146.14,283.75,157.87,285.27,165.58Z"/><path class="cls-7" d="M311.17,167.74c-1.06,0-3.05.5-3.9-.24s.05-2.81.25-3.66c.28-1.22.6-2.43,1-3.62a19.06,19.06,0,0,0,1-3.69.39.39,0,0,0-.66-.27,14.93,14.93,0,0,0-2.25,4.89,25,25,0,0,0-1.37,5.29,2.66,2.66,0,0,0,1.45,3,5.77,5.77,0,0,0,4.89-.27A.76.76,0,0,0,311.17,167.74Z"/><path class="cls-8" d="M316.55,174.14a19.36,19.36,0,0,0-8.83-1.13c-.84.07-7.28.64-6.65,2.15,1.3,3.12,5,5,8.13,4.85a9.14,9.14,0,0,0,7.73-5A.68.68,0,0,0,316.55,174.14Z"/><path class="cls-5" d="M300.89,154.4a5.09,5.09,0,0,0-5.1-3.87c-2.48.1-4.14,2-4.92,4.2-.11.32.37.62.59.34,1.11-1.42,2.14-3,4.12-3.14s3.38,1.25,4.1,3C300,155.62,301.05,155.1,300.89,154.4Z"/><path class="cls-5" d="M315.64,154.4a5.09,5.09,0,0,1,5.1-3.87c2.48.1,4.13,2,4.91,4.2.12.32-.37.62-.58.34-1.11-1.42-2.14-3-4.12-3.14s-3.38,1.25-4.11,3C316.54,155.62,315.48,155.1,315.64,154.4Z"/><path class="cls-5" d="M301.11,160.05a22.72,22.72,0,0,0-9.95.41.9.9,0,0,0-.63.91l-.49.34c-.38.29-.05.78.37.81a34.38,34.38,0,0,0,5.14-.56,29.8,29.8,0,0,1,5.26,0A1,1,0,0,0,301.11,160.05Z"/><path class="cls-5" d="M325.71,160.12a15.56,15.56,0,0,0-10.3.49c-.81.36-.19,1.44.56,1.32l.44-.07a.75.75,0,0,0,.65.21c1.33-.12,2.6-.44,3.94-.46a16.81,16.81,0,0,1,4.18.47A1,1,0,0,0,325.71,160.12Z"/><path class="cls-5" d="M310.64,131.64a190.08,190.08,0,0,0,17.45,14.71c2.18,1.63,4.56,3.27,7.28,3.39.16-6.2.08-12.78-3.18-18.05a33.54,33.54,0,0,0-6.06-6.71,31.56,31.56,0,0,0-7.74-5.8,21.53,21.53,0,0,0-8.65-1.77,33.4,33.4,0,0,0-22.23,7.89,31.89,31.89,0,0,0-8,10.55c-1.2,2.52-4.49,9.81-2.69,12.51,3.24,4.89,19.43-4.78,22.75-7C300.54,140.72,311.26,132.23,310.64,131.64Z"/><path class="cls-7" d="M338.58,138.46a31.36,31.36,0,0,0-20.15-20.64,28.52,28.52,0,0,0-6.29-1.26,19.79,19.79,0,0,0,6.75-4.79c1.63-1.93,3.54-5.68.82-7.6s-6,.91-7.66,2.86a21.92,21.92,0,0,0-3.25,5.2,21.35,21.35,0,0,0-2.94-6.52c-1.81-2.51-5.28-3-7-.07s.34,6.57,2.37,8.71a13,13,0,0,0,3.34,2.57,32.85,32.85,0,0,0-15.28,7.39,54,54,0,0,0-11.5,14.45,1,1,0,0,0,1.66,1c5-8.54,11.91-16.63,21.59-19.83a27.41,27.41,0,0,1,27.08,6.27,33.41,33.41,0,0,1,8.27,12.87C336.91,140.38,339,139.86,338.58,138.46Zm-25.86-28.19a14.49,14.49,0,0,1,2.29-2.72c.67-.61,2.18-1.94,3.18-1.4,1.89,1-1.76,4.77-2.6,5.47a27.47,27.47,0,0,1-5.14,3.13A26.17,26.17,0,0,1,312.72,110.27Zm-12.06-2.79c.3-1.21,1.41-2,2.49-1.19a7.11,7.11,0,0,1,1.86,3,33.13,33.13,0,0,1,2.23,7.28,14.81,14.81,0,0,1-3.57-2.51C302.16,112.53,300.1,109.75,300.66,107.48Z"/><path class="cls-9" d="M239.75,227.74c-6.24,3.6-12.49,7.21-18.74,10.78-1.49.8-14.41,6.59-14.34,7.69a89.27,89.27,0,0,0,6.06,26.66c2.5-1,5-1.87,7.52-2.85,20.4-8.06,38.54-21.81,59.14-29.27l2.88-24.94a15.27,15.27,0,0,1,1.9-6.65c.88-1.4,3.25-3.34.19-3.55a5.18,5.18,0,0,0-2.08.44c-3.4,1.3-6.86,2.54-10.23,3.87-8.13,3.22-15.75,8.33-23.33,12.67Z"/><path class="cls-9" d="M364,286c-.65,3.54-1.53,7.17-3.72,10-2.6,3.38-6.69,5.24-10.72,6.67-25.39,9-53.55,5.94-79.63-.85-6.58-1.72-13.17-3.69-19.06-7.1a5.74,5.74,0,0,1-2.38-2.14,5.92,5.92,0,0,1-.37-2.87,157.12,157.12,0,0,1,14.24-59.24c3.23-7,7.05-13.87,12.58-19.23a28.52,28.52,0,0,1,7.34-5.19c6.53-3.22,13.75-3.78,21.51-4.76a67.57,67.57,0,0,1,35.59,5.21,45.66,45.66,0,0,1,5.8,3,27.22,27.22,0,0,1,5.74,4.68,37.39,37.39,0,0,1,6.46,11A107.54,107.54,0,0,1,364,286Z"/><path class="cls-6" d="M345.19,209.57a94.38,94.38,0,0,1-17.37,6.49c-8.63,2.19-17.79,2.78-26.45.7a39.62,39.62,0,0,1-15.15-7.19,33,33,0,0,1-3.93-3.48c6.53-3.22,13.75-3.78,21.51-4.76a67.57,67.57,0,0,1,35.59,5.21A45.66,45.66,0,0,1,345.19,209.57Z"/><path class="cls-10" d="M277.45,236.74a109.75,109.75,0,0,1-9.42,5.71c-3.28,1.86-6.59,3.65-10,5.3a184.08,184.08,0,0,1-20.71,8.43c-2.4.82-1.37,4.64,1,3.81a128.63,128.63,0,0,0,20.79-9.31c3.29-1.83,6.53-3.77,9.64-5.88s6.19-4.61,9.29-7C278.76,237.37,278.14,236.25,277.45,236.74Z"/><path class="cls-7" d="M235,332.86c-2.5,3.84-6.49,6.4-9.86,9.52-5.26,4.84-9.15,11.17-15.06,15.2s-15.2,4.71-19.25-1.17c-3.39-4.91-1.47-11.59.78-17.11,1.07-2.63,4.08-6,7.57-9,3.75-3.22,8.08-5.95,11.17-6.71l.33-.07h-.22c-10.41-.37-28-.21-38.31-1.07A96.73,96.73,0,0,0,141.5,325a124.79,124.79,0,0,0-27,10c-10.66,5.38-20.87,12.17-32.54,14.69-3.85.83-8,1.15-11.63-.25s-6.76-4.92-6.64-8.85c.14-4.54,4.28-8,8.54-9.54s8.91-1.86,13.12-3.56c9-3.64,14.77-13.12,22.39-18.79a25.35,25.35,0,0,1,4.59-2.77,18.83,18.83,0,0,1,4.38-1.4c-.84,0-1.68.07-2.54.09-7.52.24-15.5,0-22.91.37-4.55.21-9.18.41-13.56-.83-4.08-1.15-7.79-3.52-12-4.25a21.88,21.88,0,0,0-10.89,1.25,75.25,75.25,0,0,0-7.72,3.3,77.4,77.4,0,0,0-11.06,6.05c-2.58,1.8-5.48,4-8.52,3.23-2-.54-3.47-2.34-4.56-4.14-1.67-2.75-2.91-6.19-1.61-9.13,1.55-3.52,5.86-4.68,9.6-5.57,13.95-3.33,27.33-8.66,40.65-14,8.82-3.53,18.51-12.49,25.91-18.44,9.64-7.76,15.89-14.08,27.52-18.33,7.35-2.68,15.45-1.92,23.23-1.13l11.09,1.12c-.67-.82-.79-1.85-1.47-2.67a21.91,21.91,0,0,0-4.12-4.21c-3.33-2.33-8.09-3-10.06-6.53a10.69,10.69,0,0,1-1-3c-1.35-6.28-1.4-13,.94-19a5.73,5.73,0,0,1,1.44-2.33,6.37,6.37,0,0,1,2.54-1.1c4.63-1.26,8.34-2.88,13-4.14,2.1-6.34,5.09-13.57,11.52-15.38,3.55-1,7.32-.05,11,.16s7.53-.37,11.23.2c8.32,1.28,14.6,8,20.1,14.36,3.6,4.17,7.23,8.51,9,13.72,2.06,6,1.47,12.54,1.36,18.88-.44,26.44,8,52.12,12.24,78.22C238.27,318.58,239,326.65,235,332.86Z"/><path class="cls-5" d="M155.07,207a15.38,15.38,0,0,0-5.95-1.93c-1.4-.18-3.35-.38-4.6.46-.74.21-1.05,1-1.16,1.86a7.14,7.14,0,0,0,.1,3,8.07,8.07,0,0,0,1,3.46.4.4,0,0,0,.11.14,2.2,2.2,0,0,0,.83.69,5.69,5.69,0,0,0,2.87.08,17.62,17.62,0,0,0,3.31-.65c1.66-.53,4-1.41,5-2.92S156.49,207.81,155.07,207Z"/><path class="cls-5" d="M172.31,231.74c-7.09-.34-14.32-1.15-20.49-5-2.95-1.82-5.4-4.38-5.57-8a25.87,25.87,0,0,1,.62-5.68c.23-1.34.86-3.37.19-4.61a.29.29,0,0,0-.46-.06,5.65,5.65,0,0,0-.79,2.36c-.25,1-.52,2.1-.75,3.16a17.92,17.92,0,0,0-.5,5.65c.39,3.57,2.69,6.26,5.57,8.23,6.35,4.37,14.6,5.74,22.18,5.66A.87.87,0,0,0,172.31,231.74Z"/><path class="cls-5" d="M146.32,223a4.3,4.3,0,0,1-3.09,1.51c-.89,0-1.71-.43-2.59-.29a.33.33,0,0,0-.22.39c.38,1.28,2.23,1.61,3.38,1.5a5.11,5.11,0,0,0,3.75-2.15C148.08,223.24,146.93,222.4,146.32,223Z"/><path class="cls-5" d="M178.54,200.41c-.23-1.92-1.12-3.73-2.86-4.19-1.34-.35-4-.1-4.51,1.43,0,.11.08.19.17.17.88-.17,1.63-.53,2.5-.62a5.55,5.55,0,0,0-1.49,2,6.85,6.85,0,0,0,.4,6.12c1.32,2.16,4.13,1.3,5.18-.66A7.67,7.67,0,0,0,178.54,200.41Z"/><path class="cls-11" d="M195.42,220a41.7,41.7,0,0,1-5.16,20.67c-3.64,6.59-9,12.14-12.16,19s-3.21,16.07,2.66,20.78a6.53,6.53,0,0,1,1.56,1.45c1,1.61.09,3.69-.51,5.5a13.53,13.53,0,0,0,4.65,14.79,12.6,12.6,0,0,0,15.32-.63c2.34-2.08,3.81-5.05,6.33-6.91s5.52-2.34,8-4c4.5-3.07,5.86-9.11,5.83-14.56s-1.07-11,.13-16.29c1.39-6.13,5.71-12.06,4-18.1-.54-1.88-1.63-3.55-2.22-5.41-1.61-5.05.68-10.42,1.16-15.7.71-7.77-2.56-15.37-6.57-22.07-3.45-5.77-11.72-13-18.49-7.47C191.5,197.83,195.28,211,195.42,220Z"/><path class="cls-5" d="M194.16,345.23c-2.09.58-3.33,3.77-3.91,5.63-.73,2.33-1.12,5.16.16,7.34a1,1,0,0,0,1.88-.51c.19-2.08-.2-4.12.27-6.19a12.63,12.63,0,0,1,1-2.91,9.61,9.61,0,0,0,1.25-2.68A.56.56,0,0,0,194.16,345.23Z"/><path class="cls-5" d="M203.54,349c-2.34.26-3.87,3.32-4.44,5.33a8.36,8.36,0,0,0,1.13,7.53c.91,1.16,2.56-.14,2.3-1.34a13.84,13.84,0,0,1-.52-5.57,8.64,8.64,0,0,1,.85-2.57,12.45,12.45,0,0,0,1.34-2.52A.69.69,0,0,0,203.54,349Z"/><path class="cls-5" d="M72.52,335.76a8.27,8.27,0,0,0-7.26,2c-1.84,1.65-3.51,4.92-2.56,7.39a1.25,1.25,0,0,0,2.39,0c.56-1.95.52-3.74,1.91-5.39a8.13,8.13,0,0,1,5.33-2.66C73.06,337.08,73.36,335.91,72.52,335.76Z"/><path class="cls-5" d="M76.24,340.86c-2.18-.2-4.23,2.18-5,3.95a6.91,6.91,0,0,0,.71,7.43c.94,1.15,2.67-.11,2.35-1.37-.42-1.69-.84-3.52-.14-5.19.64-1.5,2-2.24,2.88-3.49C77.44,341.6,76.83,340.91,76.24,340.86Z"/><path class="cls-5" d="M28.91,300.7a15.48,15.48,0,0,1-8.74,3.1,1.28,1.28,0,0,0,0,2.55A11,11,0,0,0,30,301.51C30.44,300.83,29.46,300.26,28.91,300.7Z"/><path class="cls-5" d="M31.93,307.55a.82.82,0,0,0-1-.57c-.77.26-1.21.93-1.81,1.44a8.47,8.47,0,0,1-1.83,1.25,16.5,16.5,0,0,1-4.56,1c-1.16.18-1.19,1.85-.31,2.37,2,1.19,4.47.69,6.36-.47C30.19,311.66,32.65,309.47,31.93,307.55Z"/><path class="cls-6" d="M116.45,299.19c-1.33.39-2.71.61-4,1.05a39.75,39.75,0,0,0-3.7,1.5c-1.29.59-.15,2.65,1.12,1.93a51.76,51.76,0,0,1,6.85-3.56C117.27,299.9,117.05,299,116.45,299.19Z"/><path class="cls-12" d="M107.73,308.66a25.35,25.35,0,0,1,4.59-2.77A18,18,0,0,1,107.73,308.66Z"/><path class="cls-12" d="M138.05,293.29c-8.25,3.15-16.6,6.35-23.89,11.29-7.52.24-15.5,0-22.91.37-4.55.21-9.18.41-13.56-.83-4.08-1.15-7.79-3.52-12-4.25a21.88,21.88,0,0,0-10.89,1.25,54.39,54.39,0,0,1,14.83-4.94c6.23-.7,12.61-.54,18.61-2.34,4.52-1.35,8.7-3.79,13.32-4.72,5.06-1,10.29-.18,15.38.66Z"/><path class="cls-6" d="M143.7,285.5c-4.89,7.22-13.41,11-21.19,14.19a74.6,74.6,0,0,0-12.63,6.18A55.81,55.81,0,0,0,99.34,315c-1.71,1.87-3.34,3.82-5,5.73s-3.28,3.81-5.74,4.52c-1.19.34-.66,2,.49,1.8,4.47-.63,7.4-4.75,10.27-7.81A74.73,74.73,0,0,1,110,309.4c7.88-5.63,17.65-7.61,25.68-13a22.88,22.88,0,0,0,9-10.55C144.86,285.33,144,285.05,143.7,285.5Z"/><path class="cls-12" d="M219.1,317.2,211,323.1l-.55.39c-10.41-.37-28-.21-38.31-1.07A96.73,96.73,0,0,0,141.5,325a37.63,37.63,0,0,0,3.24-2.2c6.11-4.59,11.49-11.15,19.07-12.12s14.69,4.11,22.33,4.9c4.6.48,9.2-.63,13.81-1A44.29,44.29,0,0,1,219.1,317.2Z"/><path class="cls-6" d="M222.75,314.85a6.22,6.22,0,0,0-2.46,1.11c-.83.52-1.71,1-2.57,1.43-1.74.94-3.5,1.85-5.25,2.77A127.13,127.13,0,0,0,201.08,327c-6.05,4-13.82,10.11-12.49,18.35.12.79,1.39.74,1.55,0a20.64,20.64,0,0,1,5-9.66c2.67-2.88,6-5,9.28-7.16,3.43-2.23,7-4.25,10.5-6.32a42.52,42.52,0,0,0,4.74-3c1.26-1,3.17-2.16,3.5-3.83C223.16,315.11,223,314.82,222.75,314.85Z"/><path class="cls-12" d="M201.92,221.65c-.34-3.62-1.07-7.19-1.43-10.8a33.19,33.19,0,0,1,.63-11c.11-.51-.62-.88-.87-.37-3.17,6.32-1,14.21-.24,20.83a44.8,44.8,0,0,1-2.86,21.46c-.26.67.84,1.14,1.16.49A38.68,38.68,0,0,0,201.92,221.65Z"/><path class="cls-12" d="M206.31,231.85c-.05-1.2-.37-2.28-.5-3.45-.05-.48-.79-.49-.76,0a29.61,29.61,0,0,1-.17,3.25c0,.95-.11,1.9-.23,2.85a40.16,40.16,0,0,1-1.25,6.34,46.42,46.42,0,0,1-5.16,11.39c-.66,1.07.91,1.89,1.63,1a31.11,31.11,0,0,0,5.48-11.8,34.18,34.18,0,0,0,1-6.27C206.35,234,206.35,232.94,206.31,231.85Z"/><path class="cls-12" d="M193.4,247.81c.31-.47-.38-1-.77-.59-4.27,4.08-6.62,9.46-8.53,15-1.82,5.27-2.76,11.73,1.25,16.25.69.77,1.88-.21,1.4-1.07-2.73-4.88-1.64-10.35,0-15.39A59.21,59.21,0,0,1,193.4,247.81Z"/><path class="cls-12" d="M191.8,265.22a24.61,24.61,0,0,1,2.64-7.07c.27-.44-.41-.84-.69-.4a29.08,29.08,0,0,0-3.43,6.41,32.66,32.66,0,0,0-1.59,7.45,51.19,51.19,0,0,0,1.34,16.72c.23,1,1.87.79,1.79-.24-.45-5.29-1.24-10.54-1-15.86A36.15,36.15,0,0,1,191.8,265.22Z"/><path class="cls-12" d="M195.11,282.88c-.08-.29-.57-.33-.63,0-.44,2.62-.49,5.26-.77,7.9s-.72,5.46-1.06,8.18c-.13,1,1.43,1.14,1.71.24a33.88,33.88,0,0,0,1.36-8.19A24.67,24.67,0,0,0,195.11,282.88Z"/><path class="cls-12" d="M220.86,214.82a31.78,31.78,0,0,0-2-6.41c-.69-1.58-1.65-4.27-3.4-4.9a.18.18,0,0,0-.22.16,5.51,5.51,0,0,0,.81,2.53,30.07,30.07,0,0,1,1.29,3.3,41.36,41.36,0,0,1,1.43,6.11,76.32,76.32,0,0,1,.47,14.73c-.06,1.43,2.11,1.4,2.21,0A58.47,58.47,0,0,0,220.86,214.82Z"/><path class="cls-12" d="M215.85,231.54a.35.35,0,0,0-.7,0c-.28,3.2-.72,6.47-1.24,9.64s-1.12,6.2-1.88,9.25a1,1,0,0,0,2,.55,64.39,64.39,0,0,0,1.73-9.55c.16-1.6.26-3.21.32-4.82A47.67,47.67,0,0,0,215.85,231.54Z"/><path class="cls-12" d="M214.66,263.87c-.08-2.86-.17-6-1.39-8.67-.16-.35-.61-.13-.65.17-.32,2.73.09,5.53,0,8.27a58.41,58.41,0,0,1-.86,8.65,36.32,36.32,0,0,1-5.44,14.07c-.68,1,.91,2.26,1.7,1.31,3.56-4.26,5.22-9.57,6-15A49.15,49.15,0,0,0,214.66,263.87Z"/><path class="cls-12" d="M205.11,266.18c-1.45,5.29-2.27,10.75-3.59,16.08-.28,1.1,1.48,1.57,1.69.47,1-5.39,2.27-11,2.41-16.48A.26.26,0,0,0,205.11,266.18Z"/><path class="cls-6" d="M162.13,213a1.27,1.27,0,0,0-.42-.55,1.34,1.34,0,0,0-.82-.29,1.42,1.42,0,0,0-1.17.67,1.39,1.39,0,0,0,.21,1.65l0,0a1.35,1.35,0,0,0,1.88,0l0,0a1.58,1.58,0,0,0,.35-.6A1.33,1.33,0,0,0,162.13,213Z"/><path class="cls-6" d="M157.62,216.32a1.1,1.1,0,0,0-.29-.5l-.05-.07-.25-.19-.3-.13a1.25,1.25,0,0,0-1.57,1.19,1.3,1.3,0,0,0,.62,1.07,1.27,1.27,0,0,0,.79.15,1.22,1.22,0,0,0,.71-.34l.05-.07a1.21,1.21,0,0,0,.34-.81Z"/><path class="cls-6" d="M160.74,217.3a.93.93,0,1,0,.93.93A1,1,0,0,0,160.74,217.3Z"/><path class="cls-6" d="M165,215l0,0a.82.82,0,0,0-.84,0l0,0a.78.78,0,0,0-.28.29.71.71,0,0,0-.11.4.74.74,0,0,0,.11.41.86.86,0,0,0,.28.29l0,0a.84.84,0,0,0,.84,0l0,0A.81.81,0,0,0,165,215Z"/><path class="cls-6" d="M167.47,219.38a1.19,1.19,0,0,0-.15-.32.94.94,0,0,0-.85-.58,1,1,0,0,0-.85.58,1.35,1.35,0,0,0-.15.32,1,1,0,1,0,2,0Z"/><path class="cls-6" d="M157.28,249.52a.29.29,0,0,0-.4-.11c-.86.38-1.27,1.74-1.72,2.51a20.58,20.58,0,0,1-2,3,24,24,0,0,1-5.55,4.58c-.88.56-.32,2.23.75,1.79a15.32,15.32,0,0,0,6.28-5,16.48,16.48,0,0,0,2.09-3.43C157.11,252,157.85,250.43,157.28,249.52Z"/><path class="cls-6" d="M153.72,259.73a.4.4,0,0,0-.56,0,19.91,19.91,0,0,1-4.1,3.08c-1.57.83-3.25,1.42-4.82,2.25a1.25,1.25,0,0,0,1,2.28,18.44,18.44,0,0,0,6.19-3.08C152.47,263.42,155,261.25,153.72,259.73Z"/><path class="cls-6" d="M149.29,268.27c-1.61.73-3.38,1-5,1.68a13,13,0,0,0-3.56,2.12,12.65,12.65,0,0,0-4.52,7c-.27,1.33,1.73,2.4,2.35,1a18.36,18.36,0,0,1,4.11-6.33c2.09-1.95,4.8-3,7.2-4.51A.56.56,0,0,0,149.29,268.27Z"/><path class="cls-6" d="M146.32,275.19c-2.19.28-3.92,2.11-5.14,3.82a10.56,10.56,0,0,0-1.84,6.72,1.49,1.49,0,0,0,3,0,13.32,13.32,0,0,1,1.37-5.25c.82-1.66,2.17-2.81,3.19-4.31A.66.66,0,0,0,146.32,275.19Z"/><path class="cls-6" d="M153.13,297c-1.61-2.25-3.56-4.4-4.73-6.93a9.69,9.69,0,0,1,0-8.41c.41-1-.91-1.82-1.45-.85-1.66,3-2.69,6-1.71,9.44s3.38,6,6,8.22C152.2,299.28,154,298.18,153.13,297Z"/><path class="cls-6" d="M164.92,305.64a36.89,36.89,0,0,1-6.53-7c-1.75-2.65-3.36-5.9-3.15-9.16.06-.94-1.33-.89-1.44,0a16.26,16.26,0,0,0,1.84,10.28,31.18,31.18,0,0,0,7.08,8.11C164.23,309.13,166.43,307,164.92,305.64Z"/><path class="cls-6" d="M170.05,308.53a9.87,9.87,0,0,0-.91-2.17c-.47-.78-1.16-1.38-1.69-2.11a.46.46,0,0,0-.79.46,10.72,10.72,0,0,1,.55,2.25c.16.74.39,1.46.54,2.2a18.46,18.46,0,0,1,.34,4.39c-.05,1.72,2.67,1.73,2.69,0A15.54,15.54,0,0,0,170.05,308.53Z"/><path class="cls-6" d="M175.16,316.19a23.37,23.37,0,0,1-2-9.43.65.65,0,0,0-1.3,0A30.91,30.91,0,0,0,173,317.11C173.44,318.73,175.86,317.82,175.16,316.19Z"/><path class="cls-6" d="M185.14,309.59a23.26,23.26,0,0,1-3,4c-1.19,1.25-2.65,2.19-3.72,3.54a.65.65,0,0,0,.63,1.08,13.87,13.87,0,0,0,5.22-3,7.74,7.74,0,0,0,2.9-5.09C187.27,309,185.65,308.76,185.14,309.59Z"/><path class="cls-6" d="M192.71,310.76c-1.21.85-2.23,1.91-3.41,2.79a20.6,20.6,0,0,1-3.76,2.28c-.5.23-.14,1,.37.87,2.94-.78,6.24-2.13,8-4.73C194.41,311.25,193.43,310.25,192.71,310.76Z"/><path class="cls-6" d="M212.43,294.6a17.59,17.59,0,0,0-2.88,4.73,33.46,33.46,0,0,0-2.07,5.3,1.37,1.37,0,0,0,2.5,1.05c.87-1.64,1.61-3.29,2.33-5a22.32,22.32,0,0,0,1.79-5.11C214.23,294.66,213.19,293.82,212.43,294.6Z"/><path class="cls-6" d="M207.29,299.5a3.47,3.47,0,0,0-1.62,1.46c-.63.85-1.25,1.7-1.8,2.6a29.52,29.52,0,0,0-2.73,5.59c-.53,1.5,1.74,2.36,2.52,1.06a44.3,44.3,0,0,0,4.59-9.75A.79.79,0,0,0,207.29,299.5Z"/><path class="cls-6" d="M97.12,284.5c-2,3.89-6,5.82-9.59,8a1.12,1.12,0,0,0,1.13,1.93c4.24-2.05,8.14-4.81,10-9.29C99.05,284.27,97.55,283.65,97.12,284.5Z"/><path class="cls-6" d="M103.68,284a14,14,0,0,1-3.08,3.43,14.9,14.9,0,0,1-3.77,2.5c-1.48.68-.19,2.77,1.26,2.16a12.05,12.05,0,0,0,4.35-3.07,9,9,0,0,0,1.4-2c.41-.84.52-1.74.86-2.58C104.93,283.86,104,283.44,103.68,284Z"/><path class="cls-6" d="M112.18,281.13c-1.6,2.08-3.11,4-3.38,6.71-.22,2.28.55,4.87,2.69,6,.76.39,2.05-.28,1.64-1.26a13.08,13.08,0,0,1-1.35-4.88,10,10,0,0,1,1.83-5.69C114.25,281.09,112.82,280.3,112.18,281.13Z"/><path class="cls-6" d="M118.12,292.26a12.76,12.76,0,0,1-1-2.65,12.23,12.23,0,0,1,0-2.77.19.19,0,0,0-.29-.16,4.2,4.2,0,0,0-1.46,3,4.13,4.13,0,0,0,1.4,3.67A.9.9,0,0,0,118.12,292.26Z"/><path class="cls-6" d="M127.48,288.87c-1.18,1.32-2.79,1.81-4.23,2.75-.65.42-.48,1.71.44,1.61,2.21-.24,3.58-2.09,4.39-4C128.23,288.88,127.71,288.61,127.48,288.87Z"/><path class="cls-6" d="M217.35,338.44a.81.81,0,0,0-1.33.35c-.4,1-.22,2.23-.47,3.29a31,31,0,0,1-1.07,3.21c-.36,1,1,1.65,1.69,1a6.33,6.33,0,0,0,1.87-3.89C218.21,341.1,218.25,339.46,217.35,338.44Z"/><path class="cls-6" d="M221.51,336.12a.92.92,0,0,0-1.67-.21,10.84,10.84,0,0,0-1.1,4.81c-.08,1.29,1.84,1.48,2.19.3A10.66,10.66,0,0,0,221.51,336.12Z"/><path class="cls-6" d="M225.82,331.55c-1,2-1.92,3.73-.86,6,.45.94,1.69.21,1.55-.66-.22-1.51-.72-3.47,0-4.89C226.77,331.5,226.06,331.08,225.82,331.55Z"/><path class="cls-6" d="M164.52,258.71c-4.9,4.52-7.15,12.12-6.53,18.64a1.37,1.37,0,0,0,2.73,0,35.54,35.54,0,0,1,1.42-9.11,53,53,0,0,1,3.72-8.5A.86.86,0,0,0,164.52,258.71Z"/><path class="cls-6" d="M170.05,292.05a28.83,28.83,0,0,1-2.33-5.49,33.89,33.89,0,0,1-1-5.93c-.07-.61-1-.85-1.16-.15a16,16,0,0,0,2.61,12.68A1.1,1.1,0,0,0,170.05,292.05Z"/><path class="cls-8" d="M177.61,360a24.29,24.29,0,0,1-1.83,3.41,23,23,0,0,1-6.23,6.59,21.92,21.92,0,0,1-5.61,2.72,23.19,23.19,0,0,1-3.11.78c-6.83,1.24-14.34-.37-19.35-5.06a17.19,17.19,0,0,1-1.93-2.14c-.26-.33-.5-.67-.73-1-4-6-3.86-13.56-1.11-20.16.29-.69.61-1.38.95-2.05a25.23,25.23,0,0,1,11.45-11.36,19.91,19.91,0,0,1,3.16-1.15,18.19,18.19,0,0,1,4-.62,21.52,21.52,0,0,1,15.59,6.19,23.89,23.89,0,0,1,1.76,1.87,22.82,22.82,0,0,1,3.77,6.28c.07.17.13.34.19.51C180.4,349.6,179.77,355.13,177.61,360Z"/><path class="cls-9" d="M177.61,360a24.29,24.29,0,0,1-1.83,3.41c-3.36-.49-6.77-1.12-10.14-2-.55,2.7-1,5.42-1.33,8.15-.13,1-.26,2.08-.37,3.12a23.19,23.19,0,0,1-3.11.78c.14-1.23.29-2.44.44-3.63.38-3.08.85-6.16,1.46-9.2a62,62,0,0,1-12.42-5,49.33,49.33,0,0,1-8.83,12.74,17.19,17.19,0,0,1-1.93-2.14c-.26-.33-.5-.67-.73-1a44.38,44.38,0,0,0,8.12-11.61,37,37,0,0,1-9.23-8.55c.29-.69.61-1.38.95-2.05a48.76,48.76,0,0,0,9.51,7.67,38.42,38.42,0,0,0,2.37-11.21,36.68,36.68,0,0,0-.17-6c-.06-.59-.16-1.19-.26-1.8a19.91,19.91,0,0,1,3.16-1.15,29.56,29.56,0,0,1,.95,8.39,37.42,37.42,0,0,1-2.29,12.87c-.1.29-.22.58-.33.87,1.09.57,2.19,1.11,3.31,1.6a62.3,62.3,0,0,0,8.57,3c.21-.89.43-1.76.67-2.64a62.55,62.55,0,0,1,5.32-13.25,41.7,41.7,0,0,1,3.43-5.3,23.89,23.89,0,0,1,1.76,1.87c-1,1.58-1.92,3.2-2.77,4.84a64.74,64.74,0,0,0-4.76,12.38c-.27.94-.51,1.89-.74,2.84A106.5,106.5,0,0,0,177.61,360Z"/><path class="cls-13" d="M176.68,347.36a5.49,5.49,0,0,0-.24-.68,1.13,1.13,0,0,0-1.95,0,5.49,5.49,0,0,0-.24.68,1.26,1.26,0,1,0,2.43,0Z"/><path class="cls-13" d="M174,351.58a1.68,1.68,0,0,0-.41-.87l-.06-.06a1.45,1.45,0,0,0-1-.42,1.41,1.41,0,0,0-1,.42l-.05.06a2.14,2.14,0,0,0-.39.67,1.41,1.41,0,0,0,.08,1,1.46,1.46,0,0,0,.46.61,1.5,1.5,0,0,0,.91.32,1.54,1.54,0,0,0,1.3-.75A1.5,1.5,0,0,0,174,351.58Z"/><path class="cls-13" d="M177.46,352.87l-.24-.68a1.06,1.06,0,0,0-1.14-.75,1,1,0,0,0-.9,1l0,.72a1.17,1.17,0,1,0,2.31-.31Z"/><path class="cls-13" d="M174.76,355.4a1.3,1.3,0,0,0,0,2.59A1.3,1.3,0,0,0,174.76,355.4Z"/><path class="cls-13" d="M147.46,366.26a1.32,1.32,0,0,0-.83-.15.66.66,0,0,0-.33.09.87.87,0,0,0-.41.27,1,1,0,0,0-.25.3,1.24,1.24,0,0,0,.25,1.54,1.81,1.81,0,0,0,.57.33,1.25,1.25,0,0,0,.85-.07,1.27,1.27,0,0,0,.79-1.18A1.36,1.36,0,0,0,147.46,366.26Z"/><path class="cls-13" d="M150.09,363.93a1.42,1.42,0,0,0-.2-.22,1.21,1.21,0,0,0-.52-.31,1.13,1.13,0,0,0-.63,0,1.18,1.18,0,0,0-.83.83,3.38,3.38,0,0,0-.07.63,1.3,1.3,0,0,0,.66,1.13,1.27,1.27,0,0,0,1.17.07,1.31,1.31,0,0,0,.76-.85A1.37,1.37,0,0,0,150.09,363.93Z"/><path class="cls-13" d="M150.57,368.25a1.47,1.47,0,0,0-1,.41,1.38,1.38,0,0,0-.4,1,1.4,1.4,0,0,0,1.38,1.38,1.39,1.39,0,0,0,1-.41,1.38,1.38,0,0,0-1-2.36Z"/><path class="cls-13" d="M154.23,369.52a1.1,1.1,0,0,0,0,2.2A1.1,1.1,0,0,0,154.23,369.52Z"/><path class="cls-14" d="M262.15,260.45c9.61,0,18.71-3.9,27.92-6.14,16.6-4,37.28-1.61,49.52,11.25,3.1,3.25,6.28,7.19,8,11.47,3,7.62,1.95,16.44-.54,24.29a31.93,31.93,0,0,1-4.34,9.28A24,24,0,0,1,330.23,319a50,50,0,0,1-14.87,1.76,129.75,129.75,0,0,1-40.13-6.48c-4.5-1.47-9-3.25-12.66-6.45-6.88-6.05-9.4-16.29-9-25.79A52.62,52.62,0,0,1,263.27,254"/><path class="cls-15" d="M270.59,281.21c2.34,4,6.14,7,9.83,9.85,7.42,5.73,15.05,11.56,24,14.26L266.69,298c-4-.78-8.5-1.87-10.63-5.36,4.4-2.73,7-7.75,7.93-12.84.57-3-1.06-12.24,1.1-14C268.3,269.22,268.07,276.88,270.59,281.21Z"/><path class="cls-14" d="M268.76,280.88c-1.26,7.12-6.83,11.37-13.32,13.66-7.82,2.75-16.44,4.61-24.13.43-9.82-5.32-13.14-17.87-10.35-28.14a.67.67,0,0,0,0-.33c-.41-1.49-4-6.2-3.58-13.76,0-.18,0-.37,0-.55,3.52.41,8,1.31,10.76,3.51a45.66,45.66,0,0,1,26.59-2.48,15.92,15.92,0,0,1,11.68-6.61,9.91,9.91,0,0,1,.14,1.26,23.82,23.82,0,0,1-.25,4.43,62.77,62.77,0,0,1-2.49,8.47v0c0,.39,2.31,3.63,2.52,4.08A28.07,28.07,0,0,1,268.76,280.88Z"/><path class="cls-6" d="M266.31,252.3a62.77,62.77,0,0,1-2.49,8.47v0a14.59,14.59,0,0,1-6.48-5.61,37.49,37.49,0,0,1,4.74-4.34,30.52,30.52,0,0,1,4.48-3A23.82,23.82,0,0,1,266.31,252.3Z"/><path class="cls-6" d="M225.5,260.63a1.15,1.15,0,0,1-.22.58,24.3,24.3,0,0,1-4.35,5.29c-.41-1.49-4-6.2-3.58-13.76,1.29.33,3,2,3.77,2.66a23.24,23.24,0,0,1,4.14,4.66A1.2,1.2,0,0,1,225.5,260.63Z"/><path class="cls-4" d="M237.87,274.09c-.55,3.22-1.56,6.4-1.46,9.67a5.34,5.34,0,0,0,1.15,3.53,5.43,5.43,0,0,0,1.54,1.06,10.66,10.66,0,0,0,4,1.25,7.32,7.32,0,0,0,7.54-9.37c-.74-2.51-2.77-4.45-3.68-6.91a23.49,23.49,0,0,1-.92-5.62,29.63,29.63,0,0,0-2.08-8c-.64-1.52-1.53-3.19-3.21-3.75-1.18-.39-2.39-.16-2.82,1.09s0,2.87.1,4.15a54.83,54.83,0,0,1,.37,6.14A40.52,40.52,0,0,1,237.87,274.09Z"/><path class="cls-5" d="M244.82,273.71c.31,0,.68.05.8.33a.79.79,0,0,1-.09.63,10.11,10.11,0,0,1-1.37,2.18,1.41,1.41,0,0,1-2.18.21,7.26,7.26,0,0,1-1.08-.76,1.71,1.71,0,0,1-.68-1C240,273.74,243.92,273.71,244.82,273.71Z"/><path class="cls-5" d="M244.32,280.12a21.79,21.79,0,0,0-1.07-5c-.13-.3-.53-.09-.47.14a22.93,22.93,0,0,0,.62,5.27,30,30,0,0,0,1,5.35c.17.46.75.22.76-.19A31,31,0,0,0,244.32,280.12Z"/><path class="cls-5" d="M236.93,272.9c-3.15-1.38-7.28-1.28-9.8,1.34a.4.4,0,0,0,.48.62c2.71-1.28,5.61-1.77,8.37-.33C237.07,275.09,238,273.38,236.93,272.9Z"/><path class="cls-5" d="M248.44,271.31c2.42-2.45,6.29-3.89,9.6-2.38a.4.4,0,0,1-.22.75c-3-.19-5.86.43-7.9,2.79C249.12,273.4,247.6,272.16,248.44,271.31Z"/><path class="cls-6" d="M239.44,279.3a.41.41,0,0,0-.82,0v.14a.43.43,0,0,0,.42.43.42.42,0,0,0,.42-.43Z"/><path class="cls-6" d="M240.91,279a.46.46,0,0,0-.46.45.47.47,0,0,0,.46.45.46.46,0,0,0,.45-.45A.45.45,0,0,0,240.91,279Z"/><path class="cls-6" d="M239.91,280.42a.55.55,0,1,0,.55.55A.56.56,0,0,0,239.91,280.42Z"/><path class="cls-6" d="M246.63,277.38a.53.53,0,0,0,0,1.05A.53.53,0,0,0,246.63,277.38Z"/><path class="cls-6" d="M245.23,278.19a.56.56,0,0,0-.36,0,.39.39,0,0,0-.26.46.51.51,0,0,0,.19.28.45.45,0,0,0,.69-.09A.44.44,0,0,0,245.23,278.19Z"/><path class="cls-6" d="M246.24,279.12a.48.48,0,1,0,.47.48A.48.48,0,0,0,246.24,279.12Z"/><path class="cls-15" d="M276.23,261.87c-1.31.54-2.65,1-4,1.42a.42.42,0,0,0,.22.82,22.9,22.9,0,0,0,4.09-1C277.34,262.82,277,261.56,276.23,261.87Z"/><path class="cls-15" d="M275.87,265.89l-1,.28a2.25,2.25,0,0,0-.85.33c-.19.15,0,.43.13.5a2.47,2.47,0,0,0,.9,0l1,0A.55.55,0,1,0,275.87,265.89Z"/><path class="cls-15" d="M277.5,269.05a6.14,6.14,0,0,1-1.41.39c-.42.06-.87,0-1.2.31a.41.41,0,0,0-.06.47c.28.45.86.48,1.34.5a6,6,0,0,0,1.74-.19C278.88,270.28,278.41,268.69,277.5,269.05Z"/><path class="cls-15" d="M292.9,277.76a22.37,22.37,0,0,1-4.21-1,.46.46,0,0,0-.36.83,11.55,11.55,0,0,0,4.37,1.58A.73.73,0,1,0,292.9,277.76Z"/><path class="cls-15" d="M293.83,274.09c-1.2.21-2.45.05-3.64.29a.3.3,0,0,0-.07.54,7.6,7.6,0,0,0,3.9.53A.69.69,0,1,0,293.83,274.09Z"/><path class="cls-15" d="M293.71,269.29a10.41,10.41,0,0,1-3.55.4.43.43,0,0,0-.21.79,5.91,5.91,0,0,0,4.18.32C295.11,270.57,294.66,269,293.71,269.29Z"/><path class="cls-15" d="M292.54,258.88a7.94,7.94,0,0,0-3.4,1.39c-.3.22-.14.82.28.66a11.66,11.66,0,0,1,3.29-.81A.63.63,0,1,0,292.54,258.88Z"/><path class="cls-15" d="M292.89,261.71c-.44,0-.88.06-1.32.11a1.76,1.76,0,0,0-.89.25h0a.34.34,0,0,0-.15.37c.07.39.53.43.85.47.5.07,1,.06,1.54.08C293.73,263,293.71,261.65,292.89,261.71Z"/><path class="cls-15" d="M310.43,279.49a16.5,16.5,0,0,1-4.74-.56c-.56-.14-1,.69-.41,1a11.74,11.74,0,0,0,5.15,1.18C311.45,281.1,311.45,279.43,310.43,279.49Z"/><path class="cls-15" d="M311.46,275.49a9.28,9.28,0,0,1-2,.05,3.16,3.16,0,0,1-1.93-.57c-.38-.38-.88,0-.82.48.24,1.74,3.52,1.79,4.79,1.74C312.57,277.14,312.52,275.35,311.46,275.49Z"/><path class="cls-15" d="M311.16,270.57c-1.38-.41-2.79-.75-4.18-1.12a.45.45,0,0,0-.24.87,30.09,30.09,0,0,1,3.92,1.43C311.53,272.12,312,270.84,311.16,270.57Z"/><path class="cls-15" d="M312.23,263.23a11.88,11.88,0,0,0-4.75-.12c-.6.13-.38.92.13,1a31.31,31.31,0,0,1,4.2.64C312.79,265,313.2,263.41,312.23,263.23Z"/><path class="cls-15" d="M312.68,259.16a9.08,9.08,0,0,0-4.9-.2.42.42,0,0,0,.11.82,14.91,14.91,0,0,1,4.4.78C313.16,260.89,313.58,259.43,312.68,259.16Z"/><path class="cls-15" d="M323.83,274.91c-1.09.06-2.25-.16-3.32,0-.46.07-.48.73-.13.94a7.51,7.51,0,0,0,3.45.61C324.84,276.5,324.83,274.86,323.83,274.91Z"/><path class="cls-15" d="M324.86,271c-1.06-.16-2.12-.37-3.16-.63-.48-.12-.84.62-.35.83a20.66,20.66,0,0,0,3.15,1.11C325.36,272.54,325.7,271.13,324.86,271Z"/><path class="cls-15" d="M326.09,267.4a48.23,48.23,0,0,1-4.66-1.73c-.51-.21-.8.59-.37.86a29.84,29.84,0,0,0,4.64,2.29C326.56,269.17,327,267.68,326.09,267.4Z"/><path class="cls-15" d="M329.12,263.75c-1.29-.88-2.62-1.69-3.92-2.54-.46-.31-1.05.42-.6.78,1.2,1,2.36,2,3.58,3A.77.77,0,1,0,329.12,263.75Z"/><path class="cls-15" d="M336.77,273.94a13.59,13.59,0,0,1-2.47-.11c-.7-.09-1,.91-.3,1.1a16.16,16.16,0,0,0,2.77.45C337.69,275.45,337.71,273.91,336.77,273.94Z"/><path class="cls-15" d="M339.11,270.73a17.86,17.86,0,0,1-3.24-.56.48.48,0,0,0-.26.92,30.42,30.42,0,0,0,3.33.91A.64.64,0,1,0,339.11,270.73Z"/><path class="cls-6" d="M237.31,324.1a8.92,8.92,0,0,0-4.1,1.19c-2.34,1.6-2.75,4.82-2.88,7.65-.18,4.08.09,8.8,3.32,11.29a12.09,12.09,0,0,0,5.51,2,69.81,69.81,0,0,0,42.2-6,4.71,4.71,0,0,0,2-1.53,4.24,4.24,0,0,0,.45-2.61,18.38,18.38,0,0,0-4.54-10.81c-3.5-4-6.87-2.29-11.72-1.95C257.5,324,247.37,323,237.31,324.1Z"/><path class="cls-16" d="M301.74,341.74,327,335.25c6.41-1.65,12.94-2.41,19.39-4.07,3.33-.85,6.64-1.81,9.92-2.85,2.47-.79,6.29-3.09,8.84-3.09,6.55-2,13.12-4.11,19.18-7.31a22.61,22.61,0,0,0,7.6-5.87,16.34,16.34,0,0,0,2.83-12.25,24.91,24.91,0,0,0-5.38-11.57,21.73,21.73,0,0,0-8.12-6.6c-4.83-2.1-10.38-1.71-15.55-.73-12.42,2.34-24,7.72-35.57,12.86q-16.37,7.29-33,14c-10.14,4.13-21.12,7.38-30.53,13.05a9,9,0,0,0-3,2.56c-2,3,.51,11.16,1.58,14.41,3,9.2,9.88,10.77,18.61,8.53Z"/><path class="cls-6" d="M371.32,325.78a8.89,8.89,0,0,1,4.1,1.2c2.34,1.59,2.76,4.82,2.88,7.65.18,4.08-.08,8.8-3.32,11.29a12.1,12.1,0,0,1-5.5,2,69.83,69.83,0,0,1-42.21-6,4.79,4.79,0,0,1-2-1.53,4.4,4.4,0,0,1-.45-2.61,18.45,18.45,0,0,1,4.55-10.82c3.5-4,6.87-2.28,11.71-1.94C351.13,325.68,361.27,324.66,371.32,325.78Z"/><path class="cls-5" d="M312.81,344.55l-25.24-6.48c-6.41-1.65-12.94-2.42-19.4-4.08q-5-1.28-9.91-2.85c-2.48-.79-6.3-3.08-8.85-3.08-6.55-2-13.11-4.12-19.17-7.32a22.43,22.43,0,0,1-7.61-5.87,16.37,16.37,0,0,1-2.83-12.25,24.91,24.91,0,0,1,5.38-11.57,21.92,21.92,0,0,1,8.12-6.6c4.84-2.1,10.38-1.7,15.56-.73,12.42,2.35,24,7.73,35.57,12.86q16.36,7.29,32.95,14c10.14,4.13,21.12,7.38,30.54,13.05a9.13,9.13,0,0,1,3,2.56c2,3-.5,11.17-1.58,14.42-3,9.19-9.88,10.76-18.6,8.52Z"/><path class="cls-4" d="M355.32,314.55c-4.38,5.38-10.7,8.84-16.95,11.58-3.26,1.43-6.57,2.77-9.75,4.37a50.65,50.65,0,0,0-4.5,2.51,23.62,23.62,0,0,0-3.41,2.49,17,17,0,0,0-5.19,6.84h0c0,.05-.37,1.06-.41,1.18-.08.28-.16.57-.23.85s-.2.84-.27,1.26a1.25,1.25,0,0,0,0,.15,17.64,17.64,0,0,0-.06,2.41c0,.12.06.52.07.62.06.34.14.68.22,1a4.42,4.42,0,0,1-8.53,2.35c-2.16-7.87,1.14-16.09,6.76-21.69,4.81-4.78,11-7.72,17.12-10.35,3.19-1.37,6.41-2.71,9.52-4.26a44,44,0,0,0,4.38-2.48c.61-.39,1.2-.8,1.79-1.23a14.52,14.52,0,0,0,1.18-1,19.17,19.17,0,0,0,5.12-6.6,15.81,15.81,0,0,0,1-3.46c0-.08,0-.14,0-.16a1.62,1.62,0,0,1,0-.21c0-.32.05-.65.05-1s0-.41,0-.62q2.1-.9,4.15-1.92c.92-.46,1.84-.94,2.75-1.44l.06.27C361.85,302.84,359.62,309.27,355.32,314.55Z"/><path class="cls-15" d="M225.78,284.49a5.73,5.73,0,0,0-1.8,5.41,2.62,2.62,0,0,0,1,1.56,3.06,3.06,0,0,0,1.29.41A10.91,10.91,0,0,0,236.81,287a3.47,3.47,0,0,0,.63-1.89A2.69,2.69,0,0,0,236,283,9.09,9.09,0,0,0,225.78,284.49Z"/><path class="cls-5" d="M229.76,292.28c-1.94-1.7-2-4-2.65-6.35a.36.36,0,0,0-.71.1c-.16,2.57.42,5.42,2.37,7.24C229.43,293.88,230.44,292.87,229.76,292.28Z"/><path class="cls-5" d="M234.77,289.52a7.29,7.29,0,0,1-1.64-2.92,10.12,10.12,0,0,0-.84-2.56.2.2,0,0,0-.36,0,6.65,6.65,0,0,0,.27,3.36,8.39,8.39,0,0,0,1.53,3.13C234.29,291.3,235.44,290.23,234.77,289.52Z"/><path class="cls-15" d="M262.49,284.21a5.69,5.69,0,0,1,1.8,5.41,2.56,2.56,0,0,1-1,1.56,3.06,3.06,0,0,1-1.29.41,10.9,10.9,0,0,1-10.54-4.92,3.47,3.47,0,0,1-.63-1.89,2.69,2.69,0,0,1,1.49-2.1A9.07,9.07,0,0,1,262.49,284.21Z"/><path class="cls-5" d="M258.52,292c1.94-1.7,2-4,2.65-6.35a.36.36,0,0,1,.71.1c.16,2.57-.42,5.42-2.37,7.24C258.84,293.6,257.84,292.59,258.52,292Z"/><path class="cls-5" d="M253.51,289.24a7.29,7.29,0,0,0,1.64-2.92,10.32,10.32,0,0,1,.84-2.57.2.2,0,0,1,.36.05,6.65,6.65,0,0,1-.27,3.36,8.54,8.54,0,0,1-1.53,3.13C254,291,252.84,290,253.51,289.24Z"/><path class="cls-6" d="M296.29,283.06a1.15,1.15,0,0,0-1,.39c-.32.54.34,1.11.9,1.39l7.72,3.82q-5.58-.35-11.19-.36a26.27,26.27,0,0,0-9.35,1.18c-.15.64.65,1,1.28,1.21l10.43,2.68-8.87,0c-1.46,0-3.16.13-4,1.35a41.7,41.7,0,0,0,12,3.63c-1.91.24-3.85-.14-5.77,0s-4,1-4.69,2.82q6.13.35,12.27.56c-2.92.72-6.17,1.67-7.64,4.3a1.54,1.54,0,0,0-.26,1.09c.2.85,1.34,1,2.21.88l15.31-1.43c6.72-.63,13.5-1.27,19.91-3.4a1.78,1.78,0,0,0,1.46-2.1,26.42,26.42,0,0,0-1-9.17,11,11,0,0,0-5.82-6.85c.23.1-.22,1.22-.3,1.33C311.94,284.67,304.59,282.75,296.29,283.06Z"/><path class="cls-9" d="M374.34,269c0,.43,0,.85,0,1.27a46,46,0,0,1-.81,7.5,25.43,25.43,0,0,1-5.13,11.55,28.43,28.43,0,0,1-8.15,6.44c-.91.5-1.83,1-2.75,1.44q-2.06,1-4.15,1.92a86,86,0,0,1-32.59,6.95c-.14-.49-.27-1-.4-1.46a101,101,0,0,1-3.17-18.82c-.06-.94-.12-1.87-.16-2.81a95.38,95.38,0,0,0,19.27-5.23,22,22,0,0,0,7.57-4.32c4.11-4,5-10.22,5.25-15.94.64-12,0-24-.71-36-.21-3.73-1.73-7.27-2.28-10.92a24,24,0,0,1,6.14,4.89C365.77,229.89,374.59,249.28,374.34,269Z"/><path class="cls-10" d="M348,248.81c-2.42-8.18-6.1-16.54-11.57-23.15-.38-.46-1,.12-.79.6,3.89,7.3,7.41,14.53,9.38,22.61,1.72,7.08,3.17,15.6-1,22.15-1.27,2,1.86,3.78,3.17,1.85C352.08,265.75,350.31,256.51,348,248.81Z"/></g></g></svg>